%TF.GenerationSoftware,KiCad,Pcbnew,7.0.10*%
%TF.CreationDate,2024-04-20T21:15:11+02:00*%
%TF.ProjectId,cycle-7,6379636c-652d-4372-9e6b-696361645f70,rev?*%
%TF.SameCoordinates,Original*%
%TF.FileFunction,Soldermask,Top*%
%TF.FilePolarity,Negative*%
%FSLAX46Y46*%
G04 Gerber Fmt 4.6, Leading zero omitted, Abs format (unit mm)*
G04 Created by KiCad (PCBNEW 7.0.10) date 2024-04-20 21:15:11*
%MOMM*%
%LPD*%
G01*
G04 APERTURE LIST*
%ADD10C,1.750000*%
%ADD11C,3.987800*%
%ADD12C,3.300000*%
%ADD13R,1.700000X1.700000*%
%ADD14O,1.700000X1.700000*%
G04 APERTURE END LIST*
D10*
%TO.C,MX15*%
X335592500Y-90000000D03*
D11*
X330512500Y-90000000D03*
D10*
X325432500Y-90000000D03*
D12*
X326702500Y-87460000D03*
X333052500Y-84920000D03*
%TD*%
D11*
%TO.C,S3*%
X278125000Y-155405000D03*
X301937500Y-155405000D03*
%TD*%
%TO.C,S4*%
X40000000Y-155405000D03*
X63812500Y-155405000D03*
%TD*%
%TO.C,S6*%
X163825000Y-157945000D03*
X140012500Y-157945000D03*
%TD*%
%TO.C,S5*%
X211450000Y-157945000D03*
X187637500Y-157945000D03*
%TD*%
%TO.C,S1*%
X285268750Y-98255000D03*
X309081250Y-98255000D03*
%TD*%
%TO.C,S2*%
X306700000Y-119845000D03*
X282887500Y-119845000D03*
%TD*%
D10*
%TO.C,MX22*%
X130805000Y-109050000D03*
D11*
X125725000Y-109050000D03*
D10*
X120645000Y-109050000D03*
D12*
X121915000Y-106510000D03*
X128265000Y-103970000D03*
%TD*%
D10*
%TO.C,MX18*%
X49842500Y-109050000D03*
D11*
X44762500Y-109050000D03*
D10*
X39682500Y-109050000D03*
D12*
X40952500Y-106510000D03*
X47302500Y-103970000D03*
%TD*%
D10*
%TO.C,MX3*%
X83180000Y-90000000D03*
D11*
X78100000Y-90000000D03*
D10*
X73020000Y-90000000D03*
D12*
X74290000Y-87460000D03*
X80640000Y-84920000D03*
%TD*%
D10*
%TO.C,MX44*%
X230817500Y-128100000D03*
D11*
X225737500Y-128100000D03*
D10*
X220657500Y-128100000D03*
D12*
X221927500Y-125560000D03*
X228277500Y-123020000D03*
%TD*%
D13*
%TO.C,J2*%
X316575000Y-138075000D03*
D14*
X316575000Y-140615000D03*
X316575000Y-143155000D03*
X316575000Y-145695000D03*
%TD*%
D10*
%TO.C,MX67*%
X237961250Y-166200000D03*
D11*
X232881250Y-166200000D03*
D10*
X227801250Y-166200000D03*
D12*
X229071250Y-163660000D03*
X235421250Y-161120000D03*
%TD*%
D10*
%TO.C,MX41*%
X173667500Y-128100000D03*
D11*
X168587500Y-128100000D03*
D10*
X163507500Y-128100000D03*
D12*
X164777500Y-125560000D03*
X171127500Y-123020000D03*
%TD*%
D10*
%TO.C,MX45*%
X249867500Y-128100000D03*
D11*
X244787500Y-128100000D03*
D10*
X239707500Y-128100000D03*
D12*
X240977500Y-125560000D03*
X247327500Y-123020000D03*
%TD*%
D10*
%TO.C,MX27*%
X226055000Y-109050000D03*
D11*
X220975000Y-109050000D03*
D10*
X215895000Y-109050000D03*
D12*
X217165000Y-106510000D03*
X223515000Y-103970000D03*
%TD*%
D10*
%TO.C,MX31*%
X307017500Y-109050000D03*
D11*
X301937500Y-109050000D03*
D10*
X296857500Y-109050000D03*
D12*
X298127500Y-106510000D03*
X304477500Y-103970000D03*
%TD*%
D10*
%TO.C,MX53*%
X164142500Y-147150000D03*
D11*
X159062500Y-147150000D03*
D10*
X153982500Y-147150000D03*
D12*
X155252500Y-144610000D03*
X161602500Y-142070000D03*
%TD*%
D10*
%TO.C,MX17*%
X373692500Y-90000000D03*
D11*
X368612500Y-90000000D03*
D10*
X363532500Y-90000000D03*
D12*
X364802500Y-87460000D03*
X371152500Y-84920000D03*
%TD*%
D10*
%TO.C,MX60*%
X354642500Y-147150000D03*
D11*
X349562500Y-147150000D03*
D10*
X344482500Y-147150000D03*
D12*
X345752500Y-144610000D03*
X352102500Y-142070000D03*
%TD*%
D10*
%TO.C,MX68*%
X261773750Y-166200000D03*
D11*
X256693750Y-166200000D03*
D10*
X251613750Y-166200000D03*
D12*
X252883750Y-163660000D03*
X259233750Y-161120000D03*
%TD*%
D10*
%TO.C,MX58*%
X259392500Y-147150000D03*
D11*
X254312500Y-147150000D03*
D10*
X249232500Y-147150000D03*
D12*
X250502500Y-144610000D03*
X256852500Y-142070000D03*
%TD*%
D10*
%TO.C,MX59*%
X295111250Y-147150000D03*
D11*
X290031250Y-147150000D03*
D10*
X284951250Y-147150000D03*
D12*
X286221250Y-144610000D03*
X292571250Y-142070000D03*
%TD*%
D10*
%TO.C,MX13*%
X273680000Y-90000000D03*
D11*
X268600000Y-90000000D03*
D10*
X263520000Y-90000000D03*
D12*
X264790000Y-87460000D03*
X271140000Y-84920000D03*
%TD*%
D10*
%TO.C,MX21*%
X111755000Y-109050000D03*
D11*
X106675000Y-109050000D03*
D10*
X101595000Y-109050000D03*
D12*
X102865000Y-106510000D03*
X109215000Y-103970000D03*
%TD*%
D10*
%TO.C,MX6*%
X140330000Y-90000000D03*
D11*
X135250000Y-90000000D03*
D10*
X130170000Y-90000000D03*
D12*
X131440000Y-87460000D03*
X137790000Y-84920000D03*
%TD*%
D10*
%TO.C,MX34*%
X373692500Y-109050000D03*
D11*
X368612500Y-109050000D03*
D10*
X363532500Y-109050000D03*
D12*
X364802500Y-106510000D03*
X371152500Y-103970000D03*
%TD*%
D10*
%TO.C,MX65*%
X156998750Y-166200000D03*
D11*
X151918750Y-166200000D03*
D10*
X146838750Y-166200000D03*
D12*
X148108750Y-163660000D03*
X154458750Y-161120000D03*
%TD*%
D10*
%TO.C,MX26*%
X207005000Y-109050000D03*
D11*
X201925000Y-109050000D03*
D10*
X196845000Y-109050000D03*
D12*
X198115000Y-106510000D03*
X204465000Y-103970000D03*
%TD*%
D10*
%TO.C,MX50*%
X106992500Y-147150000D03*
D11*
X101912500Y-147150000D03*
D10*
X96832500Y-147150000D03*
D12*
X98102500Y-144610000D03*
X104452500Y-142070000D03*
%TD*%
D10*
%TO.C,MX64*%
X118898750Y-166200000D03*
D11*
X113818750Y-166200000D03*
D10*
X108738750Y-166200000D03*
D12*
X110008750Y-163660000D03*
X116358750Y-161120000D03*
%TD*%
D10*
%TO.C,MX61*%
X47461250Y-166200000D03*
D11*
X42381250Y-166200000D03*
D10*
X37301250Y-166200000D03*
D12*
X38571250Y-163660000D03*
X44921250Y-161120000D03*
%TD*%
D10*
%TO.C,MX1*%
X45080000Y-90000000D03*
D11*
X40000000Y-90000000D03*
D10*
X34920000Y-90000000D03*
D12*
X36190000Y-87460000D03*
X42540000Y-84920000D03*
%TD*%
D10*
%TO.C,MX48*%
X56986250Y-147150000D03*
D11*
X51906250Y-147150000D03*
D10*
X46826250Y-147150000D03*
D12*
X48096250Y-144610000D03*
X54446250Y-142070000D03*
%TD*%
D10*
%TO.C,MX36*%
X78417500Y-128100000D03*
D11*
X73337500Y-128100000D03*
D10*
X68257500Y-128100000D03*
D12*
X69527500Y-125560000D03*
X75877500Y-123020000D03*
%TD*%
D10*
%TO.C,MX35*%
X52223750Y-128100000D03*
D11*
X47143750Y-128100000D03*
D10*
X42063750Y-128100000D03*
D12*
X43333750Y-125560000D03*
X49683750Y-123020000D03*
%TD*%
D10*
%TO.C,MX10*%
X216530000Y-90000000D03*
D11*
X211450000Y-90000000D03*
D10*
X206370000Y-90000000D03*
D12*
X207640000Y-87460000D03*
X213990000Y-84920000D03*
%TD*%
D10*
%TO.C,MX4*%
X102230000Y-90000000D03*
D11*
X97150000Y-90000000D03*
D10*
X92070000Y-90000000D03*
D12*
X93340000Y-87460000D03*
X99690000Y-84920000D03*
%TD*%
D10*
%TO.C,MX69*%
X285586250Y-166200000D03*
D11*
X280506250Y-166200000D03*
D10*
X275426250Y-166200000D03*
D12*
X276696250Y-163660000D03*
X283046250Y-161120000D03*
%TD*%
D10*
%TO.C,MX24*%
X168905000Y-109050000D03*
D11*
X163825000Y-109050000D03*
D10*
X158745000Y-109050000D03*
D12*
X160015000Y-106510000D03*
X166365000Y-103970000D03*
%TD*%
D10*
%TO.C,MX16*%
X354642500Y-90000000D03*
D11*
X349562500Y-90000000D03*
D10*
X344482500Y-90000000D03*
D12*
X345752500Y-87460000D03*
X352102500Y-84920000D03*
%TD*%
D10*
%TO.C,MX37*%
X97467500Y-128100000D03*
D11*
X92387500Y-128100000D03*
D10*
X87307500Y-128100000D03*
D12*
X88577500Y-125560000D03*
X94927500Y-123020000D03*
%TD*%
D10*
%TO.C,MX66*%
X204623750Y-166200000D03*
D11*
X199543750Y-166200000D03*
D10*
X194463750Y-166200000D03*
D12*
X195733750Y-163660000D03*
X202083750Y-161120000D03*
%TD*%
D10*
%TO.C,MX43*%
X211767500Y-128100000D03*
D11*
X206687500Y-128100000D03*
D10*
X201607500Y-128100000D03*
D12*
X202877500Y-125560000D03*
X209227500Y-123020000D03*
%TD*%
D10*
%TO.C,MX12*%
X254630000Y-90000000D03*
D11*
X249550000Y-90000000D03*
D10*
X244470000Y-90000000D03*
D12*
X245740000Y-87460000D03*
X252090000Y-84920000D03*
%TD*%
D10*
%TO.C,MX9*%
X197480000Y-90000000D03*
D11*
X192400000Y-90000000D03*
D10*
X187320000Y-90000000D03*
D12*
X188590000Y-87460000D03*
X194940000Y-84920000D03*
%TD*%
D10*
%TO.C,MX46*%
X268917500Y-128100000D03*
D11*
X263837500Y-128100000D03*
D10*
X258757500Y-128100000D03*
D12*
X260027500Y-125560000D03*
X266377500Y-123020000D03*
%TD*%
D10*
%TO.C,MX71*%
X335592500Y-166200000D03*
D11*
X330512500Y-166200000D03*
D10*
X325432500Y-166200000D03*
D12*
X326702500Y-163660000D03*
X333052500Y-161120000D03*
%TD*%
D10*
%TO.C,MX63*%
X95086250Y-166200000D03*
D11*
X90006250Y-166200000D03*
D10*
X84926250Y-166200000D03*
D12*
X86196250Y-163660000D03*
X92546250Y-161120000D03*
%TD*%
D10*
%TO.C,MX30*%
X283205000Y-109050000D03*
D11*
X278125000Y-109050000D03*
D10*
X273045000Y-109050000D03*
D12*
X274315000Y-106510000D03*
X280665000Y-103970000D03*
%TD*%
D10*
%TO.C,MX14*%
X302255000Y-90000000D03*
D11*
X297175000Y-90000000D03*
D10*
X292095000Y-90000000D03*
D12*
X293365000Y-87460000D03*
X299715000Y-84920000D03*
%TD*%
D10*
%TO.C,MX55*%
X202242500Y-147150000D03*
D11*
X197162500Y-147150000D03*
D10*
X192082500Y-147150000D03*
D12*
X193352500Y-144610000D03*
X199702500Y-142070000D03*
%TD*%
D10*
%TO.C,MX23*%
X149855000Y-109050000D03*
D11*
X144775000Y-109050000D03*
D10*
X139695000Y-109050000D03*
D12*
X140965000Y-106510000D03*
X147315000Y-103970000D03*
%TD*%
D10*
%TO.C,MX2*%
X64130000Y-90000000D03*
D11*
X59050000Y-90000000D03*
D10*
X53970000Y-90000000D03*
D12*
X55240000Y-87460000D03*
X61590000Y-84920000D03*
%TD*%
D10*
%TO.C,MX20*%
X92705000Y-109050000D03*
D11*
X87625000Y-109050000D03*
D10*
X82545000Y-109050000D03*
D12*
X83815000Y-106510000D03*
X90165000Y-103970000D03*
%TD*%
D10*
%TO.C,MX40*%
X154617500Y-128100000D03*
D11*
X149537500Y-128100000D03*
D10*
X144457500Y-128100000D03*
D12*
X145727500Y-125560000D03*
X152077500Y-123020000D03*
%TD*%
D10*
%TO.C,MX7*%
X159380000Y-90000000D03*
D11*
X154300000Y-90000000D03*
D10*
X149220000Y-90000000D03*
D12*
X150490000Y-87460000D03*
X156840000Y-84920000D03*
%TD*%
D10*
%TO.C,MX52*%
X145092500Y-147150000D03*
D11*
X140012500Y-147150000D03*
D10*
X134932500Y-147150000D03*
D12*
X136202500Y-144610000D03*
X142552500Y-142070000D03*
%TD*%
D10*
%TO.C,MX5*%
X121280000Y-90000000D03*
D11*
X116200000Y-90000000D03*
D10*
X111120000Y-90000000D03*
D12*
X112390000Y-87460000D03*
X118740000Y-84920000D03*
%TD*%
D10*
%TO.C,MX11*%
X235580000Y-90000000D03*
D11*
X230500000Y-90000000D03*
D10*
X225420000Y-90000000D03*
D12*
X226690000Y-87460000D03*
X233040000Y-84920000D03*
%TD*%
D10*
%TO.C,MX72*%
X354642500Y-166200000D03*
D11*
X349562500Y-166200000D03*
D10*
X344482500Y-166200000D03*
D12*
X345752500Y-163660000D03*
X352102500Y-161120000D03*
%TD*%
D10*
%TO.C,MX25*%
X187955000Y-109050000D03*
D11*
X182875000Y-109050000D03*
D10*
X177795000Y-109050000D03*
D12*
X179065000Y-106510000D03*
X185415000Y-103970000D03*
%TD*%
D10*
%TO.C,MX32*%
X335592500Y-109050000D03*
D11*
X330512500Y-109050000D03*
D10*
X325432500Y-109050000D03*
D12*
X326702500Y-106510000D03*
X333052500Y-103970000D03*
%TD*%
D10*
%TO.C,MX42*%
X192717500Y-128100000D03*
D11*
X187637500Y-128100000D03*
D10*
X182557500Y-128100000D03*
D12*
X183827500Y-125560000D03*
X190177500Y-123020000D03*
%TD*%
D10*
%TO.C,MX39*%
X135567500Y-128100000D03*
D11*
X130487500Y-128100000D03*
D10*
X125407500Y-128100000D03*
D12*
X126677500Y-125560000D03*
X133027500Y-123020000D03*
%TD*%
D10*
%TO.C,MX73*%
X373692500Y-166200000D03*
D11*
X368612500Y-166200000D03*
D10*
X363532500Y-166200000D03*
D12*
X364802500Y-163660000D03*
X371152500Y-161120000D03*
%TD*%
D10*
%TO.C,MX47*%
X299873750Y-128100000D03*
D11*
X294793750Y-128100000D03*
D10*
X289713750Y-128100000D03*
D12*
X290983750Y-125560000D03*
X297333750Y-123020000D03*
%TD*%
D10*
%TO.C,MX49*%
X87942500Y-147150000D03*
D11*
X82862500Y-147150000D03*
D10*
X77782500Y-147150000D03*
D12*
X79052500Y-144610000D03*
X85402500Y-142070000D03*
%TD*%
D10*
%TO.C,MX28*%
X245105000Y-109050000D03*
D11*
X240025000Y-109050000D03*
D10*
X234945000Y-109050000D03*
D12*
X236215000Y-106510000D03*
X242565000Y-103970000D03*
%TD*%
D13*
%TO.C,J3*%
X309975000Y-143175000D03*
D14*
X309975000Y-145715000D03*
%TD*%
D10*
%TO.C,MX54*%
X183192500Y-147150000D03*
D11*
X178112500Y-147150000D03*
D10*
X173032500Y-147150000D03*
D12*
X174302500Y-144610000D03*
X180652500Y-142070000D03*
%TD*%
D10*
%TO.C,MX62*%
X71273750Y-166200000D03*
D11*
X66193750Y-166200000D03*
D10*
X61113750Y-166200000D03*
D12*
X62383750Y-163660000D03*
X68733750Y-161120000D03*
%TD*%
D10*
%TO.C,MX56*%
X221292500Y-147150000D03*
D11*
X216212500Y-147150000D03*
D10*
X211132500Y-147150000D03*
D12*
X212402500Y-144610000D03*
X218752500Y-142070000D03*
%TD*%
D10*
%TO.C,MX29*%
X264155000Y-109050000D03*
D11*
X259075000Y-109050000D03*
D10*
X253995000Y-109050000D03*
D12*
X255265000Y-106510000D03*
X261615000Y-103970000D03*
%TD*%
D10*
%TO.C,MX19*%
X73655000Y-109050000D03*
D11*
X68575000Y-109050000D03*
D10*
X63495000Y-109050000D03*
D12*
X64765000Y-106510000D03*
X71115000Y-103970000D03*
%TD*%
D10*
%TO.C,MX8*%
X178430000Y-90000000D03*
D11*
X173350000Y-90000000D03*
D10*
X168270000Y-90000000D03*
D12*
X169540000Y-87460000D03*
X175890000Y-84920000D03*
%TD*%
D10*
%TO.C,MX51*%
X126042500Y-147150000D03*
D11*
X120962500Y-147150000D03*
D10*
X115882500Y-147150000D03*
D12*
X117152500Y-144610000D03*
X123502500Y-142070000D03*
%TD*%
D10*
%TO.C,MX38*%
X116517500Y-128100000D03*
D11*
X111437500Y-128100000D03*
D10*
X106357500Y-128100000D03*
D12*
X107627500Y-125560000D03*
X113977500Y-123020000D03*
%TD*%
D10*
%TO.C,MX70*%
X309398750Y-166200000D03*
D11*
X304318750Y-166200000D03*
D10*
X299238750Y-166200000D03*
D12*
X300508750Y-163660000D03*
X306858750Y-161120000D03*
%TD*%
D10*
%TO.C,MX57*%
X240342500Y-147150000D03*
D11*
X235262500Y-147150000D03*
D10*
X230182500Y-147150000D03*
D12*
X231452500Y-144610000D03*
X237802500Y-142070000D03*
%TD*%
D10*
%TO.C,MX33*%
X354642500Y-109050000D03*
D11*
X349562500Y-109050000D03*
D10*
X344482500Y-109050000D03*
D12*
X345752500Y-106510000D03*
X352102500Y-103970000D03*
%TD*%
M02*
