%TF.GenerationSoftware,KiCad,Pcbnew,7.0.10*%
%TF.CreationDate,2024-04-20T21:15:11+02:00*%
%TF.ProjectId,cycle-7,6379636c-652d-4372-9e6b-696361645f70,rev?*%
%TF.SameCoordinates,Original*%
%TF.FileFunction,Soldermask,Bot*%
%TF.FilePolarity,Negative*%
%FSLAX46Y46*%
G04 Gerber Fmt 4.6, Leading zero omitted, Abs format (unit mm)*
G04 Created by KiCad (PCBNEW 7.0.10) date 2024-04-20 21:15:11*
%MOMM*%
%LPD*%
G01*
G04 APERTURE LIST*
G04 Aperture macros list*
%AMRoundRect*
0 Rectangle with rounded corners*
0 $1 Rounding radius*
0 $2 $3 $4 $5 $6 $7 $8 $9 X,Y pos of 4 corners*
0 Add a 4 corners polygon primitive as box body*
4,1,4,$2,$3,$4,$5,$6,$7,$8,$9,$2,$3,0*
0 Add four circle primitives for the rounded corners*
1,1,$1+$1,$2,$3*
1,1,$1+$1,$4,$5*
1,1,$1+$1,$6,$7*
1,1,$1+$1,$8,$9*
0 Add four rect primitives between the rounded corners*
20,1,$1+$1,$2,$3,$4,$5,0*
20,1,$1+$1,$4,$5,$6,$7,0*
20,1,$1+$1,$6,$7,$8,$9,0*
20,1,$1+$1,$8,$9,$2,$3,0*%
G04 Aperture macros list end*
%ADD10C,1.750000*%
%ADD11C,3.987800*%
%ADD12C,3.300000*%
%ADD13RoundRect,0.250000X1.025000X1.000000X-1.025000X1.000000X-1.025000X-1.000000X1.025000X-1.000000X0*%
%ADD14C,4.000000*%
%ADD15RoundRect,0.225000X0.375000X-0.225000X0.375000X0.225000X-0.375000X0.225000X-0.375000X-0.225000X0*%
%ADD16RoundRect,0.225000X-0.250000X0.225000X-0.250000X-0.225000X0.250000X-0.225000X0.250000X0.225000X0*%
%ADD17R,1.000000X1.700000*%
%ADD18RoundRect,0.225000X-0.225000X-0.250000X0.225000X-0.250000X0.225000X0.250000X-0.225000X0.250000X0*%
%ADD19R,1.700000X1.700000*%
%ADD20O,1.700000X1.700000*%
%ADD21RoundRect,0.150000X-0.150000X0.475000X-0.150000X-0.475000X0.150000X-0.475000X0.150000X0.475000X0*%
%ADD22RoundRect,0.200000X0.275000X-0.200000X0.275000X0.200000X-0.275000X0.200000X-0.275000X-0.200000X0*%
%ADD23RoundRect,0.225000X0.225000X0.250000X-0.225000X0.250000X-0.225000X-0.250000X0.225000X-0.250000X0*%
%ADD24RoundRect,0.150000X-0.150000X0.512500X-0.150000X-0.512500X0.150000X-0.512500X0.150000X0.512500X0*%
%ADD25RoundRect,0.225000X0.335876X0.017678X0.017678X0.335876X-0.335876X-0.017678X-0.017678X-0.335876X0*%
%ADD26RoundRect,0.200000X-0.275000X0.200000X-0.275000X-0.200000X0.275000X-0.200000X0.275000X0.200000X0*%
%ADD27RoundRect,0.225000X0.250000X-0.225000X0.250000X0.225000X-0.250000X0.225000X-0.250000X-0.225000X0*%
%ADD28R,0.820000X1.700000*%
%ADD29RoundRect,0.150000X-0.150000X-0.475000X0.150000X-0.475000X0.150000X0.475000X-0.150000X0.475000X0*%
%ADD30RoundRect,0.225000X-0.225000X-0.625000X0.225000X-0.625000X0.225000X0.625000X-0.225000X0.625000X0*%
%ADD31R,1.200000X1.400000*%
%ADD32RoundRect,0.075000X-0.075000X0.700000X-0.075000X-0.700000X0.075000X-0.700000X0.075000X0.700000X0*%
%ADD33RoundRect,0.075000X-0.700000X0.075000X-0.700000X-0.075000X0.700000X-0.075000X0.700000X0.075000X0*%
G04 APERTURE END LIST*
D10*
%TO.C,MX15*%
X335592500Y-90000000D03*
D11*
X330512500Y-90000000D03*
D10*
X325432500Y-90000000D03*
D12*
X326702500Y-87460000D03*
D13*
X323152500Y-87460000D03*
X336602500Y-84920000D03*
D12*
X333052500Y-84920000D03*
%TD*%
D14*
%TO.C,S3*%
X278125000Y-140165000D03*
D11*
X278125000Y-155405000D03*
D14*
X301937500Y-140165000D03*
D11*
X301937500Y-155405000D03*
%TD*%
D14*
%TO.C,S4*%
X40000000Y-140165000D03*
D11*
X40000000Y-155405000D03*
D14*
X63812500Y-140165000D03*
D11*
X63812500Y-155405000D03*
%TD*%
D14*
%TO.C,S6*%
X163825000Y-173185000D03*
D11*
X163825000Y-157945000D03*
D14*
X140012500Y-173185000D03*
D11*
X140012500Y-157945000D03*
%TD*%
D14*
%TO.C,S5*%
X211450000Y-173185000D03*
D11*
X211450000Y-157945000D03*
D14*
X187637500Y-173185000D03*
D11*
X187637500Y-157945000D03*
%TD*%
D14*
%TO.C,S1*%
X285268750Y-83015000D03*
D11*
X285268750Y-98255000D03*
D14*
X309081250Y-83015000D03*
D11*
X309081250Y-98255000D03*
%TD*%
D14*
%TO.C,S2*%
X306700000Y-135085000D03*
D11*
X306700000Y-119845000D03*
D14*
X282887500Y-135085000D03*
D11*
X282887500Y-119845000D03*
%TD*%
D10*
%TO.C,MX22*%
X130805000Y-109050000D03*
D11*
X125725000Y-109050000D03*
D10*
X120645000Y-109050000D03*
D12*
X121915000Y-106510000D03*
D13*
X118365000Y-106510000D03*
X131815000Y-103970000D03*
D12*
X128265000Y-103970000D03*
%TD*%
D15*
%TO.C,D64*%
X116913750Y-168515000D03*
X116913750Y-165215000D03*
%TD*%
D10*
%TO.C,MX18*%
X49842500Y-109050000D03*
D11*
X44762500Y-109050000D03*
D10*
X39682500Y-109050000D03*
D12*
X40952500Y-106510000D03*
D13*
X37402500Y-106510000D03*
X50852500Y-103970000D03*
D12*
X47302500Y-103970000D03*
%TD*%
D15*
%TO.C,D17*%
X371707500Y-92315000D03*
X371707500Y-89015000D03*
%TD*%
D16*
%TO.C,C11*%
X337325000Y-133575000D03*
X337325000Y-135125000D03*
%TD*%
D15*
%TO.C,D70*%
X307413750Y-168515000D03*
X307413750Y-165215000D03*
%TD*%
D17*
%TO.C,SW1*%
X371975000Y-146725000D03*
X371975000Y-140425000D03*
X368175000Y-146725000D03*
X368175000Y-140425000D03*
%TD*%
D10*
%TO.C,MX3*%
X83180000Y-90000000D03*
D11*
X78100000Y-90000000D03*
D10*
X73020000Y-90000000D03*
D12*
X74290000Y-87460000D03*
D13*
X70740000Y-87460000D03*
X84190000Y-84920000D03*
D12*
X80640000Y-84920000D03*
%TD*%
D15*
%TO.C,D40*%
X152632500Y-130415000D03*
X152632500Y-127115000D03*
%TD*%
D18*
%TO.C,C10*%
X367900000Y-137775000D03*
X369450000Y-137775000D03*
%TD*%
D10*
%TO.C,MX44*%
X230817500Y-128100000D03*
D11*
X225737500Y-128100000D03*
D10*
X220657500Y-128100000D03*
D12*
X221927500Y-125560000D03*
D13*
X218377500Y-125560000D03*
X231827500Y-123020000D03*
D12*
X228277500Y-123020000D03*
%TD*%
D15*
%TO.C,D25*%
X185970000Y-111365000D03*
X185970000Y-108065000D03*
%TD*%
%TO.C,D59*%
X293126250Y-149465000D03*
X293126250Y-146165000D03*
%TD*%
%TO.C,D43*%
X209782500Y-130415000D03*
X209782500Y-127115000D03*
%TD*%
%TO.C,D31*%
X305032500Y-111365000D03*
X305032500Y-108065000D03*
%TD*%
D19*
%TO.C,J2*%
X316575000Y-138075000D03*
D20*
X316575000Y-140615000D03*
X316575000Y-143155000D03*
X316575000Y-145695000D03*
%TD*%
D15*
%TO.C,D34*%
X371707500Y-111365000D03*
X371707500Y-108065000D03*
%TD*%
D10*
%TO.C,MX67*%
X237961250Y-166200000D03*
D11*
X232881250Y-166200000D03*
D10*
X227801250Y-166200000D03*
D12*
X229071250Y-163660000D03*
D13*
X225521250Y-163660000D03*
X238971250Y-161120000D03*
D12*
X235421250Y-161120000D03*
%TD*%
D10*
%TO.C,MX41*%
X173667500Y-128100000D03*
D11*
X168587500Y-128100000D03*
D10*
X163507500Y-128100000D03*
D12*
X164777500Y-125560000D03*
D13*
X161227500Y-125560000D03*
X174677500Y-123020000D03*
D12*
X171127500Y-123020000D03*
%TD*%
D10*
%TO.C,MX45*%
X249867500Y-128100000D03*
D11*
X244787500Y-128100000D03*
D10*
X239707500Y-128100000D03*
D12*
X240977500Y-125560000D03*
D13*
X237427500Y-125560000D03*
X250877500Y-123020000D03*
D12*
X247327500Y-123020000D03*
%TD*%
D15*
%TO.C,D45*%
X247882500Y-130415000D03*
X247882500Y-127115000D03*
%TD*%
%TO.C,D71*%
X333607500Y-168515000D03*
X333607500Y-165215000D03*
%TD*%
D10*
%TO.C,MX27*%
X226055000Y-109050000D03*
D11*
X220975000Y-109050000D03*
D10*
X215895000Y-109050000D03*
D12*
X217165000Y-106510000D03*
D13*
X213615000Y-106510000D03*
X227065000Y-103970000D03*
D12*
X223515000Y-103970000D03*
%TD*%
D21*
%TO.C,U3*%
X232525000Y-152500000D03*
X233475000Y-152500000D03*
X234425000Y-152500000D03*
X234425000Y-154850000D03*
X233475000Y-154850000D03*
X232525000Y-154850000D03*
%TD*%
D10*
%TO.C,MX31*%
X307017500Y-109050000D03*
D11*
X301937500Y-109050000D03*
D10*
X296857500Y-109050000D03*
D12*
X298127500Y-106510000D03*
D13*
X294577500Y-106510000D03*
X308027500Y-103970000D03*
D12*
X304477500Y-103970000D03*
%TD*%
D10*
%TO.C,MX53*%
X164142500Y-147150000D03*
D11*
X159062500Y-147150000D03*
D10*
X153982500Y-147150000D03*
D12*
X155252500Y-144610000D03*
D13*
X151702500Y-144610000D03*
X165152500Y-142070000D03*
D12*
X161602500Y-142070000D03*
%TD*%
D22*
%TO.C,R1*%
X327900000Y-142200000D03*
X327900000Y-140550000D03*
%TD*%
D23*
%TO.C,C9*%
X363750000Y-144875000D03*
X362200000Y-144875000D03*
%TD*%
D15*
%TO.C,D72*%
X352657500Y-168515000D03*
X352657500Y-165215000D03*
%TD*%
D10*
%TO.C,MX17*%
X373692500Y-90000000D03*
D11*
X368612500Y-90000000D03*
D10*
X363532500Y-90000000D03*
D12*
X364802500Y-87460000D03*
D13*
X361252500Y-87460000D03*
X374702500Y-84920000D03*
D12*
X371152500Y-84920000D03*
%TD*%
D15*
%TO.C,D66*%
X202638750Y-168515000D03*
X202638750Y-165215000D03*
%TD*%
D10*
%TO.C,MX60*%
X354642500Y-147150000D03*
D11*
X349562500Y-147150000D03*
D10*
X344482500Y-147150000D03*
D12*
X345752500Y-144610000D03*
D13*
X342202500Y-144610000D03*
X355652500Y-142070000D03*
D12*
X352102500Y-142070000D03*
%TD*%
D24*
%TO.C,U1*%
X361575000Y-147337500D03*
X363475000Y-147337500D03*
X362525000Y-149612500D03*
%TD*%
D10*
%TO.C,MX68*%
X261773750Y-166200000D03*
D11*
X256693750Y-166200000D03*
D10*
X251613750Y-166200000D03*
D12*
X252883750Y-163660000D03*
D13*
X249333750Y-163660000D03*
X262783750Y-161120000D03*
D12*
X259233750Y-161120000D03*
%TD*%
D23*
%TO.C,C7*%
X323800000Y-137825000D03*
X322250000Y-137825000D03*
%TD*%
D10*
%TO.C,MX58*%
X259392500Y-147150000D03*
D11*
X254312500Y-147150000D03*
D10*
X249232500Y-147150000D03*
D12*
X250502500Y-144610000D03*
D13*
X246952500Y-144610000D03*
X260402500Y-142070000D03*
D12*
X256852500Y-142070000D03*
%TD*%
D15*
%TO.C,D29*%
X262170000Y-111365000D03*
X262170000Y-108065000D03*
%TD*%
%TO.C,D69*%
X283601250Y-168515000D03*
X283601250Y-165215000D03*
%TD*%
%TO.C,D2*%
X62145000Y-92315000D03*
X62145000Y-89015000D03*
%TD*%
%TO.C,D33*%
X352657500Y-111365000D03*
X352657500Y-108065000D03*
%TD*%
D18*
%TO.C,C13*%
X325525000Y-115675000D03*
X327075000Y-115675000D03*
%TD*%
D25*
%TO.C,C2*%
X322500000Y-124825000D03*
X321403984Y-123728984D03*
%TD*%
D15*
%TO.C,D68*%
X259788750Y-168515000D03*
X259788750Y-165215000D03*
%TD*%
%TO.C,D63*%
X93101250Y-168515000D03*
X93101250Y-165215000D03*
%TD*%
%TO.C,D27*%
X224070000Y-111365000D03*
X224070000Y-108065000D03*
%TD*%
D10*
%TO.C,MX59*%
X295111250Y-147150000D03*
D11*
X290031250Y-147150000D03*
D10*
X284951250Y-147150000D03*
D12*
X286221250Y-144610000D03*
D13*
X282671250Y-144610000D03*
X296121250Y-142070000D03*
D12*
X292571250Y-142070000D03*
%TD*%
D15*
%TO.C,D21*%
X109770000Y-111365000D03*
X109770000Y-108065000D03*
%TD*%
%TO.C,D44*%
X228832500Y-130415000D03*
X228832500Y-127115000D03*
%TD*%
D23*
%TO.C,C4*%
X331700000Y-123325000D03*
X330150000Y-123325000D03*
%TD*%
D15*
%TO.C,D16*%
X352657500Y-92315000D03*
X352657500Y-89015000D03*
%TD*%
D10*
%TO.C,MX13*%
X273680000Y-90000000D03*
D11*
X268600000Y-90000000D03*
D10*
X263520000Y-90000000D03*
D12*
X264790000Y-87460000D03*
D13*
X261240000Y-87460000D03*
X274690000Y-84920000D03*
D12*
X271140000Y-84920000D03*
%TD*%
D16*
%TO.C,C12*%
X323200000Y-118400000D03*
X323200000Y-119950000D03*
%TD*%
D15*
%TO.C,D9*%
X195495000Y-92315000D03*
X195495000Y-89015000D03*
%TD*%
%TO.C,D1*%
X43095000Y-92315000D03*
X43095000Y-89015000D03*
%TD*%
%TO.C,D47*%
X297888750Y-130415000D03*
X297888750Y-127115000D03*
%TD*%
D10*
%TO.C,MX21*%
X111755000Y-109050000D03*
D11*
X106675000Y-109050000D03*
D10*
X101595000Y-109050000D03*
D12*
X102865000Y-106510000D03*
D13*
X99315000Y-106510000D03*
X112765000Y-103970000D03*
D12*
X109215000Y-103970000D03*
%TD*%
D15*
%TO.C,D10*%
X214545000Y-92315000D03*
X214545000Y-89015000D03*
%TD*%
D25*
%TO.C,C3*%
X320802945Y-126522057D03*
X319706929Y-125426041D03*
%TD*%
D15*
%TO.C,D19*%
X71670000Y-111365000D03*
X71670000Y-108065000D03*
%TD*%
D10*
%TO.C,MX6*%
X140330000Y-90000000D03*
D11*
X135250000Y-90000000D03*
D10*
X130170000Y-90000000D03*
D12*
X131440000Y-87460000D03*
D13*
X127890000Y-87460000D03*
X141340000Y-84920000D03*
D12*
X137790000Y-84920000D03*
%TD*%
D15*
%TO.C,D61*%
X45476250Y-168515000D03*
X45476250Y-165215000D03*
%TD*%
%TO.C,D24*%
X166920000Y-111365000D03*
X166920000Y-108065000D03*
%TD*%
%TO.C,D48*%
X55001250Y-149465000D03*
X55001250Y-146165000D03*
%TD*%
%TO.C,D3*%
X81195000Y-92315000D03*
X81195000Y-89015000D03*
%TD*%
D10*
%TO.C,MX34*%
X373692500Y-109050000D03*
D11*
X368612500Y-109050000D03*
D10*
X363532500Y-109050000D03*
D12*
X364802500Y-106510000D03*
D13*
X361252500Y-106510000D03*
X374702500Y-103970000D03*
D12*
X371152500Y-103970000D03*
%TD*%
D26*
%TO.C,R3*%
X329400000Y-118350000D03*
X329400000Y-120000000D03*
%TD*%
D10*
%TO.C,MX65*%
X156998750Y-166200000D03*
D11*
X151918750Y-166200000D03*
D10*
X146838750Y-166200000D03*
D12*
X148108750Y-163660000D03*
D13*
X144558750Y-163660000D03*
X158008750Y-161120000D03*
D12*
X154458750Y-161120000D03*
%TD*%
D15*
%TO.C,D14*%
X300270000Y-92315000D03*
X300270000Y-89015000D03*
%TD*%
%TO.C,D37*%
X95482500Y-130415000D03*
X95482500Y-127115000D03*
%TD*%
D10*
%TO.C,MX26*%
X207005000Y-109050000D03*
D11*
X201925000Y-109050000D03*
D10*
X196845000Y-109050000D03*
D12*
X198115000Y-106510000D03*
D13*
X194565000Y-106510000D03*
X208015000Y-103970000D03*
D12*
X204465000Y-103970000D03*
%TD*%
D10*
%TO.C,MX50*%
X106992500Y-147150000D03*
D11*
X101912500Y-147150000D03*
D10*
X96832500Y-147150000D03*
D12*
X98102500Y-144610000D03*
D13*
X94552500Y-144610000D03*
X108002500Y-142070000D03*
D12*
X104452500Y-142070000D03*
%TD*%
D10*
%TO.C,MX64*%
X118898750Y-166200000D03*
D11*
X113818750Y-166200000D03*
D10*
X108738750Y-166200000D03*
D12*
X110008750Y-163660000D03*
D13*
X106458750Y-163660000D03*
X119908750Y-161120000D03*
D12*
X116358750Y-161120000D03*
%TD*%
D15*
%TO.C,D39*%
X133582500Y-130415000D03*
X133582500Y-127115000D03*
%TD*%
%TO.C,D12*%
X252645000Y-92315000D03*
X252645000Y-89015000D03*
%TD*%
D10*
%TO.C,MX61*%
X47461250Y-166200000D03*
D11*
X42381250Y-166200000D03*
D10*
X37301250Y-166200000D03*
D12*
X38571250Y-163660000D03*
D13*
X35021250Y-163660000D03*
X48471250Y-161120000D03*
D12*
X44921250Y-161120000D03*
%TD*%
D10*
%TO.C,MX1*%
X45080000Y-90000000D03*
D11*
X40000000Y-90000000D03*
D10*
X34920000Y-90000000D03*
D12*
X36190000Y-87460000D03*
D13*
X32640000Y-87460000D03*
X46090000Y-84920000D03*
D12*
X42540000Y-84920000D03*
%TD*%
D15*
%TO.C,D30*%
X281220000Y-111365000D03*
X281220000Y-108065000D03*
%TD*%
D10*
%TO.C,MX48*%
X56986250Y-147150000D03*
D11*
X51906250Y-147150000D03*
D10*
X46826250Y-147150000D03*
D12*
X48096250Y-144610000D03*
D13*
X44546250Y-144610000D03*
X57996250Y-142070000D03*
D12*
X54446250Y-142070000D03*
%TD*%
D27*
%TO.C,C5*%
X337875000Y-129150000D03*
X337875000Y-127600000D03*
%TD*%
D10*
%TO.C,MX36*%
X78417500Y-128100000D03*
D11*
X73337500Y-128100000D03*
D10*
X68257500Y-128100000D03*
D12*
X69527500Y-125560000D03*
D13*
X65977500Y-125560000D03*
X79427500Y-123020000D03*
D12*
X75877500Y-123020000D03*
%TD*%
D15*
%TO.C,D53*%
X162157500Y-149465000D03*
X162157500Y-146165000D03*
%TD*%
D10*
%TO.C,MX35*%
X52223750Y-128100000D03*
D11*
X47143750Y-128100000D03*
D10*
X42063750Y-128100000D03*
D12*
X43333750Y-125560000D03*
D13*
X39783750Y-125560000D03*
X53233750Y-123020000D03*
D12*
X49683750Y-123020000D03*
%TD*%
D10*
%TO.C,MX10*%
X216530000Y-90000000D03*
D11*
X211450000Y-90000000D03*
D10*
X206370000Y-90000000D03*
D12*
X207640000Y-87460000D03*
D13*
X204090000Y-87460000D03*
X217540000Y-84920000D03*
D12*
X213990000Y-84920000D03*
%TD*%
D15*
%TO.C,D4*%
X100245000Y-92315000D03*
X100245000Y-89015000D03*
%TD*%
D28*
%TO.C,D74*%
X376400000Y-127150000D03*
X374900000Y-127150000D03*
X374900000Y-121850000D03*
X376400000Y-121850000D03*
%TD*%
D10*
%TO.C,MX4*%
X102230000Y-90000000D03*
D11*
X97150000Y-90000000D03*
D10*
X92070000Y-90000000D03*
D12*
X93340000Y-87460000D03*
D13*
X89790000Y-87460000D03*
X103240000Y-84920000D03*
D12*
X99690000Y-84920000D03*
%TD*%
D15*
%TO.C,D11*%
X233595000Y-92315000D03*
X233595000Y-89015000D03*
%TD*%
D10*
%TO.C,MX69*%
X285586250Y-166200000D03*
D11*
X280506250Y-166200000D03*
D10*
X275426250Y-166200000D03*
D12*
X276696250Y-163660000D03*
D13*
X273146250Y-163660000D03*
X286596250Y-161120000D03*
D12*
X283046250Y-161120000D03*
%TD*%
D10*
%TO.C,MX24*%
X168905000Y-109050000D03*
D11*
X163825000Y-109050000D03*
D10*
X158745000Y-109050000D03*
D12*
X160015000Y-106510000D03*
D13*
X156465000Y-106510000D03*
X169915000Y-103970000D03*
D12*
X166365000Y-103970000D03*
%TD*%
D15*
%TO.C,D58*%
X257407500Y-149465000D03*
X257407500Y-146165000D03*
%TD*%
D10*
%TO.C,MX16*%
X354642500Y-90000000D03*
D11*
X349562500Y-90000000D03*
D10*
X344482500Y-90000000D03*
D12*
X345752500Y-87460000D03*
D13*
X342202500Y-87460000D03*
X355652500Y-84920000D03*
D12*
X352102500Y-84920000D03*
%TD*%
D10*
%TO.C,MX37*%
X97467500Y-128100000D03*
D11*
X92387500Y-128100000D03*
D10*
X87307500Y-128100000D03*
D12*
X88577500Y-125560000D03*
D13*
X85027500Y-125560000D03*
X98477500Y-123020000D03*
D12*
X94927500Y-123020000D03*
%TD*%
D10*
%TO.C,MX66*%
X204623750Y-166200000D03*
D11*
X199543750Y-166200000D03*
D10*
X194463750Y-166200000D03*
D12*
X195733750Y-163660000D03*
D13*
X192183750Y-163660000D03*
X205633750Y-161120000D03*
D12*
X202083750Y-161120000D03*
%TD*%
D15*
%TO.C,D73*%
X371707500Y-168515000D03*
X371707500Y-165215000D03*
%TD*%
D10*
%TO.C,MX43*%
X211767500Y-128100000D03*
D11*
X206687500Y-128100000D03*
D10*
X201607500Y-128100000D03*
D12*
X202877500Y-125560000D03*
D13*
X199327500Y-125560000D03*
X212777500Y-123020000D03*
D12*
X209227500Y-123020000D03*
%TD*%
D15*
%TO.C,D62*%
X69288750Y-168515000D03*
X69288750Y-165215000D03*
%TD*%
D10*
%TO.C,MX12*%
X254630000Y-90000000D03*
D11*
X249550000Y-90000000D03*
D10*
X244470000Y-90000000D03*
D12*
X245740000Y-87460000D03*
D13*
X242190000Y-87460000D03*
X255640000Y-84920000D03*
D12*
X252090000Y-84920000D03*
%TD*%
D10*
%TO.C,MX9*%
X197480000Y-90000000D03*
D11*
X192400000Y-90000000D03*
D10*
X187320000Y-90000000D03*
D12*
X188590000Y-87460000D03*
D13*
X185040000Y-87460000D03*
X198490000Y-84920000D03*
D12*
X194940000Y-84920000D03*
%TD*%
D10*
%TO.C,MX46*%
X268917500Y-128100000D03*
D11*
X263837500Y-128100000D03*
D10*
X258757500Y-128100000D03*
D12*
X260027500Y-125560000D03*
D13*
X256477500Y-125560000D03*
X269927500Y-123020000D03*
D12*
X266377500Y-123020000D03*
%TD*%
D10*
%TO.C,MX71*%
X335592500Y-166200000D03*
D11*
X330512500Y-166200000D03*
D10*
X325432500Y-166200000D03*
D12*
X326702500Y-163660000D03*
D13*
X323152500Y-163660000D03*
X336602500Y-161120000D03*
D12*
X333052500Y-161120000D03*
%TD*%
D15*
%TO.C,D15*%
X333607500Y-92315000D03*
X333607500Y-89015000D03*
%TD*%
%TO.C,D52*%
X143107500Y-149465000D03*
X143107500Y-146165000D03*
%TD*%
D10*
%TO.C,MX63*%
X95086250Y-166200000D03*
D11*
X90006250Y-166200000D03*
D10*
X84926250Y-166200000D03*
D12*
X86196250Y-163660000D03*
D13*
X82646250Y-163660000D03*
X96096250Y-161120000D03*
D12*
X92546250Y-161120000D03*
%TD*%
D15*
%TO.C,D42*%
X190732500Y-130415000D03*
X190732500Y-127115000D03*
%TD*%
D10*
%TO.C,MX30*%
X283205000Y-109050000D03*
D11*
X278125000Y-109050000D03*
D10*
X273045000Y-109050000D03*
D12*
X274315000Y-106510000D03*
D13*
X270765000Y-106510000D03*
X284215000Y-103970000D03*
D12*
X280665000Y-103970000D03*
%TD*%
D10*
%TO.C,MX14*%
X302255000Y-90000000D03*
D11*
X297175000Y-90000000D03*
D10*
X292095000Y-90000000D03*
D12*
X293365000Y-87460000D03*
D13*
X289815000Y-87460000D03*
X303265000Y-84920000D03*
D12*
X299715000Y-84920000D03*
%TD*%
D15*
%TO.C,D56*%
X219307500Y-149465000D03*
X219307500Y-146165000D03*
%TD*%
D29*
%TO.C,J1*%
X174280000Y-163560000D03*
X175280000Y-163560000D03*
X176280000Y-163560000D03*
X177280000Y-163560000D03*
X178280000Y-163560000D03*
X179280000Y-163560000D03*
D30*
X172830000Y-160435000D03*
X180730000Y-160435000D03*
%TD*%
D15*
%TO.C,D18*%
X47857500Y-111365000D03*
X47857500Y-108065000D03*
%TD*%
D10*
%TO.C,MX55*%
X202242500Y-147150000D03*
D11*
X197162500Y-147150000D03*
D10*
X192082500Y-147150000D03*
D12*
X193352500Y-144610000D03*
D13*
X189802500Y-144610000D03*
X203252500Y-142070000D03*
D12*
X199702500Y-142070000D03*
%TD*%
D15*
%TO.C,D49*%
X85957500Y-149465000D03*
X85957500Y-146165000D03*
%TD*%
%TO.C,D32*%
X333607500Y-111365000D03*
X333607500Y-108065000D03*
%TD*%
D10*
%TO.C,MX23*%
X149855000Y-109050000D03*
D11*
X144775000Y-109050000D03*
D10*
X139695000Y-109050000D03*
D12*
X140965000Y-106510000D03*
D13*
X137415000Y-106510000D03*
X150865000Y-103970000D03*
D12*
X147315000Y-103970000D03*
%TD*%
D15*
%TO.C,D51*%
X124057500Y-149465000D03*
X124057500Y-146165000D03*
%TD*%
D10*
%TO.C,MX2*%
X64130000Y-90000000D03*
D11*
X59050000Y-90000000D03*
D10*
X53970000Y-90000000D03*
D12*
X55240000Y-87460000D03*
D13*
X51690000Y-87460000D03*
X65140000Y-84920000D03*
D12*
X61590000Y-84920000D03*
%TD*%
D15*
%TO.C,D38*%
X114532500Y-130415000D03*
X114532500Y-127115000D03*
%TD*%
%TO.C,D67*%
X235976250Y-168515000D03*
X235976250Y-165215000D03*
%TD*%
D10*
%TO.C,MX20*%
X92705000Y-109050000D03*
D11*
X87625000Y-109050000D03*
D10*
X82545000Y-109050000D03*
D12*
X83815000Y-106510000D03*
D13*
X80265000Y-106510000D03*
X93715000Y-103970000D03*
D12*
X90165000Y-103970000D03*
%TD*%
D15*
%TO.C,D22*%
X128820000Y-111365000D03*
X128820000Y-108065000D03*
%TD*%
D10*
%TO.C,MX40*%
X154617500Y-128100000D03*
D11*
X149537500Y-128100000D03*
D10*
X144457500Y-128100000D03*
D12*
X145727500Y-125560000D03*
D13*
X142177500Y-125560000D03*
X155627500Y-123020000D03*
D12*
X152077500Y-123020000D03*
%TD*%
D10*
%TO.C,MX7*%
X159380000Y-90000000D03*
D11*
X154300000Y-90000000D03*
D10*
X149220000Y-90000000D03*
D12*
X150490000Y-87460000D03*
D13*
X146940000Y-87460000D03*
X160390000Y-84920000D03*
D12*
X156840000Y-84920000D03*
%TD*%
D15*
%TO.C,D36*%
X76432500Y-130415000D03*
X76432500Y-127115000D03*
%TD*%
D10*
%TO.C,MX52*%
X145092500Y-147150000D03*
D11*
X140012500Y-147150000D03*
D10*
X134932500Y-147150000D03*
D12*
X136202500Y-144610000D03*
D13*
X132652500Y-144610000D03*
X146102500Y-142070000D03*
D12*
X142552500Y-142070000D03*
%TD*%
D10*
%TO.C,MX5*%
X121280000Y-90000000D03*
D11*
X116200000Y-90000000D03*
D10*
X111120000Y-90000000D03*
D12*
X112390000Y-87460000D03*
D13*
X108840000Y-87460000D03*
X122290000Y-84920000D03*
D12*
X118740000Y-84920000D03*
%TD*%
D15*
%TO.C,D7*%
X157395000Y-92315000D03*
X157395000Y-89015000D03*
%TD*%
D31*
%TO.C,Y1*%
X327150000Y-118075000D03*
X327150000Y-120275000D03*
X325450000Y-120275000D03*
X325450000Y-118075000D03*
%TD*%
D10*
%TO.C,MX11*%
X235580000Y-90000000D03*
D11*
X230500000Y-90000000D03*
D10*
X225420000Y-90000000D03*
D12*
X226690000Y-87460000D03*
D13*
X223140000Y-87460000D03*
X236590000Y-84920000D03*
D12*
X233040000Y-84920000D03*
%TD*%
D32*
%TO.C,U2*%
X325057588Y-125913858D03*
X325557588Y-125913858D03*
X326057588Y-125913858D03*
X326557588Y-125913858D03*
X327057588Y-125913858D03*
X327557588Y-125913858D03*
X328057588Y-125913858D03*
X328557588Y-125913858D03*
X329057588Y-125913858D03*
X329557588Y-125913858D03*
X330057588Y-125913858D03*
X330557588Y-125913858D03*
X331057588Y-125913858D03*
X331557588Y-125913858D03*
X332057588Y-125913858D03*
X332557588Y-125913858D03*
D33*
X334482588Y-127838858D03*
X334482588Y-128338858D03*
X334482588Y-128838858D03*
X334482588Y-129338858D03*
X334482588Y-129838858D03*
X334482588Y-130338858D03*
X334482588Y-130838858D03*
X334482588Y-131338858D03*
X334482588Y-131838858D03*
X334482588Y-132338858D03*
X334482588Y-132838858D03*
X334482588Y-133338858D03*
X334482588Y-133838858D03*
X334482588Y-134338858D03*
X334482588Y-134838858D03*
X334482588Y-135338858D03*
D32*
X332557588Y-137263858D03*
X332057588Y-137263858D03*
X331557588Y-137263858D03*
X331057588Y-137263858D03*
X330557588Y-137263858D03*
X330057588Y-137263858D03*
X329557588Y-137263858D03*
X329057588Y-137263858D03*
X328557588Y-137263858D03*
X328057588Y-137263858D03*
X327557588Y-137263858D03*
X327057588Y-137263858D03*
X326557588Y-137263858D03*
X326057588Y-137263858D03*
X325557588Y-137263858D03*
X325057588Y-137263858D03*
D33*
X323132588Y-135338858D03*
X323132588Y-134838858D03*
X323132588Y-134338858D03*
X323132588Y-133838858D03*
X323132588Y-133338858D03*
X323132588Y-132838858D03*
X323132588Y-132338858D03*
X323132588Y-131838858D03*
X323132588Y-131338858D03*
X323132588Y-130838858D03*
X323132588Y-130338858D03*
X323132588Y-129838858D03*
X323132588Y-129338858D03*
X323132588Y-128838858D03*
X323132588Y-128338858D03*
X323132588Y-127838858D03*
%TD*%
D23*
%TO.C,C1*%
X363750000Y-142825000D03*
X362200000Y-142825000D03*
%TD*%
D10*
%TO.C,MX72*%
X354642500Y-166200000D03*
D11*
X349562500Y-166200000D03*
D10*
X344482500Y-166200000D03*
D12*
X345752500Y-163660000D03*
D13*
X342202500Y-163660000D03*
X355652500Y-161120000D03*
D12*
X352102500Y-161120000D03*
%TD*%
D10*
%TO.C,MX25*%
X187955000Y-109050000D03*
D11*
X182875000Y-109050000D03*
D10*
X177795000Y-109050000D03*
D12*
X179065000Y-106510000D03*
D13*
X175515000Y-106510000D03*
X188965000Y-103970000D03*
D12*
X185415000Y-103970000D03*
%TD*%
D10*
%TO.C,MX32*%
X335592500Y-109050000D03*
D11*
X330512500Y-109050000D03*
D10*
X325432500Y-109050000D03*
D12*
X326702500Y-106510000D03*
D13*
X323152500Y-106510000D03*
X336602500Y-103970000D03*
D12*
X333052500Y-103970000D03*
%TD*%
D15*
%TO.C,D50*%
X105007500Y-149465000D03*
X105007500Y-146165000D03*
%TD*%
D10*
%TO.C,MX42*%
X192717500Y-128100000D03*
D11*
X187637500Y-128100000D03*
D10*
X182557500Y-128100000D03*
D12*
X183827500Y-125560000D03*
D13*
X180277500Y-125560000D03*
X193727500Y-123020000D03*
D12*
X190177500Y-123020000D03*
%TD*%
D15*
%TO.C,D35*%
X50238750Y-130415000D03*
X50238750Y-127115000D03*
%TD*%
D10*
%TO.C,MX39*%
X135567500Y-128100000D03*
D11*
X130487500Y-128100000D03*
D10*
X125407500Y-128100000D03*
D12*
X126677500Y-125560000D03*
D13*
X123127500Y-125560000D03*
X136577500Y-123020000D03*
D12*
X133027500Y-123020000D03*
%TD*%
D22*
%TO.C,R2*%
X325700000Y-142200000D03*
X325700000Y-140550000D03*
%TD*%
D10*
%TO.C,MX73*%
X373692500Y-166200000D03*
D11*
X368612500Y-166200000D03*
D10*
X363532500Y-166200000D03*
D12*
X364802500Y-163660000D03*
D13*
X361252500Y-163660000D03*
X374702500Y-161120000D03*
D12*
X371152500Y-161120000D03*
%TD*%
D10*
%TO.C,MX47*%
X299873750Y-128100000D03*
D11*
X294793750Y-128100000D03*
D10*
X289713750Y-128100000D03*
D12*
X290983750Y-125560000D03*
D13*
X287433750Y-125560000D03*
X300883750Y-123020000D03*
D12*
X297333750Y-123020000D03*
%TD*%
D10*
%TO.C,MX49*%
X87942500Y-147150000D03*
D11*
X82862500Y-147150000D03*
D10*
X77782500Y-147150000D03*
D12*
X79052500Y-144610000D03*
D13*
X75502500Y-144610000D03*
X88952500Y-142070000D03*
D12*
X85402500Y-142070000D03*
%TD*%
D15*
%TO.C,D28*%
X243120000Y-111365000D03*
X243120000Y-108065000D03*
%TD*%
%TO.C,D8*%
X176445000Y-92315000D03*
X176445000Y-89015000D03*
%TD*%
D10*
%TO.C,MX28*%
X245105000Y-109050000D03*
D11*
X240025000Y-109050000D03*
D10*
X234945000Y-109050000D03*
D12*
X236215000Y-106510000D03*
D13*
X232665000Y-106510000D03*
X246115000Y-103970000D03*
D12*
X242565000Y-103970000D03*
%TD*%
D15*
%TO.C,D6*%
X138345000Y-92315000D03*
X138345000Y-89015000D03*
%TD*%
D19*
%TO.C,J3*%
X309975000Y-143175000D03*
D20*
X309975000Y-145715000D03*
%TD*%
D15*
%TO.C,D57*%
X238357500Y-149465000D03*
X238357500Y-146165000D03*
%TD*%
%TO.C,D26*%
X205020000Y-111365000D03*
X205020000Y-108065000D03*
%TD*%
%TO.C,D65*%
X155013750Y-168515000D03*
X155013750Y-165215000D03*
%TD*%
%TO.C,D46*%
X266932500Y-130415000D03*
X266932500Y-127115000D03*
%TD*%
D10*
%TO.C,MX54*%
X183192500Y-147150000D03*
D11*
X178112500Y-147150000D03*
D10*
X173032500Y-147150000D03*
D12*
X174302500Y-144610000D03*
D13*
X170752500Y-144610000D03*
X184202500Y-142070000D03*
D12*
X180652500Y-142070000D03*
%TD*%
D15*
%TO.C,D23*%
X147870000Y-111365000D03*
X147870000Y-108065000D03*
%TD*%
%TO.C,D13*%
X271695000Y-92315000D03*
X271695000Y-89015000D03*
%TD*%
D10*
%TO.C,MX62*%
X71273750Y-166200000D03*
D11*
X66193750Y-166200000D03*
D10*
X61113750Y-166200000D03*
D12*
X62383750Y-163660000D03*
D13*
X58833750Y-163660000D03*
X72283750Y-161120000D03*
D12*
X68733750Y-161120000D03*
%TD*%
D10*
%TO.C,MX56*%
X221292500Y-147150000D03*
D11*
X216212500Y-147150000D03*
D10*
X211132500Y-147150000D03*
D12*
X212402500Y-144610000D03*
D13*
X208852500Y-144610000D03*
X222302500Y-142070000D03*
D12*
X218752500Y-142070000D03*
%TD*%
D10*
%TO.C,MX29*%
X264155000Y-109050000D03*
D11*
X259075000Y-109050000D03*
D10*
X253995000Y-109050000D03*
D12*
X255265000Y-106510000D03*
D13*
X251715000Y-106510000D03*
X265165000Y-103970000D03*
D12*
X261615000Y-103970000D03*
%TD*%
D10*
%TO.C,MX19*%
X73655000Y-109050000D03*
D11*
X68575000Y-109050000D03*
D10*
X63495000Y-109050000D03*
D12*
X64765000Y-106510000D03*
D13*
X61215000Y-106510000D03*
X74665000Y-103970000D03*
D12*
X71115000Y-103970000D03*
%TD*%
D15*
%TO.C,D55*%
X200257500Y-149465000D03*
X200257500Y-146165000D03*
%TD*%
D10*
%TO.C,MX8*%
X178430000Y-90000000D03*
D11*
X173350000Y-90000000D03*
D10*
X168270000Y-90000000D03*
D12*
X169540000Y-87460000D03*
D13*
X165990000Y-87460000D03*
X179440000Y-84920000D03*
D12*
X175890000Y-84920000D03*
%TD*%
D15*
%TO.C,D5*%
X119295000Y-92315000D03*
X119295000Y-89015000D03*
%TD*%
D10*
%TO.C,MX51*%
X126042500Y-147150000D03*
D11*
X120962500Y-147150000D03*
D10*
X115882500Y-147150000D03*
D12*
X117152500Y-144610000D03*
D13*
X113602500Y-144610000D03*
X127052500Y-142070000D03*
D12*
X123502500Y-142070000D03*
%TD*%
D10*
%TO.C,MX38*%
X116517500Y-128100000D03*
D11*
X111437500Y-128100000D03*
D10*
X106357500Y-128100000D03*
D12*
X107627500Y-125560000D03*
D13*
X104077500Y-125560000D03*
X117527500Y-123020000D03*
D12*
X113977500Y-123020000D03*
%TD*%
D15*
%TO.C,D54*%
X181207500Y-149465000D03*
X181207500Y-146165000D03*
%TD*%
%TO.C,D60*%
X352657500Y-149465000D03*
X352657500Y-146165000D03*
%TD*%
D16*
%TO.C,C6*%
X335900000Y-137500000D03*
X335900000Y-139050000D03*
%TD*%
D10*
%TO.C,MX70*%
X309398750Y-166200000D03*
D11*
X304318750Y-166200000D03*
D10*
X299238750Y-166200000D03*
D12*
X300508750Y-163660000D03*
D13*
X296958750Y-163660000D03*
X310408750Y-161120000D03*
D12*
X306858750Y-161120000D03*
%TD*%
D15*
%TO.C,D41*%
X171682500Y-130415000D03*
X171682500Y-127115000D03*
%TD*%
D10*
%TO.C,MX57*%
X240342500Y-147150000D03*
D11*
X235262500Y-147150000D03*
D10*
X230182500Y-147150000D03*
D12*
X231452500Y-144610000D03*
D13*
X227902500Y-144610000D03*
X241352500Y-142070000D03*
D12*
X237802500Y-142070000D03*
%TD*%
D10*
%TO.C,MX33*%
X354642500Y-109050000D03*
D11*
X349562500Y-109050000D03*
D10*
X344482500Y-109050000D03*
D12*
X345752500Y-106510000D03*
D13*
X342202500Y-106510000D03*
X355652500Y-103970000D03*
D12*
X352102500Y-103970000D03*
%TD*%
D15*
%TO.C,D20*%
X90720000Y-111365000D03*
X90720000Y-108065000D03*
%TD*%
D18*
%TO.C,C8*%
X362200000Y-151775000D03*
X363750000Y-151775000D03*
%TD*%
M02*
