%TF.GenerationSoftware,KiCad,Pcbnew,7.0.10*%
%TF.CreationDate,2024-04-20T21:15:11+02:00*%
%TF.ProjectId,cycle-7,6379636c-652d-4372-9e6b-696361645f70,rev?*%
%TF.SameCoordinates,Original*%
%TF.FileFunction,Legend,Bot*%
%TF.FilePolarity,Positive*%
%FSLAX46Y46*%
G04 Gerber Fmt 4.6, Leading zero omitted, Abs format (unit mm)*
G04 Created by KiCad (PCBNEW 7.0.10) date 2024-04-20 21:15:11*
%MOMM*%
%LPD*%
G01*
G04 APERTURE LIST*
%ADD10C,0.150000*%
%ADD11C,0.100000*%
%ADD12C,0.120000*%
G04 APERTURE END LIST*
D10*
X336254580Y-133707142D02*
X336302200Y-133659523D01*
X336302200Y-133659523D02*
X336349819Y-133516666D01*
X336349819Y-133516666D02*
X336349819Y-133421428D01*
X336349819Y-133421428D02*
X336302200Y-133278571D01*
X336302200Y-133278571D02*
X336206961Y-133183333D01*
X336206961Y-133183333D02*
X336111723Y-133135714D01*
X336111723Y-133135714D02*
X335921247Y-133088095D01*
X335921247Y-133088095D02*
X335778390Y-133088095D01*
X335778390Y-133088095D02*
X335587914Y-133135714D01*
X335587914Y-133135714D02*
X335492676Y-133183333D01*
X335492676Y-133183333D02*
X335397438Y-133278571D01*
X335397438Y-133278571D02*
X335349819Y-133421428D01*
X335349819Y-133421428D02*
X335349819Y-133516666D01*
X335349819Y-133516666D02*
X335397438Y-133659523D01*
X335397438Y-133659523D02*
X335445057Y-133707142D01*
X336349819Y-134659523D02*
X336349819Y-134088095D01*
X336349819Y-134373809D02*
X335349819Y-134373809D01*
X335349819Y-134373809D02*
X335492676Y-134278571D01*
X335492676Y-134278571D02*
X335587914Y-134183333D01*
X335587914Y-134183333D02*
X335635533Y-134088095D01*
X336349819Y-135611904D02*
X336349819Y-135040476D01*
X336349819Y-135326190D02*
X335349819Y-135326190D01*
X335349819Y-135326190D02*
X335492676Y-135230952D01*
X335492676Y-135230952D02*
X335587914Y-135135714D01*
X335587914Y-135135714D02*
X335635533Y-135040476D01*
X374232200Y-142241667D02*
X374279819Y-142384524D01*
X374279819Y-142384524D02*
X374279819Y-142622619D01*
X374279819Y-142622619D02*
X374232200Y-142717857D01*
X374232200Y-142717857D02*
X374184580Y-142765476D01*
X374184580Y-142765476D02*
X374089342Y-142813095D01*
X374089342Y-142813095D02*
X373994104Y-142813095D01*
X373994104Y-142813095D02*
X373898866Y-142765476D01*
X373898866Y-142765476D02*
X373851247Y-142717857D01*
X373851247Y-142717857D02*
X373803628Y-142622619D01*
X373803628Y-142622619D02*
X373756009Y-142432143D01*
X373756009Y-142432143D02*
X373708390Y-142336905D01*
X373708390Y-142336905D02*
X373660771Y-142289286D01*
X373660771Y-142289286D02*
X373565533Y-142241667D01*
X373565533Y-142241667D02*
X373470295Y-142241667D01*
X373470295Y-142241667D02*
X373375057Y-142289286D01*
X373375057Y-142289286D02*
X373327438Y-142336905D01*
X373327438Y-142336905D02*
X373279819Y-142432143D01*
X373279819Y-142432143D02*
X373279819Y-142670238D01*
X373279819Y-142670238D02*
X373327438Y-142813095D01*
X373279819Y-143146429D02*
X374279819Y-143384524D01*
X374279819Y-143384524D02*
X373565533Y-143575000D01*
X373565533Y-143575000D02*
X374279819Y-143765476D01*
X374279819Y-143765476D02*
X373279819Y-144003572D01*
X374279819Y-144908333D02*
X374279819Y-144336905D01*
X374279819Y-144622619D02*
X373279819Y-144622619D01*
X373279819Y-144622619D02*
X373422676Y-144527381D01*
X373422676Y-144527381D02*
X373517914Y-144432143D01*
X373517914Y-144432143D02*
X373565533Y-144336905D01*
X372567857Y-138134580D02*
X372615476Y-138182200D01*
X372615476Y-138182200D02*
X372758333Y-138229819D01*
X372758333Y-138229819D02*
X372853571Y-138229819D01*
X372853571Y-138229819D02*
X372996428Y-138182200D01*
X372996428Y-138182200D02*
X373091666Y-138086961D01*
X373091666Y-138086961D02*
X373139285Y-137991723D01*
X373139285Y-137991723D02*
X373186904Y-137801247D01*
X373186904Y-137801247D02*
X373186904Y-137658390D01*
X373186904Y-137658390D02*
X373139285Y-137467914D01*
X373139285Y-137467914D02*
X373091666Y-137372676D01*
X373091666Y-137372676D02*
X372996428Y-137277438D01*
X372996428Y-137277438D02*
X372853571Y-137229819D01*
X372853571Y-137229819D02*
X372758333Y-137229819D01*
X372758333Y-137229819D02*
X372615476Y-137277438D01*
X372615476Y-137277438D02*
X372567857Y-137325057D01*
X371615476Y-138229819D02*
X372186904Y-138229819D01*
X371901190Y-138229819D02*
X371901190Y-137229819D01*
X371901190Y-137229819D02*
X371996428Y-137372676D01*
X371996428Y-137372676D02*
X372091666Y-137467914D01*
X372091666Y-137467914D02*
X372186904Y-137515533D01*
X370996428Y-137229819D02*
X370901190Y-137229819D01*
X370901190Y-137229819D02*
X370805952Y-137277438D01*
X370805952Y-137277438D02*
X370758333Y-137325057D01*
X370758333Y-137325057D02*
X370710714Y-137420295D01*
X370710714Y-137420295D02*
X370663095Y-137610771D01*
X370663095Y-137610771D02*
X370663095Y-137848866D01*
X370663095Y-137848866D02*
X370710714Y-138039342D01*
X370710714Y-138039342D02*
X370758333Y-138134580D01*
X370758333Y-138134580D02*
X370805952Y-138182200D01*
X370805952Y-138182200D02*
X370901190Y-138229819D01*
X370901190Y-138229819D02*
X370996428Y-138229819D01*
X370996428Y-138229819D02*
X371091666Y-138182200D01*
X371091666Y-138182200D02*
X371139285Y-138134580D01*
X371139285Y-138134580D02*
X371186904Y-138039342D01*
X371186904Y-138039342D02*
X371234523Y-137848866D01*
X371234523Y-137848866D02*
X371234523Y-137610771D01*
X371234523Y-137610771D02*
X371186904Y-137420295D01*
X371186904Y-137420295D02*
X371139285Y-137325057D01*
X371139285Y-137325057D02*
X371091666Y-137277438D01*
X371091666Y-137277438D02*
X370996428Y-137229819D01*
X316908333Y-135199819D02*
X316908333Y-135914104D01*
X316908333Y-135914104D02*
X316955952Y-136056961D01*
X316955952Y-136056961D02*
X317051190Y-136152200D01*
X317051190Y-136152200D02*
X317194047Y-136199819D01*
X317194047Y-136199819D02*
X317289285Y-136199819D01*
X316479761Y-135295057D02*
X316432142Y-135247438D01*
X316432142Y-135247438D02*
X316336904Y-135199819D01*
X316336904Y-135199819D02*
X316098809Y-135199819D01*
X316098809Y-135199819D02*
X316003571Y-135247438D01*
X316003571Y-135247438D02*
X315955952Y-135295057D01*
X315955952Y-135295057D02*
X315908333Y-135390295D01*
X315908333Y-135390295D02*
X315908333Y-135485533D01*
X315908333Y-135485533D02*
X315955952Y-135628390D01*
X315955952Y-135628390D02*
X316527380Y-136199819D01*
X316527380Y-136199819D02*
X315908333Y-136199819D01*
X230529819Y-152913095D02*
X231339342Y-152913095D01*
X231339342Y-152913095D02*
X231434580Y-152960714D01*
X231434580Y-152960714D02*
X231482200Y-153008333D01*
X231482200Y-153008333D02*
X231529819Y-153103571D01*
X231529819Y-153103571D02*
X231529819Y-153294047D01*
X231529819Y-153294047D02*
X231482200Y-153389285D01*
X231482200Y-153389285D02*
X231434580Y-153436904D01*
X231434580Y-153436904D02*
X231339342Y-153484523D01*
X231339342Y-153484523D02*
X230529819Y-153484523D01*
X230529819Y-153865476D02*
X230529819Y-154484523D01*
X230529819Y-154484523D02*
X230910771Y-154151190D01*
X230910771Y-154151190D02*
X230910771Y-154294047D01*
X230910771Y-154294047D02*
X230958390Y-154389285D01*
X230958390Y-154389285D02*
X231006009Y-154436904D01*
X231006009Y-154436904D02*
X231101247Y-154484523D01*
X231101247Y-154484523D02*
X231339342Y-154484523D01*
X231339342Y-154484523D02*
X231434580Y-154436904D01*
X231434580Y-154436904D02*
X231482200Y-154389285D01*
X231482200Y-154389285D02*
X231529819Y-154294047D01*
X231529819Y-154294047D02*
X231529819Y-154008333D01*
X231529819Y-154008333D02*
X231482200Y-153913095D01*
X231482200Y-153913095D02*
X231434580Y-153865476D01*
X330129819Y-141358333D02*
X329653628Y-141025000D01*
X330129819Y-140786905D02*
X329129819Y-140786905D01*
X329129819Y-140786905D02*
X329129819Y-141167857D01*
X329129819Y-141167857D02*
X329177438Y-141263095D01*
X329177438Y-141263095D02*
X329225057Y-141310714D01*
X329225057Y-141310714D02*
X329320295Y-141358333D01*
X329320295Y-141358333D02*
X329463152Y-141358333D01*
X329463152Y-141358333D02*
X329558390Y-141310714D01*
X329558390Y-141310714D02*
X329606009Y-141263095D01*
X329606009Y-141263095D02*
X329653628Y-141167857D01*
X329653628Y-141167857D02*
X329653628Y-140786905D01*
X330129819Y-142310714D02*
X330129819Y-141739286D01*
X330129819Y-142025000D02*
X329129819Y-142025000D01*
X329129819Y-142025000D02*
X329272676Y-141929762D01*
X329272676Y-141929762D02*
X329367914Y-141834524D01*
X329367914Y-141834524D02*
X329415533Y-141739286D01*
X365791666Y-145284580D02*
X365839285Y-145332200D01*
X365839285Y-145332200D02*
X365982142Y-145379819D01*
X365982142Y-145379819D02*
X366077380Y-145379819D01*
X366077380Y-145379819D02*
X366220237Y-145332200D01*
X366220237Y-145332200D02*
X366315475Y-145236961D01*
X366315475Y-145236961D02*
X366363094Y-145141723D01*
X366363094Y-145141723D02*
X366410713Y-144951247D01*
X366410713Y-144951247D02*
X366410713Y-144808390D01*
X366410713Y-144808390D02*
X366363094Y-144617914D01*
X366363094Y-144617914D02*
X366315475Y-144522676D01*
X366315475Y-144522676D02*
X366220237Y-144427438D01*
X366220237Y-144427438D02*
X366077380Y-144379819D01*
X366077380Y-144379819D02*
X365982142Y-144379819D01*
X365982142Y-144379819D02*
X365839285Y-144427438D01*
X365839285Y-144427438D02*
X365791666Y-144475057D01*
X365315475Y-145379819D02*
X365124999Y-145379819D01*
X365124999Y-145379819D02*
X365029761Y-145332200D01*
X365029761Y-145332200D02*
X364982142Y-145284580D01*
X364982142Y-145284580D02*
X364886904Y-145141723D01*
X364886904Y-145141723D02*
X364839285Y-144951247D01*
X364839285Y-144951247D02*
X364839285Y-144570295D01*
X364839285Y-144570295D02*
X364886904Y-144475057D01*
X364886904Y-144475057D02*
X364934523Y-144427438D01*
X364934523Y-144427438D02*
X365029761Y-144379819D01*
X365029761Y-144379819D02*
X365220237Y-144379819D01*
X365220237Y-144379819D02*
X365315475Y-144427438D01*
X365315475Y-144427438D02*
X365363094Y-144475057D01*
X365363094Y-144475057D02*
X365410713Y-144570295D01*
X365410713Y-144570295D02*
X365410713Y-144808390D01*
X365410713Y-144808390D02*
X365363094Y-144903628D01*
X365363094Y-144903628D02*
X365315475Y-144951247D01*
X365315475Y-144951247D02*
X365220237Y-144998866D01*
X365220237Y-144998866D02*
X365029761Y-144998866D01*
X365029761Y-144998866D02*
X364934523Y-144951247D01*
X364934523Y-144951247D02*
X364886904Y-144903628D01*
X364886904Y-144903628D02*
X364839285Y-144808390D01*
X359579819Y-147713095D02*
X360389342Y-147713095D01*
X360389342Y-147713095D02*
X360484580Y-147760714D01*
X360484580Y-147760714D02*
X360532200Y-147808333D01*
X360532200Y-147808333D02*
X360579819Y-147903571D01*
X360579819Y-147903571D02*
X360579819Y-148094047D01*
X360579819Y-148094047D02*
X360532200Y-148189285D01*
X360532200Y-148189285D02*
X360484580Y-148236904D01*
X360484580Y-148236904D02*
X360389342Y-148284523D01*
X360389342Y-148284523D02*
X359579819Y-148284523D01*
X360579819Y-149284523D02*
X360579819Y-148713095D01*
X360579819Y-148998809D02*
X359579819Y-148998809D01*
X359579819Y-148998809D02*
X359722676Y-148903571D01*
X359722676Y-148903571D02*
X359817914Y-148808333D01*
X359817914Y-148808333D02*
X359865533Y-148713095D01*
X322116666Y-139734580D02*
X322164285Y-139782200D01*
X322164285Y-139782200D02*
X322307142Y-139829819D01*
X322307142Y-139829819D02*
X322402380Y-139829819D01*
X322402380Y-139829819D02*
X322545237Y-139782200D01*
X322545237Y-139782200D02*
X322640475Y-139686961D01*
X322640475Y-139686961D02*
X322688094Y-139591723D01*
X322688094Y-139591723D02*
X322735713Y-139401247D01*
X322735713Y-139401247D02*
X322735713Y-139258390D01*
X322735713Y-139258390D02*
X322688094Y-139067914D01*
X322688094Y-139067914D02*
X322640475Y-138972676D01*
X322640475Y-138972676D02*
X322545237Y-138877438D01*
X322545237Y-138877438D02*
X322402380Y-138829819D01*
X322402380Y-138829819D02*
X322307142Y-138829819D01*
X322307142Y-138829819D02*
X322164285Y-138877438D01*
X322164285Y-138877438D02*
X322116666Y-138925057D01*
X321783332Y-138829819D02*
X321116666Y-138829819D01*
X321116666Y-138829819D02*
X321545237Y-139829819D01*
X322163588Y-122922112D02*
X322163588Y-122989456D01*
X322163588Y-122989456D02*
X322230932Y-123124143D01*
X322230932Y-123124143D02*
X322298275Y-123191486D01*
X322298275Y-123191486D02*
X322432962Y-123258830D01*
X322432962Y-123258830D02*
X322567649Y-123258830D01*
X322567649Y-123258830D02*
X322668664Y-123225158D01*
X322668664Y-123225158D02*
X322837023Y-123124143D01*
X322837023Y-123124143D02*
X322938038Y-123023128D01*
X322938038Y-123023128D02*
X323039054Y-122854769D01*
X323039054Y-122854769D02*
X323072725Y-122753754D01*
X323072725Y-122753754D02*
X323072725Y-122619067D01*
X323072725Y-122619067D02*
X323005382Y-122484380D01*
X323005382Y-122484380D02*
X322938038Y-122417036D01*
X322938038Y-122417036D02*
X322803351Y-122349693D01*
X322803351Y-122349693D02*
X322736008Y-122349693D01*
X322466634Y-122080319D02*
X322466634Y-122012975D01*
X322466634Y-122012975D02*
X322432962Y-121911960D01*
X322432962Y-121911960D02*
X322264603Y-121743601D01*
X322264603Y-121743601D02*
X322163588Y-121709929D01*
X322163588Y-121709929D02*
X322096245Y-121709929D01*
X322096245Y-121709929D02*
X321995229Y-121743601D01*
X321995229Y-121743601D02*
X321927886Y-121810945D01*
X321927886Y-121810945D02*
X321860542Y-121945632D01*
X321860542Y-121945632D02*
X321860542Y-122753754D01*
X321860542Y-122753754D02*
X321422810Y-122316021D01*
X331091666Y-122254580D02*
X331139285Y-122302200D01*
X331139285Y-122302200D02*
X331282142Y-122349819D01*
X331282142Y-122349819D02*
X331377380Y-122349819D01*
X331377380Y-122349819D02*
X331520237Y-122302200D01*
X331520237Y-122302200D02*
X331615475Y-122206961D01*
X331615475Y-122206961D02*
X331663094Y-122111723D01*
X331663094Y-122111723D02*
X331710713Y-121921247D01*
X331710713Y-121921247D02*
X331710713Y-121778390D01*
X331710713Y-121778390D02*
X331663094Y-121587914D01*
X331663094Y-121587914D02*
X331615475Y-121492676D01*
X331615475Y-121492676D02*
X331520237Y-121397438D01*
X331520237Y-121397438D02*
X331377380Y-121349819D01*
X331377380Y-121349819D02*
X331282142Y-121349819D01*
X331282142Y-121349819D02*
X331139285Y-121397438D01*
X331139285Y-121397438D02*
X331091666Y-121445057D01*
X330234523Y-121683152D02*
X330234523Y-122349819D01*
X330472618Y-121302200D02*
X330710713Y-122016485D01*
X330710713Y-122016485D02*
X330091666Y-122016485D01*
X322129580Y-118532142D02*
X322177200Y-118484523D01*
X322177200Y-118484523D02*
X322224819Y-118341666D01*
X322224819Y-118341666D02*
X322224819Y-118246428D01*
X322224819Y-118246428D02*
X322177200Y-118103571D01*
X322177200Y-118103571D02*
X322081961Y-118008333D01*
X322081961Y-118008333D02*
X321986723Y-117960714D01*
X321986723Y-117960714D02*
X321796247Y-117913095D01*
X321796247Y-117913095D02*
X321653390Y-117913095D01*
X321653390Y-117913095D02*
X321462914Y-117960714D01*
X321462914Y-117960714D02*
X321367676Y-118008333D01*
X321367676Y-118008333D02*
X321272438Y-118103571D01*
X321272438Y-118103571D02*
X321224819Y-118246428D01*
X321224819Y-118246428D02*
X321224819Y-118341666D01*
X321224819Y-118341666D02*
X321272438Y-118484523D01*
X321272438Y-118484523D02*
X321320057Y-118532142D01*
X322224819Y-119484523D02*
X322224819Y-118913095D01*
X322224819Y-119198809D02*
X321224819Y-119198809D01*
X321224819Y-119198809D02*
X321367676Y-119103571D01*
X321367676Y-119103571D02*
X321462914Y-119008333D01*
X321462914Y-119008333D02*
X321510533Y-118913095D01*
X321320057Y-119865476D02*
X321272438Y-119913095D01*
X321272438Y-119913095D02*
X321224819Y-120008333D01*
X321224819Y-120008333D02*
X321224819Y-120246428D01*
X321224819Y-120246428D02*
X321272438Y-120341666D01*
X321272438Y-120341666D02*
X321320057Y-120389285D01*
X321320057Y-120389285D02*
X321415295Y-120436904D01*
X321415295Y-120436904D02*
X321510533Y-120436904D01*
X321510533Y-120436904D02*
X321653390Y-120389285D01*
X321653390Y-120389285D02*
X322224819Y-119817857D01*
X322224819Y-119817857D02*
X322224819Y-120436904D01*
X319013588Y-127297111D02*
X319013588Y-127364455D01*
X319013588Y-127364455D02*
X319080932Y-127499142D01*
X319080932Y-127499142D02*
X319148275Y-127566485D01*
X319148275Y-127566485D02*
X319282962Y-127633829D01*
X319282962Y-127633829D02*
X319417649Y-127633829D01*
X319417649Y-127633829D02*
X319518664Y-127600157D01*
X319518664Y-127600157D02*
X319687023Y-127499142D01*
X319687023Y-127499142D02*
X319788038Y-127398127D01*
X319788038Y-127398127D02*
X319889054Y-127229768D01*
X319889054Y-127229768D02*
X319922725Y-127128753D01*
X319922725Y-127128753D02*
X319922725Y-126994066D01*
X319922725Y-126994066D02*
X319855382Y-126859379D01*
X319855382Y-126859379D02*
X319788038Y-126792035D01*
X319788038Y-126792035D02*
X319653351Y-126724692D01*
X319653351Y-126724692D02*
X319586008Y-126724692D01*
X319417649Y-126421646D02*
X318979916Y-125983913D01*
X318979916Y-125983913D02*
X318946245Y-126488989D01*
X318946245Y-126488989D02*
X318845229Y-126387974D01*
X318845229Y-126387974D02*
X318744214Y-126354302D01*
X318744214Y-126354302D02*
X318676871Y-126354302D01*
X318676871Y-126354302D02*
X318575855Y-126387974D01*
X318575855Y-126387974D02*
X318407497Y-126556333D01*
X318407497Y-126556333D02*
X318373825Y-126657348D01*
X318373825Y-126657348D02*
X318373825Y-126724692D01*
X318373825Y-126724692D02*
X318407497Y-126825707D01*
X318407497Y-126825707D02*
X318609527Y-127027737D01*
X318609527Y-127027737D02*
X318710542Y-127061409D01*
X318710542Y-127061409D02*
X318777886Y-127061409D01*
X331429819Y-118808333D02*
X330953628Y-118475000D01*
X331429819Y-118236905D02*
X330429819Y-118236905D01*
X330429819Y-118236905D02*
X330429819Y-118617857D01*
X330429819Y-118617857D02*
X330477438Y-118713095D01*
X330477438Y-118713095D02*
X330525057Y-118760714D01*
X330525057Y-118760714D02*
X330620295Y-118808333D01*
X330620295Y-118808333D02*
X330763152Y-118808333D01*
X330763152Y-118808333D02*
X330858390Y-118760714D01*
X330858390Y-118760714D02*
X330906009Y-118713095D01*
X330906009Y-118713095D02*
X330953628Y-118617857D01*
X330953628Y-118617857D02*
X330953628Y-118236905D01*
X330429819Y-119141667D02*
X330429819Y-119760714D01*
X330429819Y-119760714D02*
X330810771Y-119427381D01*
X330810771Y-119427381D02*
X330810771Y-119570238D01*
X330810771Y-119570238D02*
X330858390Y-119665476D01*
X330858390Y-119665476D02*
X330906009Y-119713095D01*
X330906009Y-119713095D02*
X331001247Y-119760714D01*
X331001247Y-119760714D02*
X331239342Y-119760714D01*
X331239342Y-119760714D02*
X331334580Y-119713095D01*
X331334580Y-119713095D02*
X331382200Y-119665476D01*
X331382200Y-119665476D02*
X331429819Y-119570238D01*
X331429819Y-119570238D02*
X331429819Y-119284524D01*
X331429819Y-119284524D02*
X331382200Y-119189286D01*
X331382200Y-119189286D02*
X331334580Y-119141667D01*
X339664580Y-128208333D02*
X339712200Y-128160714D01*
X339712200Y-128160714D02*
X339759819Y-128017857D01*
X339759819Y-128017857D02*
X339759819Y-127922619D01*
X339759819Y-127922619D02*
X339712200Y-127779762D01*
X339712200Y-127779762D02*
X339616961Y-127684524D01*
X339616961Y-127684524D02*
X339521723Y-127636905D01*
X339521723Y-127636905D02*
X339331247Y-127589286D01*
X339331247Y-127589286D02*
X339188390Y-127589286D01*
X339188390Y-127589286D02*
X338997914Y-127636905D01*
X338997914Y-127636905D02*
X338902676Y-127684524D01*
X338902676Y-127684524D02*
X338807438Y-127779762D01*
X338807438Y-127779762D02*
X338759819Y-127922619D01*
X338759819Y-127922619D02*
X338759819Y-128017857D01*
X338759819Y-128017857D02*
X338807438Y-128160714D01*
X338807438Y-128160714D02*
X338855057Y-128208333D01*
X338759819Y-129113095D02*
X338759819Y-128636905D01*
X338759819Y-128636905D02*
X339236009Y-128589286D01*
X339236009Y-128589286D02*
X339188390Y-128636905D01*
X339188390Y-128636905D02*
X339140771Y-128732143D01*
X339140771Y-128732143D02*
X339140771Y-128970238D01*
X339140771Y-128970238D02*
X339188390Y-129065476D01*
X339188390Y-129065476D02*
X339236009Y-129113095D01*
X339236009Y-129113095D02*
X339331247Y-129160714D01*
X339331247Y-129160714D02*
X339569342Y-129160714D01*
X339569342Y-129160714D02*
X339664580Y-129113095D01*
X339664580Y-129113095D02*
X339712200Y-129065476D01*
X339712200Y-129065476D02*
X339759819Y-128970238D01*
X339759819Y-128970238D02*
X339759819Y-128732143D01*
X339759819Y-128732143D02*
X339712200Y-128636905D01*
X339712200Y-128636905D02*
X339664580Y-128589286D01*
D11*
X372692580Y-125789285D02*
X373692580Y-125789285D01*
X373692580Y-125789285D02*
X373692580Y-125551190D01*
X373692580Y-125551190D02*
X373644961Y-125408333D01*
X373644961Y-125408333D02*
X373549723Y-125313095D01*
X373549723Y-125313095D02*
X373454485Y-125265476D01*
X373454485Y-125265476D02*
X373264009Y-125217857D01*
X373264009Y-125217857D02*
X373121152Y-125217857D01*
X373121152Y-125217857D02*
X372930676Y-125265476D01*
X372930676Y-125265476D02*
X372835438Y-125313095D01*
X372835438Y-125313095D02*
X372740200Y-125408333D01*
X372740200Y-125408333D02*
X372692580Y-125551190D01*
X372692580Y-125551190D02*
X372692580Y-125789285D01*
X373692580Y-124884523D02*
X373692580Y-124217857D01*
X373692580Y-124217857D02*
X372692580Y-124646428D01*
X373359247Y-123408333D02*
X372692580Y-123408333D01*
X373740200Y-123646428D02*
X373025914Y-123884523D01*
X373025914Y-123884523D02*
X373025914Y-123265476D01*
D10*
X177113333Y-164839819D02*
X177113333Y-165554104D01*
X177113333Y-165554104D02*
X177160952Y-165696961D01*
X177160952Y-165696961D02*
X177256190Y-165792200D01*
X177256190Y-165792200D02*
X177399047Y-165839819D01*
X177399047Y-165839819D02*
X177494285Y-165839819D01*
X176113333Y-165839819D02*
X176684761Y-165839819D01*
X176399047Y-165839819D02*
X176399047Y-164839819D01*
X176399047Y-164839819D02*
X176494285Y-164982676D01*
X176494285Y-164982676D02*
X176589523Y-165077914D01*
X176589523Y-165077914D02*
X176684761Y-165125533D01*
X323778628Y-116073809D02*
X324254819Y-116073809D01*
X323254819Y-115740476D02*
X323778628Y-116073809D01*
X323778628Y-116073809D02*
X323254819Y-116407142D01*
X324254819Y-117264285D02*
X324254819Y-116692857D01*
X324254819Y-116978571D02*
X323254819Y-116978571D01*
X323254819Y-116978571D02*
X323397676Y-116883333D01*
X323397676Y-116883333D02*
X323492914Y-116788095D01*
X323492914Y-116788095D02*
X323540533Y-116692857D01*
X320862407Y-130826953D02*
X321671930Y-130826953D01*
X321671930Y-130826953D02*
X321767168Y-130874572D01*
X321767168Y-130874572D02*
X321814788Y-130922191D01*
X321814788Y-130922191D02*
X321862407Y-131017429D01*
X321862407Y-131017429D02*
X321862407Y-131207905D01*
X321862407Y-131207905D02*
X321814788Y-131303143D01*
X321814788Y-131303143D02*
X321767168Y-131350762D01*
X321767168Y-131350762D02*
X321671930Y-131398381D01*
X321671930Y-131398381D02*
X320862407Y-131398381D01*
X320957645Y-131826953D02*
X320910026Y-131874572D01*
X320910026Y-131874572D02*
X320862407Y-131969810D01*
X320862407Y-131969810D02*
X320862407Y-132207905D01*
X320862407Y-132207905D02*
X320910026Y-132303143D01*
X320910026Y-132303143D02*
X320957645Y-132350762D01*
X320957645Y-132350762D02*
X321052883Y-132398381D01*
X321052883Y-132398381D02*
X321148121Y-132398381D01*
X321148121Y-132398381D02*
X321290978Y-132350762D01*
X321290978Y-132350762D02*
X321862407Y-131779334D01*
X321862407Y-131779334D02*
X321862407Y-132398381D01*
X365791666Y-143184580D02*
X365839285Y-143232200D01*
X365839285Y-143232200D02*
X365982142Y-143279819D01*
X365982142Y-143279819D02*
X366077380Y-143279819D01*
X366077380Y-143279819D02*
X366220237Y-143232200D01*
X366220237Y-143232200D02*
X366315475Y-143136961D01*
X366315475Y-143136961D02*
X366363094Y-143041723D01*
X366363094Y-143041723D02*
X366410713Y-142851247D01*
X366410713Y-142851247D02*
X366410713Y-142708390D01*
X366410713Y-142708390D02*
X366363094Y-142517914D01*
X366363094Y-142517914D02*
X366315475Y-142422676D01*
X366315475Y-142422676D02*
X366220237Y-142327438D01*
X366220237Y-142327438D02*
X366077380Y-142279819D01*
X366077380Y-142279819D02*
X365982142Y-142279819D01*
X365982142Y-142279819D02*
X365839285Y-142327438D01*
X365839285Y-142327438D02*
X365791666Y-142375057D01*
X364839285Y-143279819D02*
X365410713Y-143279819D01*
X365124999Y-143279819D02*
X365124999Y-142279819D01*
X365124999Y-142279819D02*
X365220237Y-142422676D01*
X365220237Y-142422676D02*
X365315475Y-142517914D01*
X365315475Y-142517914D02*
X365410713Y-142565533D01*
X324554819Y-141508333D02*
X324078628Y-141175000D01*
X324554819Y-140936905D02*
X323554819Y-140936905D01*
X323554819Y-140936905D02*
X323554819Y-141317857D01*
X323554819Y-141317857D02*
X323602438Y-141413095D01*
X323602438Y-141413095D02*
X323650057Y-141460714D01*
X323650057Y-141460714D02*
X323745295Y-141508333D01*
X323745295Y-141508333D02*
X323888152Y-141508333D01*
X323888152Y-141508333D02*
X323983390Y-141460714D01*
X323983390Y-141460714D02*
X324031009Y-141413095D01*
X324031009Y-141413095D02*
X324078628Y-141317857D01*
X324078628Y-141317857D02*
X324078628Y-140936905D01*
X323650057Y-141889286D02*
X323602438Y-141936905D01*
X323602438Y-141936905D02*
X323554819Y-142032143D01*
X323554819Y-142032143D02*
X323554819Y-142270238D01*
X323554819Y-142270238D02*
X323602438Y-142365476D01*
X323602438Y-142365476D02*
X323650057Y-142413095D01*
X323650057Y-142413095D02*
X323745295Y-142460714D01*
X323745295Y-142460714D02*
X323840533Y-142460714D01*
X323840533Y-142460714D02*
X323983390Y-142413095D01*
X323983390Y-142413095D02*
X324554819Y-141841667D01*
X324554819Y-141841667D02*
X324554819Y-142460714D01*
X310308333Y-140299819D02*
X310308333Y-141014104D01*
X310308333Y-141014104D02*
X310355952Y-141156961D01*
X310355952Y-141156961D02*
X310451190Y-141252200D01*
X310451190Y-141252200D02*
X310594047Y-141299819D01*
X310594047Y-141299819D02*
X310689285Y-141299819D01*
X309927380Y-140299819D02*
X309308333Y-140299819D01*
X309308333Y-140299819D02*
X309641666Y-140680771D01*
X309641666Y-140680771D02*
X309498809Y-140680771D01*
X309498809Y-140680771D02*
X309403571Y-140728390D01*
X309403571Y-140728390D02*
X309355952Y-140776009D01*
X309355952Y-140776009D02*
X309308333Y-140871247D01*
X309308333Y-140871247D02*
X309308333Y-141109342D01*
X309308333Y-141109342D02*
X309355952Y-141204580D01*
X309355952Y-141204580D02*
X309403571Y-141252200D01*
X309403571Y-141252200D02*
X309498809Y-141299819D01*
X309498809Y-141299819D02*
X309784523Y-141299819D01*
X309784523Y-141299819D02*
X309879761Y-141252200D01*
X309879761Y-141252200D02*
X309927380Y-141204580D01*
X334829580Y-138108333D02*
X334877200Y-138060714D01*
X334877200Y-138060714D02*
X334924819Y-137917857D01*
X334924819Y-137917857D02*
X334924819Y-137822619D01*
X334924819Y-137822619D02*
X334877200Y-137679762D01*
X334877200Y-137679762D02*
X334781961Y-137584524D01*
X334781961Y-137584524D02*
X334686723Y-137536905D01*
X334686723Y-137536905D02*
X334496247Y-137489286D01*
X334496247Y-137489286D02*
X334353390Y-137489286D01*
X334353390Y-137489286D02*
X334162914Y-137536905D01*
X334162914Y-137536905D02*
X334067676Y-137584524D01*
X334067676Y-137584524D02*
X333972438Y-137679762D01*
X333972438Y-137679762D02*
X333924819Y-137822619D01*
X333924819Y-137822619D02*
X333924819Y-137917857D01*
X333924819Y-137917857D02*
X333972438Y-138060714D01*
X333972438Y-138060714D02*
X334020057Y-138108333D01*
X333924819Y-138965476D02*
X333924819Y-138775000D01*
X333924819Y-138775000D02*
X333972438Y-138679762D01*
X333972438Y-138679762D02*
X334020057Y-138632143D01*
X334020057Y-138632143D02*
X334162914Y-138536905D01*
X334162914Y-138536905D02*
X334353390Y-138489286D01*
X334353390Y-138489286D02*
X334734342Y-138489286D01*
X334734342Y-138489286D02*
X334829580Y-138536905D01*
X334829580Y-138536905D02*
X334877200Y-138584524D01*
X334877200Y-138584524D02*
X334924819Y-138679762D01*
X334924819Y-138679762D02*
X334924819Y-138870238D01*
X334924819Y-138870238D02*
X334877200Y-138965476D01*
X334877200Y-138965476D02*
X334829580Y-139013095D01*
X334829580Y-139013095D02*
X334734342Y-139060714D01*
X334734342Y-139060714D02*
X334496247Y-139060714D01*
X334496247Y-139060714D02*
X334401009Y-139013095D01*
X334401009Y-139013095D02*
X334353390Y-138965476D01*
X334353390Y-138965476D02*
X334305771Y-138870238D01*
X334305771Y-138870238D02*
X334305771Y-138679762D01*
X334305771Y-138679762D02*
X334353390Y-138584524D01*
X334353390Y-138584524D02*
X334401009Y-138536905D01*
X334401009Y-138536905D02*
X334496247Y-138489286D01*
X363141666Y-153564580D02*
X363189285Y-153612200D01*
X363189285Y-153612200D02*
X363332142Y-153659819D01*
X363332142Y-153659819D02*
X363427380Y-153659819D01*
X363427380Y-153659819D02*
X363570237Y-153612200D01*
X363570237Y-153612200D02*
X363665475Y-153516961D01*
X363665475Y-153516961D02*
X363713094Y-153421723D01*
X363713094Y-153421723D02*
X363760713Y-153231247D01*
X363760713Y-153231247D02*
X363760713Y-153088390D01*
X363760713Y-153088390D02*
X363713094Y-152897914D01*
X363713094Y-152897914D02*
X363665475Y-152802676D01*
X363665475Y-152802676D02*
X363570237Y-152707438D01*
X363570237Y-152707438D02*
X363427380Y-152659819D01*
X363427380Y-152659819D02*
X363332142Y-152659819D01*
X363332142Y-152659819D02*
X363189285Y-152707438D01*
X363189285Y-152707438D02*
X363141666Y-152755057D01*
X362570237Y-153088390D02*
X362665475Y-153040771D01*
X362665475Y-153040771D02*
X362713094Y-152993152D01*
X362713094Y-152993152D02*
X362760713Y-152897914D01*
X362760713Y-152897914D02*
X362760713Y-152850295D01*
X362760713Y-152850295D02*
X362713094Y-152755057D01*
X362713094Y-152755057D02*
X362665475Y-152707438D01*
X362665475Y-152707438D02*
X362570237Y-152659819D01*
X362570237Y-152659819D02*
X362379761Y-152659819D01*
X362379761Y-152659819D02*
X362284523Y-152707438D01*
X362284523Y-152707438D02*
X362236904Y-152755057D01*
X362236904Y-152755057D02*
X362189285Y-152850295D01*
X362189285Y-152850295D02*
X362189285Y-152897914D01*
X362189285Y-152897914D02*
X362236904Y-152993152D01*
X362236904Y-152993152D02*
X362284523Y-153040771D01*
X362284523Y-153040771D02*
X362379761Y-153088390D01*
X362379761Y-153088390D02*
X362570237Y-153088390D01*
X362570237Y-153088390D02*
X362665475Y-153136009D01*
X362665475Y-153136009D02*
X362713094Y-153183628D01*
X362713094Y-153183628D02*
X362760713Y-153278866D01*
X362760713Y-153278866D02*
X362760713Y-153469342D01*
X362760713Y-153469342D02*
X362713094Y-153564580D01*
X362713094Y-153564580D02*
X362665475Y-153612200D01*
X362665475Y-153612200D02*
X362570237Y-153659819D01*
X362570237Y-153659819D02*
X362379761Y-153659819D01*
X362379761Y-153659819D02*
X362284523Y-153612200D01*
X362284523Y-153612200D02*
X362236904Y-153564580D01*
X362236904Y-153564580D02*
X362189285Y-153469342D01*
X362189285Y-153469342D02*
X362189285Y-153278866D01*
X362189285Y-153278866D02*
X362236904Y-153183628D01*
X362236904Y-153183628D02*
X362284523Y-153136009D01*
X362284523Y-153136009D02*
X362379761Y-153088390D01*
%TO.C,MX15*%
X335377324Y-86329780D02*
X335377324Y-86799780D01*
X335377324Y-83249780D02*
X335377324Y-83479780D01*
X334877324Y-87299780D02*
X330312500Y-87299780D01*
X333827324Y-83249780D02*
X335377324Y-83249780D01*
X326427324Y-83249780D02*
X332327324Y-83249780D01*
X324427324Y-88899780D02*
X324427324Y-89139780D01*
X324427324Y-86049780D02*
X324427324Y-85249780D01*
X334877324Y-87299780D02*
G75*
G03*
X335377324Y-86799780I-1J500001D01*
G01*
X330312500Y-87299781D02*
G75*
G03*
X328018179Y-89139780I-866J-2349331D01*
G01*
X326427324Y-83249780D02*
G75*
G03*
X324427324Y-85249780I4J-2000004D01*
G01*
%TO.C,MX22*%
X130589824Y-105379780D02*
X130589824Y-105849780D01*
X130589824Y-102299780D02*
X130589824Y-102529780D01*
X130089824Y-106349780D02*
X125525000Y-106349780D01*
X129039824Y-102299780D02*
X130589824Y-102299780D01*
X121639824Y-102299780D02*
X127539824Y-102299780D01*
X119639824Y-107949780D02*
X119639824Y-108189780D01*
X119639824Y-105099780D02*
X119639824Y-104299780D01*
X130089824Y-106349780D02*
G75*
G03*
X130589824Y-105849780I-1J500001D01*
G01*
X125525000Y-106349781D02*
G75*
G03*
X123230679Y-108189780I-866J-2349331D01*
G01*
X121639824Y-102299780D02*
G75*
G03*
X119639824Y-104299780I4J-2000004D01*
G01*
D12*
%TO.C,D64*%
X115913750Y-169225000D02*
X115913750Y-165215000D01*
X117913750Y-169225000D02*
X115913750Y-169225000D01*
X117913750Y-169225000D02*
X117913750Y-165215000D01*
D10*
%TO.C,MX18*%
X49627324Y-105379780D02*
X49627324Y-105849780D01*
X49627324Y-102299780D02*
X49627324Y-102529780D01*
X49127324Y-106349780D02*
X44562500Y-106349780D01*
X48077324Y-102299780D02*
X49627324Y-102299780D01*
X40677324Y-102299780D02*
X46577324Y-102299780D01*
X38677324Y-107949780D02*
X38677324Y-108189780D01*
X38677324Y-105099780D02*
X38677324Y-104299780D01*
X49127324Y-106349780D02*
G75*
G03*
X49627324Y-105849780I-1J500001D01*
G01*
X44562500Y-106349781D02*
G75*
G03*
X42268179Y-108189780I-866J-2349331D01*
G01*
X40677324Y-102299780D02*
G75*
G03*
X38677324Y-104299780I4J-2000004D01*
G01*
D12*
%TO.C,D17*%
X370707500Y-93025000D02*
X370707500Y-89015000D01*
X372707500Y-93025000D02*
X370707500Y-93025000D01*
X372707500Y-93025000D02*
X372707500Y-89015000D01*
%TO.C,C11*%
X337835000Y-134209420D02*
X337835000Y-134490580D01*
X336815000Y-134209420D02*
X336815000Y-134490580D01*
%TO.C,D70*%
X306413750Y-169225000D02*
X306413750Y-165215000D01*
X308413750Y-169225000D02*
X306413750Y-169225000D01*
X308413750Y-169225000D02*
X308413750Y-165215000D01*
%TO.C,SW1*%
X371075000Y-146325000D02*
X369075000Y-146325000D01*
X367775000Y-145275000D02*
X367325000Y-144825000D01*
X372375000Y-145275000D02*
X372825000Y-144825000D01*
X367325000Y-144825000D02*
X367325000Y-142325000D01*
X372825000Y-144825000D02*
X372825000Y-142325000D01*
X367775000Y-141875000D02*
X367325000Y-142325000D01*
X372375000Y-141875000D02*
X372825000Y-142325000D01*
X371075000Y-140825000D02*
X369075000Y-140825000D01*
D10*
%TO.C,MX3*%
X82964824Y-86329780D02*
X82964824Y-86799780D01*
X82964824Y-83249780D02*
X82964824Y-83479780D01*
X82464824Y-87299780D02*
X77900000Y-87299780D01*
X81414824Y-83249780D02*
X82964824Y-83249780D01*
X74014824Y-83249780D02*
X79914824Y-83249780D01*
X72014824Y-88899780D02*
X72014824Y-89139780D01*
X72014824Y-86049780D02*
X72014824Y-85249780D01*
X82464824Y-87299780D02*
G75*
G03*
X82964824Y-86799780I-1J500001D01*
G01*
X77900000Y-87299781D02*
G75*
G03*
X75605679Y-89139780I-866J-2349331D01*
G01*
X74014824Y-83249780D02*
G75*
G03*
X72014824Y-85249780I4J-2000004D01*
G01*
D12*
%TO.C,D40*%
X151632500Y-131125000D02*
X151632500Y-127115000D01*
X153632500Y-131125000D02*
X151632500Y-131125000D01*
X153632500Y-131125000D02*
X153632500Y-127115000D01*
%TO.C,C10*%
X368534420Y-137265000D02*
X368815580Y-137265000D01*
X368534420Y-138285000D02*
X368815580Y-138285000D01*
D10*
%TO.C,MX44*%
X230602324Y-124429780D02*
X230602324Y-124899780D01*
X230602324Y-121349780D02*
X230602324Y-121579780D01*
X230102324Y-125399780D02*
X225537500Y-125399780D01*
X229052324Y-121349780D02*
X230602324Y-121349780D01*
X221652324Y-121349780D02*
X227552324Y-121349780D01*
X219652324Y-126999780D02*
X219652324Y-127239780D01*
X219652324Y-124149780D02*
X219652324Y-123349780D01*
X230102324Y-125399780D02*
G75*
G03*
X230602324Y-124899780I-1J500001D01*
G01*
X225537500Y-125399781D02*
G75*
G03*
X223243179Y-127239780I-866J-2349331D01*
G01*
X221652324Y-121349780D02*
G75*
G03*
X219652324Y-123349780I4J-2000004D01*
G01*
D12*
%TO.C,D25*%
X184970000Y-112075000D02*
X184970000Y-108065000D01*
X186970000Y-112075000D02*
X184970000Y-112075000D01*
X186970000Y-112075000D02*
X186970000Y-108065000D01*
%TO.C,D59*%
X292126250Y-150175000D02*
X292126250Y-146165000D01*
X294126250Y-150175000D02*
X292126250Y-150175000D01*
X294126250Y-150175000D02*
X294126250Y-146165000D01*
%TO.C,D43*%
X208782500Y-131125000D02*
X208782500Y-127115000D01*
X210782500Y-131125000D02*
X208782500Y-131125000D01*
X210782500Y-131125000D02*
X210782500Y-127115000D01*
%TO.C,D31*%
X304032500Y-112075000D02*
X304032500Y-108065000D01*
X306032500Y-112075000D02*
X304032500Y-112075000D01*
X306032500Y-112075000D02*
X306032500Y-108065000D01*
%TO.C,J2*%
X317905000Y-147025000D02*
X315245000Y-147025000D01*
X317905000Y-139345000D02*
X317905000Y-147025000D01*
X317905000Y-139345000D02*
X315245000Y-139345000D01*
X317905000Y-138075000D02*
X317905000Y-136745000D01*
X317905000Y-136745000D02*
X316575000Y-136745000D01*
X315245000Y-139345000D02*
X315245000Y-147025000D01*
%TO.C,D34*%
X370707500Y-112075000D02*
X370707500Y-108065000D01*
X372707500Y-112075000D02*
X370707500Y-112075000D01*
X372707500Y-112075000D02*
X372707500Y-108065000D01*
D10*
%TO.C,MX67*%
X237746074Y-162529780D02*
X237746074Y-162999780D01*
X237746074Y-159449780D02*
X237746074Y-159679780D01*
X237246074Y-163499780D02*
X232681250Y-163499780D01*
X236196074Y-159449780D02*
X237746074Y-159449780D01*
X228796074Y-159449780D02*
X234696074Y-159449780D01*
X226796074Y-165099780D02*
X226796074Y-165339780D01*
X226796074Y-162249780D02*
X226796074Y-161449780D01*
X237246074Y-163499780D02*
G75*
G03*
X237746074Y-162999780I-1J500001D01*
G01*
X232681250Y-163499781D02*
G75*
G03*
X230386929Y-165339780I-866J-2349331D01*
G01*
X228796074Y-159449780D02*
G75*
G03*
X226796074Y-161449780I4J-2000004D01*
G01*
%TO.C,MX41*%
X173452324Y-124429780D02*
X173452324Y-124899780D01*
X173452324Y-121349780D02*
X173452324Y-121579780D01*
X172952324Y-125399780D02*
X168387500Y-125399780D01*
X171902324Y-121349780D02*
X173452324Y-121349780D01*
X164502324Y-121349780D02*
X170402324Y-121349780D01*
X162502324Y-126999780D02*
X162502324Y-127239780D01*
X162502324Y-124149780D02*
X162502324Y-123349780D01*
X172952324Y-125399780D02*
G75*
G03*
X173452324Y-124899780I-1J500001D01*
G01*
X168387500Y-125399781D02*
G75*
G03*
X166093179Y-127239780I-866J-2349331D01*
G01*
X164502324Y-121349780D02*
G75*
G03*
X162502324Y-123349780I4J-2000004D01*
G01*
%TO.C,MX45*%
X249652324Y-124429780D02*
X249652324Y-124899780D01*
X249652324Y-121349780D02*
X249652324Y-121579780D01*
X249152324Y-125399780D02*
X244587500Y-125399780D01*
X248102324Y-121349780D02*
X249652324Y-121349780D01*
X240702324Y-121349780D02*
X246602324Y-121349780D01*
X238702324Y-126999780D02*
X238702324Y-127239780D01*
X238702324Y-124149780D02*
X238702324Y-123349780D01*
X249152324Y-125399780D02*
G75*
G03*
X249652324Y-124899780I-1J500001D01*
G01*
X244587500Y-125399781D02*
G75*
G03*
X242293179Y-127239780I-866J-2349331D01*
G01*
X240702324Y-121349780D02*
G75*
G03*
X238702324Y-123349780I4J-2000004D01*
G01*
D12*
%TO.C,D45*%
X246882500Y-131125000D02*
X246882500Y-127115000D01*
X248882500Y-131125000D02*
X246882500Y-131125000D01*
X248882500Y-131125000D02*
X248882500Y-127115000D01*
%TO.C,D71*%
X332607500Y-169225000D02*
X332607500Y-165215000D01*
X334607500Y-169225000D02*
X332607500Y-169225000D01*
X334607500Y-169225000D02*
X334607500Y-165215000D01*
D10*
%TO.C,MX27*%
X225839824Y-105379780D02*
X225839824Y-105849780D01*
X225839824Y-102299780D02*
X225839824Y-102529780D01*
X225339824Y-106349780D02*
X220775000Y-106349780D01*
X224289824Y-102299780D02*
X225839824Y-102299780D01*
X216889824Y-102299780D02*
X222789824Y-102299780D01*
X214889824Y-107949780D02*
X214889824Y-108189780D01*
X214889824Y-105099780D02*
X214889824Y-104299780D01*
X225339824Y-106349780D02*
G75*
G03*
X225839824Y-105849780I-1J500001D01*
G01*
X220775000Y-106349781D02*
G75*
G03*
X218480679Y-108189780I-866J-2349331D01*
G01*
X216889824Y-102299780D02*
G75*
G03*
X214889824Y-104299780I4J-2000004D01*
G01*
D12*
%TO.C,U3*%
X232525000Y-151575000D02*
X231915000Y-151575000D01*
X231915000Y-151575000D02*
X231915000Y-154475000D01*
X235035000Y-153675000D02*
X235035000Y-152875000D01*
X235035000Y-153675000D02*
X235035000Y-154475000D01*
D10*
%TO.C,MX31*%
X306802324Y-105379780D02*
X306802324Y-105849780D01*
X306802324Y-102299780D02*
X306802324Y-102529780D01*
X306302324Y-106349780D02*
X301737500Y-106349780D01*
X305252324Y-102299780D02*
X306802324Y-102299780D01*
X297852324Y-102299780D02*
X303752324Y-102299780D01*
X295852324Y-107949780D02*
X295852324Y-108189780D01*
X295852324Y-105099780D02*
X295852324Y-104299780D01*
X306302324Y-106349780D02*
G75*
G03*
X306802324Y-105849780I-1J500001D01*
G01*
X301737500Y-106349781D02*
G75*
G03*
X299443179Y-108189780I-866J-2349331D01*
G01*
X297852324Y-102299780D02*
G75*
G03*
X295852324Y-104299780I4J-2000004D01*
G01*
%TO.C,MX53*%
X163927324Y-143479780D02*
X163927324Y-143949780D01*
X163927324Y-140399780D02*
X163927324Y-140629780D01*
X163427324Y-144449780D02*
X158862500Y-144449780D01*
X162377324Y-140399780D02*
X163927324Y-140399780D01*
X154977324Y-140399780D02*
X160877324Y-140399780D01*
X152977324Y-146049780D02*
X152977324Y-146289780D01*
X152977324Y-143199780D02*
X152977324Y-142399780D01*
X163427324Y-144449780D02*
G75*
G03*
X163927324Y-143949780I-1J500001D01*
G01*
X158862500Y-144449781D02*
G75*
G03*
X156568179Y-146289780I-866J-2349331D01*
G01*
X154977324Y-140399780D02*
G75*
G03*
X152977324Y-142399780I4J-2000004D01*
G01*
D12*
%TO.C,R1*%
X327377500Y-141612258D02*
X327377500Y-141137742D01*
X328422500Y-141612258D02*
X328422500Y-141137742D01*
%TO.C,C9*%
X363115580Y-145385000D02*
X362834420Y-145385000D01*
X363115580Y-144365000D02*
X362834420Y-144365000D01*
%TO.C,D72*%
X351657500Y-169225000D02*
X351657500Y-165215000D01*
X353657500Y-169225000D02*
X351657500Y-169225000D01*
X353657500Y-169225000D02*
X353657500Y-165215000D01*
D10*
%TO.C,MX17*%
X373477324Y-86329780D02*
X373477324Y-86799780D01*
X373477324Y-83249780D02*
X373477324Y-83479780D01*
X372977324Y-87299780D02*
X368412500Y-87299780D01*
X371927324Y-83249780D02*
X373477324Y-83249780D01*
X364527324Y-83249780D02*
X370427324Y-83249780D01*
X362527324Y-88899780D02*
X362527324Y-89139780D01*
X362527324Y-86049780D02*
X362527324Y-85249780D01*
X372977324Y-87299780D02*
G75*
G03*
X373477324Y-86799780I-1J500001D01*
G01*
X368412500Y-87299781D02*
G75*
G03*
X366118179Y-89139780I-866J-2349331D01*
G01*
X364527324Y-83249780D02*
G75*
G03*
X362527324Y-85249780I4J-2000004D01*
G01*
D12*
%TO.C,D66*%
X201638750Y-169225000D02*
X201638750Y-165215000D01*
X203638750Y-169225000D02*
X201638750Y-169225000D01*
X203638750Y-169225000D02*
X203638750Y-165215000D01*
D10*
%TO.C,MX60*%
X354427324Y-143479780D02*
X354427324Y-143949780D01*
X354427324Y-140399780D02*
X354427324Y-140629780D01*
X353927324Y-144449780D02*
X349362500Y-144449780D01*
X352877324Y-140399780D02*
X354427324Y-140399780D01*
X345477324Y-140399780D02*
X351377324Y-140399780D01*
X343477324Y-146049780D02*
X343477324Y-146289780D01*
X343477324Y-143199780D02*
X343477324Y-142399780D01*
X353927324Y-144449780D02*
G75*
G03*
X354427324Y-143949780I-1J500001D01*
G01*
X349362500Y-144449781D02*
G75*
G03*
X347068179Y-146289780I-866J-2349331D01*
G01*
X345477324Y-140399780D02*
G75*
G03*
X343477324Y-142399780I4J-2000004D01*
G01*
D12*
%TO.C,U1*%
X364085000Y-148475000D02*
X364085000Y-147675000D01*
X364085000Y-148475000D02*
X364085000Y-149275000D01*
X360965000Y-148475000D02*
X360965000Y-146675000D01*
X360965000Y-148475000D02*
X360965000Y-149275000D01*
D10*
%TO.C,MX68*%
X261558574Y-162529780D02*
X261558574Y-162999780D01*
X261558574Y-159449780D02*
X261558574Y-159679780D01*
X261058574Y-163499780D02*
X256493750Y-163499780D01*
X260008574Y-159449780D02*
X261558574Y-159449780D01*
X252608574Y-159449780D02*
X258508574Y-159449780D01*
X250608574Y-165099780D02*
X250608574Y-165339780D01*
X250608574Y-162249780D02*
X250608574Y-161449780D01*
X261058574Y-163499780D02*
G75*
G03*
X261558574Y-162999780I-1J500001D01*
G01*
X256493750Y-163499781D02*
G75*
G03*
X254199429Y-165339780I-866J-2349331D01*
G01*
X252608574Y-159449780D02*
G75*
G03*
X250608574Y-161449780I4J-2000004D01*
G01*
D12*
%TO.C,C7*%
X323165580Y-138335000D02*
X322884420Y-138335000D01*
X323165580Y-137315000D02*
X322884420Y-137315000D01*
D10*
%TO.C,MX58*%
X259177324Y-143479780D02*
X259177324Y-143949780D01*
X259177324Y-140399780D02*
X259177324Y-140629780D01*
X258677324Y-144449780D02*
X254112500Y-144449780D01*
X257627324Y-140399780D02*
X259177324Y-140399780D01*
X250227324Y-140399780D02*
X256127324Y-140399780D01*
X248227324Y-146049780D02*
X248227324Y-146289780D01*
X248227324Y-143199780D02*
X248227324Y-142399780D01*
X258677324Y-144449780D02*
G75*
G03*
X259177324Y-143949780I-1J500001D01*
G01*
X254112500Y-144449781D02*
G75*
G03*
X251818179Y-146289780I-866J-2349331D01*
G01*
X250227324Y-140399780D02*
G75*
G03*
X248227324Y-142399780I4J-2000004D01*
G01*
D12*
%TO.C,D29*%
X261170000Y-112075000D02*
X261170000Y-108065000D01*
X263170000Y-112075000D02*
X261170000Y-112075000D01*
X263170000Y-112075000D02*
X263170000Y-108065000D01*
%TO.C,D69*%
X282601250Y-169225000D02*
X282601250Y-165215000D01*
X284601250Y-169225000D02*
X282601250Y-169225000D01*
X284601250Y-169225000D02*
X284601250Y-165215000D01*
%TO.C,D2*%
X61145000Y-93025000D02*
X61145000Y-89015000D01*
X63145000Y-93025000D02*
X61145000Y-93025000D01*
X63145000Y-93025000D02*
X63145000Y-89015000D01*
%TO.C,D33*%
X351657500Y-112075000D02*
X351657500Y-108065000D01*
X353657500Y-112075000D02*
X351657500Y-112075000D01*
X353657500Y-112075000D02*
X353657500Y-108065000D01*
%TO.C,C13*%
X326159420Y-115165000D02*
X326440580Y-115165000D01*
X326159420Y-116185000D02*
X326440580Y-116185000D01*
%TO.C,C2*%
X321690773Y-124737022D02*
X321491962Y-124538211D01*
X322412022Y-124015773D02*
X322213211Y-123816962D01*
%TO.C,D68*%
X258788750Y-169225000D02*
X258788750Y-165215000D01*
X260788750Y-169225000D02*
X258788750Y-169225000D01*
X260788750Y-169225000D02*
X260788750Y-165215000D01*
%TO.C,D63*%
X92101250Y-169225000D02*
X92101250Y-165215000D01*
X94101250Y-169225000D02*
X92101250Y-169225000D01*
X94101250Y-169225000D02*
X94101250Y-165215000D01*
%TO.C,D27*%
X223070000Y-112075000D02*
X223070000Y-108065000D01*
X225070000Y-112075000D02*
X223070000Y-112075000D01*
X225070000Y-112075000D02*
X225070000Y-108065000D01*
D10*
%TO.C,MX59*%
X294896074Y-143479780D02*
X294896074Y-143949780D01*
X294896074Y-140399780D02*
X294896074Y-140629780D01*
X294396074Y-144449780D02*
X289831250Y-144449780D01*
X293346074Y-140399780D02*
X294896074Y-140399780D01*
X285946074Y-140399780D02*
X291846074Y-140399780D01*
X283946074Y-146049780D02*
X283946074Y-146289780D01*
X283946074Y-143199780D02*
X283946074Y-142399780D01*
X294396074Y-144449780D02*
G75*
G03*
X294896074Y-143949780I-1J500001D01*
G01*
X289831250Y-144449781D02*
G75*
G03*
X287536929Y-146289780I-866J-2349331D01*
G01*
X285946074Y-140399780D02*
G75*
G03*
X283946074Y-142399780I4J-2000004D01*
G01*
D12*
%TO.C,D21*%
X108770000Y-112075000D02*
X108770000Y-108065000D01*
X110770000Y-112075000D02*
X108770000Y-112075000D01*
X110770000Y-112075000D02*
X110770000Y-108065000D01*
%TO.C,D44*%
X227832500Y-131125000D02*
X227832500Y-127115000D01*
X229832500Y-131125000D02*
X227832500Y-131125000D01*
X229832500Y-131125000D02*
X229832500Y-127115000D01*
%TO.C,C4*%
X331065580Y-123835000D02*
X330784420Y-123835000D01*
X331065580Y-122815000D02*
X330784420Y-122815000D01*
%TO.C,D16*%
X351657500Y-93025000D02*
X351657500Y-89015000D01*
X353657500Y-93025000D02*
X351657500Y-93025000D01*
X353657500Y-93025000D02*
X353657500Y-89015000D01*
D10*
%TO.C,MX13*%
X273464824Y-86329780D02*
X273464824Y-86799780D01*
X273464824Y-83249780D02*
X273464824Y-83479780D01*
X272964824Y-87299780D02*
X268400000Y-87299780D01*
X271914824Y-83249780D02*
X273464824Y-83249780D01*
X264514824Y-83249780D02*
X270414824Y-83249780D01*
X262514824Y-88899780D02*
X262514824Y-89139780D01*
X262514824Y-86049780D02*
X262514824Y-85249780D01*
X272964824Y-87299780D02*
G75*
G03*
X273464824Y-86799780I-1J500001D01*
G01*
X268400000Y-87299781D02*
G75*
G03*
X266105679Y-89139780I-866J-2349331D01*
G01*
X264514824Y-83249780D02*
G75*
G03*
X262514824Y-85249780I4J-2000004D01*
G01*
D12*
%TO.C,C12*%
X323710000Y-119034420D02*
X323710000Y-119315580D01*
X322690000Y-119034420D02*
X322690000Y-119315580D01*
%TO.C,D9*%
X194495000Y-93025000D02*
X194495000Y-89015000D01*
X196495000Y-93025000D02*
X194495000Y-93025000D01*
X196495000Y-93025000D02*
X196495000Y-89015000D01*
%TO.C,D1*%
X42095000Y-93025000D02*
X42095000Y-89015000D01*
X44095000Y-93025000D02*
X42095000Y-93025000D01*
X44095000Y-93025000D02*
X44095000Y-89015000D01*
%TO.C,D47*%
X296888750Y-131125000D02*
X296888750Y-127115000D01*
X298888750Y-131125000D02*
X296888750Y-131125000D01*
X298888750Y-131125000D02*
X298888750Y-127115000D01*
D10*
%TO.C,MX21*%
X111539824Y-105379780D02*
X111539824Y-105849780D01*
X111539824Y-102299780D02*
X111539824Y-102529780D01*
X111039824Y-106349780D02*
X106475000Y-106349780D01*
X109989824Y-102299780D02*
X111539824Y-102299780D01*
X102589824Y-102299780D02*
X108489824Y-102299780D01*
X100589824Y-107949780D02*
X100589824Y-108189780D01*
X100589824Y-105099780D02*
X100589824Y-104299780D01*
X111039824Y-106349780D02*
G75*
G03*
X111539824Y-105849780I-1J500001D01*
G01*
X106475000Y-106349781D02*
G75*
G03*
X104180679Y-108189780I-866J-2349331D01*
G01*
X102589824Y-102299780D02*
G75*
G03*
X100589824Y-104299780I4J-2000004D01*
G01*
D12*
%TO.C,D10*%
X213545000Y-93025000D02*
X213545000Y-89015000D01*
X215545000Y-93025000D02*
X213545000Y-93025000D01*
X215545000Y-93025000D02*
X215545000Y-89015000D01*
%TO.C,C3*%
X319993718Y-126434079D02*
X319794907Y-126235268D01*
X320714967Y-125712830D02*
X320516156Y-125514019D01*
%TO.C,D19*%
X70670000Y-112075000D02*
X70670000Y-108065000D01*
X72670000Y-112075000D02*
X70670000Y-112075000D01*
X72670000Y-112075000D02*
X72670000Y-108065000D01*
D10*
%TO.C,MX6*%
X140114824Y-86329780D02*
X140114824Y-86799780D01*
X140114824Y-83249780D02*
X140114824Y-83479780D01*
X139614824Y-87299780D02*
X135050000Y-87299780D01*
X138564824Y-83249780D02*
X140114824Y-83249780D01*
X131164824Y-83249780D02*
X137064824Y-83249780D01*
X129164824Y-88899780D02*
X129164824Y-89139780D01*
X129164824Y-86049780D02*
X129164824Y-85249780D01*
X139614824Y-87299780D02*
G75*
G03*
X140114824Y-86799780I-1J500001D01*
G01*
X135050000Y-87299781D02*
G75*
G03*
X132755679Y-89139780I-866J-2349331D01*
G01*
X131164824Y-83249780D02*
G75*
G03*
X129164824Y-85249780I4J-2000004D01*
G01*
D12*
%TO.C,D61*%
X44476250Y-169225000D02*
X44476250Y-165215000D01*
X46476250Y-169225000D02*
X44476250Y-169225000D01*
X46476250Y-169225000D02*
X46476250Y-165215000D01*
%TO.C,D24*%
X165920000Y-112075000D02*
X165920000Y-108065000D01*
X167920000Y-112075000D02*
X165920000Y-112075000D01*
X167920000Y-112075000D02*
X167920000Y-108065000D01*
%TO.C,D48*%
X54001250Y-150175000D02*
X54001250Y-146165000D01*
X56001250Y-150175000D02*
X54001250Y-150175000D01*
X56001250Y-150175000D02*
X56001250Y-146165000D01*
%TO.C,D3*%
X80195000Y-93025000D02*
X80195000Y-89015000D01*
X82195000Y-93025000D02*
X80195000Y-93025000D01*
X82195000Y-93025000D02*
X82195000Y-89015000D01*
D10*
%TO.C,MX34*%
X373477324Y-105379780D02*
X373477324Y-105849780D01*
X373477324Y-102299780D02*
X373477324Y-102529780D01*
X372977324Y-106349780D02*
X368412500Y-106349780D01*
X371927324Y-102299780D02*
X373477324Y-102299780D01*
X364527324Y-102299780D02*
X370427324Y-102299780D01*
X362527324Y-107949780D02*
X362527324Y-108189780D01*
X362527324Y-105099780D02*
X362527324Y-104299780D01*
X372977324Y-106349780D02*
G75*
G03*
X373477324Y-105849780I-1J500001D01*
G01*
X368412500Y-106349781D02*
G75*
G03*
X366118179Y-108189780I-866J-2349331D01*
G01*
X364527324Y-102299780D02*
G75*
G03*
X362527324Y-104299780I4J-2000004D01*
G01*
D12*
%TO.C,R3*%
X329922500Y-118937742D02*
X329922500Y-119412258D01*
X328877500Y-118937742D02*
X328877500Y-119412258D01*
D10*
%TO.C,MX65*%
X156783574Y-162529780D02*
X156783574Y-162999780D01*
X156783574Y-159449780D02*
X156783574Y-159679780D01*
X156283574Y-163499780D02*
X151718750Y-163499780D01*
X155233574Y-159449780D02*
X156783574Y-159449780D01*
X147833574Y-159449780D02*
X153733574Y-159449780D01*
X145833574Y-165099780D02*
X145833574Y-165339780D01*
X145833574Y-162249780D02*
X145833574Y-161449780D01*
X156283574Y-163499780D02*
G75*
G03*
X156783574Y-162999780I-1J500001D01*
G01*
X151718750Y-163499781D02*
G75*
G03*
X149424429Y-165339780I-866J-2349331D01*
G01*
X147833574Y-159449780D02*
G75*
G03*
X145833574Y-161449780I4J-2000004D01*
G01*
D12*
%TO.C,D14*%
X299270000Y-93025000D02*
X299270000Y-89015000D01*
X301270000Y-93025000D02*
X299270000Y-93025000D01*
X301270000Y-93025000D02*
X301270000Y-89015000D01*
%TO.C,D37*%
X94482500Y-131125000D02*
X94482500Y-127115000D01*
X96482500Y-131125000D02*
X94482500Y-131125000D01*
X96482500Y-131125000D02*
X96482500Y-127115000D01*
D10*
%TO.C,MX26*%
X206789824Y-105379780D02*
X206789824Y-105849780D01*
X206789824Y-102299780D02*
X206789824Y-102529780D01*
X206289824Y-106349780D02*
X201725000Y-106349780D01*
X205239824Y-102299780D02*
X206789824Y-102299780D01*
X197839824Y-102299780D02*
X203739824Y-102299780D01*
X195839824Y-107949780D02*
X195839824Y-108189780D01*
X195839824Y-105099780D02*
X195839824Y-104299780D01*
X206289824Y-106349780D02*
G75*
G03*
X206789824Y-105849780I-1J500001D01*
G01*
X201725000Y-106349781D02*
G75*
G03*
X199430679Y-108189780I-866J-2349331D01*
G01*
X197839824Y-102299780D02*
G75*
G03*
X195839824Y-104299780I4J-2000004D01*
G01*
%TO.C,MX50*%
X106777324Y-143479780D02*
X106777324Y-143949780D01*
X106777324Y-140399780D02*
X106777324Y-140629780D01*
X106277324Y-144449780D02*
X101712500Y-144449780D01*
X105227324Y-140399780D02*
X106777324Y-140399780D01*
X97827324Y-140399780D02*
X103727324Y-140399780D01*
X95827324Y-146049780D02*
X95827324Y-146289780D01*
X95827324Y-143199780D02*
X95827324Y-142399780D01*
X106277324Y-144449780D02*
G75*
G03*
X106777324Y-143949780I-1J500001D01*
G01*
X101712500Y-144449781D02*
G75*
G03*
X99418179Y-146289780I-866J-2349331D01*
G01*
X97827324Y-140399780D02*
G75*
G03*
X95827324Y-142399780I4J-2000004D01*
G01*
%TO.C,MX64*%
X118683574Y-162529780D02*
X118683574Y-162999780D01*
X118683574Y-159449780D02*
X118683574Y-159679780D01*
X118183574Y-163499780D02*
X113618750Y-163499780D01*
X117133574Y-159449780D02*
X118683574Y-159449780D01*
X109733574Y-159449780D02*
X115633574Y-159449780D01*
X107733574Y-165099780D02*
X107733574Y-165339780D01*
X107733574Y-162249780D02*
X107733574Y-161449780D01*
X118183574Y-163499780D02*
G75*
G03*
X118683574Y-162999780I-1J500001D01*
G01*
X113618750Y-163499781D02*
G75*
G03*
X111324429Y-165339780I-866J-2349331D01*
G01*
X109733574Y-159449780D02*
G75*
G03*
X107733574Y-161449780I4J-2000004D01*
G01*
D12*
%TO.C,D39*%
X132582500Y-131125000D02*
X132582500Y-127115000D01*
X134582500Y-131125000D02*
X132582500Y-131125000D01*
X134582500Y-131125000D02*
X134582500Y-127115000D01*
%TO.C,D12*%
X251645000Y-93025000D02*
X251645000Y-89015000D01*
X253645000Y-93025000D02*
X251645000Y-93025000D01*
X253645000Y-93025000D02*
X253645000Y-89015000D01*
D10*
%TO.C,MX61*%
X47246074Y-162529780D02*
X47246074Y-162999780D01*
X47246074Y-159449780D02*
X47246074Y-159679780D01*
X46746074Y-163499780D02*
X42181250Y-163499780D01*
X45696074Y-159449780D02*
X47246074Y-159449780D01*
X38296074Y-159449780D02*
X44196074Y-159449780D01*
X36296074Y-165099780D02*
X36296074Y-165339780D01*
X36296074Y-162249780D02*
X36296074Y-161449780D01*
X46746074Y-163499780D02*
G75*
G03*
X47246074Y-162999780I-1J500001D01*
G01*
X42181250Y-163499781D02*
G75*
G03*
X39886929Y-165339780I-866J-2349331D01*
G01*
X38296074Y-159449780D02*
G75*
G03*
X36296074Y-161449780I4J-2000004D01*
G01*
%TO.C,MX1*%
X44864824Y-86329780D02*
X44864824Y-86799780D01*
X44864824Y-83249780D02*
X44864824Y-83479780D01*
X44364824Y-87299780D02*
X39800000Y-87299780D01*
X43314824Y-83249780D02*
X44864824Y-83249780D01*
X35914824Y-83249780D02*
X41814824Y-83249780D01*
X33914824Y-88899780D02*
X33914824Y-89139780D01*
X33914824Y-86049780D02*
X33914824Y-85249780D01*
X44364824Y-87299780D02*
G75*
G03*
X44864824Y-86799780I-1J500001D01*
G01*
X39800000Y-87299781D02*
G75*
G03*
X37505679Y-89139780I-866J-2349331D01*
G01*
X35914824Y-83249780D02*
G75*
G03*
X33914824Y-85249780I4J-2000004D01*
G01*
D12*
%TO.C,D30*%
X280220000Y-112075000D02*
X280220000Y-108065000D01*
X282220000Y-112075000D02*
X280220000Y-112075000D01*
X282220000Y-112075000D02*
X282220000Y-108065000D01*
D10*
%TO.C,MX48*%
X56771074Y-143479780D02*
X56771074Y-143949780D01*
X56771074Y-140399780D02*
X56771074Y-140629780D01*
X56271074Y-144449780D02*
X51706250Y-144449780D01*
X55221074Y-140399780D02*
X56771074Y-140399780D01*
X47821074Y-140399780D02*
X53721074Y-140399780D01*
X45821074Y-146049780D02*
X45821074Y-146289780D01*
X45821074Y-143199780D02*
X45821074Y-142399780D01*
X56271074Y-144449780D02*
G75*
G03*
X56771074Y-143949780I-1J500001D01*
G01*
X51706250Y-144449781D02*
G75*
G03*
X49411929Y-146289780I-866J-2349331D01*
G01*
X47821074Y-140399780D02*
G75*
G03*
X45821074Y-142399780I4J-2000004D01*
G01*
D12*
%TO.C,C5*%
X337365000Y-128515580D02*
X337365000Y-128234420D01*
X338385000Y-128515580D02*
X338385000Y-128234420D01*
D10*
%TO.C,MX36*%
X78202324Y-124429780D02*
X78202324Y-124899780D01*
X78202324Y-121349780D02*
X78202324Y-121579780D01*
X77702324Y-125399780D02*
X73137500Y-125399780D01*
X76652324Y-121349780D02*
X78202324Y-121349780D01*
X69252324Y-121349780D02*
X75152324Y-121349780D01*
X67252324Y-126999780D02*
X67252324Y-127239780D01*
X67252324Y-124149780D02*
X67252324Y-123349780D01*
X77702324Y-125399780D02*
G75*
G03*
X78202324Y-124899780I-1J500001D01*
G01*
X73137500Y-125399781D02*
G75*
G03*
X70843179Y-127239780I-866J-2349331D01*
G01*
X69252324Y-121349780D02*
G75*
G03*
X67252324Y-123349780I4J-2000004D01*
G01*
D12*
%TO.C,D53*%
X161157500Y-150175000D02*
X161157500Y-146165000D01*
X163157500Y-150175000D02*
X161157500Y-150175000D01*
X163157500Y-150175000D02*
X163157500Y-146165000D01*
D10*
%TO.C,MX35*%
X52008574Y-124429780D02*
X52008574Y-124899780D01*
X52008574Y-121349780D02*
X52008574Y-121579780D01*
X51508574Y-125399780D02*
X46943750Y-125399780D01*
X50458574Y-121349780D02*
X52008574Y-121349780D01*
X43058574Y-121349780D02*
X48958574Y-121349780D01*
X41058574Y-126999780D02*
X41058574Y-127239780D01*
X41058574Y-124149780D02*
X41058574Y-123349780D01*
X51508574Y-125399780D02*
G75*
G03*
X52008574Y-124899780I-1J500001D01*
G01*
X46943750Y-125399781D02*
G75*
G03*
X44649429Y-127239780I-866J-2349331D01*
G01*
X43058574Y-121349780D02*
G75*
G03*
X41058574Y-123349780I4J-2000004D01*
G01*
%TO.C,MX10*%
X216314824Y-86329780D02*
X216314824Y-86799780D01*
X216314824Y-83249780D02*
X216314824Y-83479780D01*
X215814824Y-87299780D02*
X211250000Y-87299780D01*
X214764824Y-83249780D02*
X216314824Y-83249780D01*
X207364824Y-83249780D02*
X213264824Y-83249780D01*
X205364824Y-88899780D02*
X205364824Y-89139780D01*
X205364824Y-86049780D02*
X205364824Y-85249780D01*
X215814824Y-87299780D02*
G75*
G03*
X216314824Y-86799780I-1J500001D01*
G01*
X211250000Y-87299781D02*
G75*
G03*
X208955679Y-89139780I-866J-2349331D01*
G01*
X207364824Y-83249780D02*
G75*
G03*
X205364824Y-85249780I4J-2000004D01*
G01*
D12*
%TO.C,D4*%
X99245000Y-93025000D02*
X99245000Y-89015000D01*
X101245000Y-93025000D02*
X99245000Y-93025000D01*
X101245000Y-93025000D02*
X101245000Y-89015000D01*
D10*
%TO.C,MX4*%
X102014824Y-86329780D02*
X102014824Y-86799780D01*
X102014824Y-83249780D02*
X102014824Y-83479780D01*
X101514824Y-87299780D02*
X96950000Y-87299780D01*
X100464824Y-83249780D02*
X102014824Y-83249780D01*
X93064824Y-83249780D02*
X98964824Y-83249780D01*
X91064824Y-88899780D02*
X91064824Y-89139780D01*
X91064824Y-86049780D02*
X91064824Y-85249780D01*
X101514824Y-87299780D02*
G75*
G03*
X102014824Y-86799780I-1J500001D01*
G01*
X96950000Y-87299781D02*
G75*
G03*
X94655679Y-89139780I-866J-2349331D01*
G01*
X93064824Y-83249780D02*
G75*
G03*
X91064824Y-85249780I4J-2000004D01*
G01*
D12*
%TO.C,D11*%
X232595000Y-93025000D02*
X232595000Y-89015000D01*
X234595000Y-93025000D02*
X232595000Y-93025000D01*
X234595000Y-93025000D02*
X234595000Y-89015000D01*
D10*
%TO.C,MX69*%
X285371074Y-162529780D02*
X285371074Y-162999780D01*
X285371074Y-159449780D02*
X285371074Y-159679780D01*
X284871074Y-163499780D02*
X280306250Y-163499780D01*
X283821074Y-159449780D02*
X285371074Y-159449780D01*
X276421074Y-159449780D02*
X282321074Y-159449780D01*
X274421074Y-165099780D02*
X274421074Y-165339780D01*
X274421074Y-162249780D02*
X274421074Y-161449780D01*
X284871074Y-163499780D02*
G75*
G03*
X285371074Y-162999780I-1J500001D01*
G01*
X280306250Y-163499781D02*
G75*
G03*
X278011929Y-165339780I-866J-2349331D01*
G01*
X276421074Y-159449780D02*
G75*
G03*
X274421074Y-161449780I4J-2000004D01*
G01*
%TO.C,MX24*%
X168689824Y-105379780D02*
X168689824Y-105849780D01*
X168689824Y-102299780D02*
X168689824Y-102529780D01*
X168189824Y-106349780D02*
X163625000Y-106349780D01*
X167139824Y-102299780D02*
X168689824Y-102299780D01*
X159739824Y-102299780D02*
X165639824Y-102299780D01*
X157739824Y-107949780D02*
X157739824Y-108189780D01*
X157739824Y-105099780D02*
X157739824Y-104299780D01*
X168189824Y-106349780D02*
G75*
G03*
X168689824Y-105849780I-1J500001D01*
G01*
X163625000Y-106349781D02*
G75*
G03*
X161330679Y-108189780I-866J-2349331D01*
G01*
X159739824Y-102299780D02*
G75*
G03*
X157739824Y-104299780I4J-2000004D01*
G01*
D12*
%TO.C,D58*%
X256407500Y-150175000D02*
X256407500Y-146165000D01*
X258407500Y-150175000D02*
X256407500Y-150175000D01*
X258407500Y-150175000D02*
X258407500Y-146165000D01*
D10*
%TO.C,MX16*%
X354427324Y-86329780D02*
X354427324Y-86799780D01*
X354427324Y-83249780D02*
X354427324Y-83479780D01*
X353927324Y-87299780D02*
X349362500Y-87299780D01*
X352877324Y-83249780D02*
X354427324Y-83249780D01*
X345477324Y-83249780D02*
X351377324Y-83249780D01*
X343477324Y-88899780D02*
X343477324Y-89139780D01*
X343477324Y-86049780D02*
X343477324Y-85249780D01*
X353927324Y-87299780D02*
G75*
G03*
X354427324Y-86799780I-1J500001D01*
G01*
X349362500Y-87299781D02*
G75*
G03*
X347068179Y-89139780I-866J-2349331D01*
G01*
X345477324Y-83249780D02*
G75*
G03*
X343477324Y-85249780I4J-2000004D01*
G01*
%TO.C,MX37*%
X97252324Y-124429780D02*
X97252324Y-124899780D01*
X97252324Y-121349780D02*
X97252324Y-121579780D01*
X96752324Y-125399780D02*
X92187500Y-125399780D01*
X95702324Y-121349780D02*
X97252324Y-121349780D01*
X88302324Y-121349780D02*
X94202324Y-121349780D01*
X86302324Y-126999780D02*
X86302324Y-127239780D01*
X86302324Y-124149780D02*
X86302324Y-123349780D01*
X96752324Y-125399780D02*
G75*
G03*
X97252324Y-124899780I-1J500001D01*
G01*
X92187500Y-125399781D02*
G75*
G03*
X89893179Y-127239780I-866J-2349331D01*
G01*
X88302324Y-121349780D02*
G75*
G03*
X86302324Y-123349780I4J-2000004D01*
G01*
%TO.C,MX66*%
X204408574Y-162529780D02*
X204408574Y-162999780D01*
X204408574Y-159449780D02*
X204408574Y-159679780D01*
X203908574Y-163499780D02*
X199343750Y-163499780D01*
X202858574Y-159449780D02*
X204408574Y-159449780D01*
X195458574Y-159449780D02*
X201358574Y-159449780D01*
X193458574Y-165099780D02*
X193458574Y-165339780D01*
X193458574Y-162249780D02*
X193458574Y-161449780D01*
X203908574Y-163499780D02*
G75*
G03*
X204408574Y-162999780I-1J500001D01*
G01*
X199343750Y-163499781D02*
G75*
G03*
X197049429Y-165339780I-866J-2349331D01*
G01*
X195458574Y-159449780D02*
G75*
G03*
X193458574Y-161449780I4J-2000004D01*
G01*
D12*
%TO.C,D73*%
X370707500Y-169225000D02*
X370707500Y-165215000D01*
X372707500Y-169225000D02*
X370707500Y-169225000D01*
X372707500Y-169225000D02*
X372707500Y-165215000D01*
D10*
%TO.C,MX43*%
X211552324Y-124429780D02*
X211552324Y-124899780D01*
X211552324Y-121349780D02*
X211552324Y-121579780D01*
X211052324Y-125399780D02*
X206487500Y-125399780D01*
X210002324Y-121349780D02*
X211552324Y-121349780D01*
X202602324Y-121349780D02*
X208502324Y-121349780D01*
X200602324Y-126999780D02*
X200602324Y-127239780D01*
X200602324Y-124149780D02*
X200602324Y-123349780D01*
X211052324Y-125399780D02*
G75*
G03*
X211552324Y-124899780I-1J500001D01*
G01*
X206487500Y-125399781D02*
G75*
G03*
X204193179Y-127239780I-866J-2349331D01*
G01*
X202602324Y-121349780D02*
G75*
G03*
X200602324Y-123349780I4J-2000004D01*
G01*
D12*
%TO.C,D62*%
X68288750Y-169225000D02*
X68288750Y-165215000D01*
X70288750Y-169225000D02*
X68288750Y-169225000D01*
X70288750Y-169225000D02*
X70288750Y-165215000D01*
D10*
%TO.C,MX12*%
X254414824Y-86329780D02*
X254414824Y-86799780D01*
X254414824Y-83249780D02*
X254414824Y-83479780D01*
X253914824Y-87299780D02*
X249350000Y-87299780D01*
X252864824Y-83249780D02*
X254414824Y-83249780D01*
X245464824Y-83249780D02*
X251364824Y-83249780D01*
X243464824Y-88899780D02*
X243464824Y-89139780D01*
X243464824Y-86049780D02*
X243464824Y-85249780D01*
X253914824Y-87299780D02*
G75*
G03*
X254414824Y-86799780I-1J500001D01*
G01*
X249350000Y-87299781D02*
G75*
G03*
X247055679Y-89139780I-866J-2349331D01*
G01*
X245464824Y-83249780D02*
G75*
G03*
X243464824Y-85249780I4J-2000004D01*
G01*
%TO.C,MX9*%
X197264824Y-86329780D02*
X197264824Y-86799780D01*
X197264824Y-83249780D02*
X197264824Y-83479780D01*
X196764824Y-87299780D02*
X192200000Y-87299780D01*
X195714824Y-83249780D02*
X197264824Y-83249780D01*
X188314824Y-83249780D02*
X194214824Y-83249780D01*
X186314824Y-88899780D02*
X186314824Y-89139780D01*
X186314824Y-86049780D02*
X186314824Y-85249780D01*
X196764824Y-87299780D02*
G75*
G03*
X197264824Y-86799780I-1J500001D01*
G01*
X192200000Y-87299781D02*
G75*
G03*
X189905679Y-89139780I-866J-2349331D01*
G01*
X188314824Y-83249780D02*
G75*
G03*
X186314824Y-85249780I4J-2000004D01*
G01*
%TO.C,MX46*%
X268702324Y-124429780D02*
X268702324Y-124899780D01*
X268702324Y-121349780D02*
X268702324Y-121579780D01*
X268202324Y-125399780D02*
X263637500Y-125399780D01*
X267152324Y-121349780D02*
X268702324Y-121349780D01*
X259752324Y-121349780D02*
X265652324Y-121349780D01*
X257752324Y-126999780D02*
X257752324Y-127239780D01*
X257752324Y-124149780D02*
X257752324Y-123349780D01*
X268202324Y-125399780D02*
G75*
G03*
X268702324Y-124899780I-1J500001D01*
G01*
X263637500Y-125399781D02*
G75*
G03*
X261343179Y-127239780I-866J-2349331D01*
G01*
X259752324Y-121349780D02*
G75*
G03*
X257752324Y-123349780I4J-2000004D01*
G01*
%TO.C,MX71*%
X335377324Y-162529780D02*
X335377324Y-162999780D01*
X335377324Y-159449780D02*
X335377324Y-159679780D01*
X334877324Y-163499780D02*
X330312500Y-163499780D01*
X333827324Y-159449780D02*
X335377324Y-159449780D01*
X326427324Y-159449780D02*
X332327324Y-159449780D01*
X324427324Y-165099780D02*
X324427324Y-165339780D01*
X324427324Y-162249780D02*
X324427324Y-161449780D01*
X334877324Y-163499780D02*
G75*
G03*
X335377324Y-162999780I-1J500001D01*
G01*
X330312500Y-163499781D02*
G75*
G03*
X328018179Y-165339780I-866J-2349331D01*
G01*
X326427324Y-159449780D02*
G75*
G03*
X324427324Y-161449780I4J-2000004D01*
G01*
D12*
%TO.C,D15*%
X332607500Y-93025000D02*
X332607500Y-89015000D01*
X334607500Y-93025000D02*
X332607500Y-93025000D01*
X334607500Y-93025000D02*
X334607500Y-89015000D01*
%TO.C,D52*%
X142107500Y-150175000D02*
X142107500Y-146165000D01*
X144107500Y-150175000D02*
X142107500Y-150175000D01*
X144107500Y-150175000D02*
X144107500Y-146165000D01*
D10*
%TO.C,MX63*%
X94871074Y-162529780D02*
X94871074Y-162999780D01*
X94871074Y-159449780D02*
X94871074Y-159679780D01*
X94371074Y-163499780D02*
X89806250Y-163499780D01*
X93321074Y-159449780D02*
X94871074Y-159449780D01*
X85921074Y-159449780D02*
X91821074Y-159449780D01*
X83921074Y-165099780D02*
X83921074Y-165339780D01*
X83921074Y-162249780D02*
X83921074Y-161449780D01*
X94371074Y-163499780D02*
G75*
G03*
X94871074Y-162999780I-1J500001D01*
G01*
X89806250Y-163499781D02*
G75*
G03*
X87511929Y-165339780I-866J-2349331D01*
G01*
X85921074Y-159449780D02*
G75*
G03*
X83921074Y-161449780I4J-2000004D01*
G01*
D12*
%TO.C,D42*%
X189732500Y-131125000D02*
X189732500Y-127115000D01*
X191732500Y-131125000D02*
X189732500Y-131125000D01*
X191732500Y-131125000D02*
X191732500Y-127115000D01*
D10*
%TO.C,MX30*%
X282989824Y-105379780D02*
X282989824Y-105849780D01*
X282989824Y-102299780D02*
X282989824Y-102529780D01*
X282489824Y-106349780D02*
X277925000Y-106349780D01*
X281439824Y-102299780D02*
X282989824Y-102299780D01*
X274039824Y-102299780D02*
X279939824Y-102299780D01*
X272039824Y-107949780D02*
X272039824Y-108189780D01*
X272039824Y-105099780D02*
X272039824Y-104299780D01*
X282489824Y-106349780D02*
G75*
G03*
X282989824Y-105849780I-1J500001D01*
G01*
X277925000Y-106349781D02*
G75*
G03*
X275630679Y-108189780I-866J-2349331D01*
G01*
X274039824Y-102299780D02*
G75*
G03*
X272039824Y-104299780I4J-2000004D01*
G01*
%TO.C,MX14*%
X302039824Y-86329780D02*
X302039824Y-86799780D01*
X302039824Y-83249780D02*
X302039824Y-83479780D01*
X301539824Y-87299780D02*
X296975000Y-87299780D01*
X300489824Y-83249780D02*
X302039824Y-83249780D01*
X293089824Y-83249780D02*
X298989824Y-83249780D01*
X291089824Y-88899780D02*
X291089824Y-89139780D01*
X291089824Y-86049780D02*
X291089824Y-85249780D01*
X301539824Y-87299780D02*
G75*
G03*
X302039824Y-86799780I-1J500001D01*
G01*
X296975000Y-87299781D02*
G75*
G03*
X294680679Y-89139780I-866J-2349331D01*
G01*
X293089824Y-83249780D02*
G75*
G03*
X291089824Y-85249780I4J-2000004D01*
G01*
D12*
%TO.C,D56*%
X218307500Y-150175000D02*
X218307500Y-146165000D01*
X220307500Y-150175000D02*
X218307500Y-150175000D01*
X220307500Y-150175000D02*
X220307500Y-146165000D01*
%TO.C,J1*%
X172270000Y-158775000D02*
X181290000Y-158775000D01*
X172270000Y-159325000D02*
X172270000Y-158775000D01*
X172270000Y-161545000D02*
X172270000Y-163295000D01*
X172270000Y-163295000D02*
X173720000Y-163295000D01*
X173720000Y-163295000D02*
X173720000Y-164185000D01*
X181290000Y-158775000D02*
X181290000Y-159325000D01*
X181290000Y-161545000D02*
X181290000Y-163295000D01*
X181290000Y-163295000D02*
X179840000Y-163295000D01*
%TO.C,D18*%
X46857500Y-112075000D02*
X46857500Y-108065000D01*
X48857500Y-112075000D02*
X46857500Y-112075000D01*
X48857500Y-112075000D02*
X48857500Y-108065000D01*
D10*
%TO.C,MX55*%
X202027324Y-143479780D02*
X202027324Y-143949780D01*
X202027324Y-140399780D02*
X202027324Y-140629780D01*
X201527324Y-144449780D02*
X196962500Y-144449780D01*
X200477324Y-140399780D02*
X202027324Y-140399780D01*
X193077324Y-140399780D02*
X198977324Y-140399780D01*
X191077324Y-146049780D02*
X191077324Y-146289780D01*
X191077324Y-143199780D02*
X191077324Y-142399780D01*
X201527324Y-144449780D02*
G75*
G03*
X202027324Y-143949780I-1J500001D01*
G01*
X196962500Y-144449781D02*
G75*
G03*
X194668179Y-146289780I-866J-2349331D01*
G01*
X193077324Y-140399780D02*
G75*
G03*
X191077324Y-142399780I4J-2000004D01*
G01*
D12*
%TO.C,D49*%
X84957500Y-150175000D02*
X84957500Y-146165000D01*
X86957500Y-150175000D02*
X84957500Y-150175000D01*
X86957500Y-150175000D02*
X86957500Y-146165000D01*
%TO.C,D32*%
X332607500Y-112075000D02*
X332607500Y-108065000D01*
X334607500Y-112075000D02*
X332607500Y-112075000D01*
X334607500Y-112075000D02*
X334607500Y-108065000D01*
D10*
%TO.C,MX23*%
X149639824Y-105379780D02*
X149639824Y-105849780D01*
X149639824Y-102299780D02*
X149639824Y-102529780D01*
X149139824Y-106349780D02*
X144575000Y-106349780D01*
X148089824Y-102299780D02*
X149639824Y-102299780D01*
X140689824Y-102299780D02*
X146589824Y-102299780D01*
X138689824Y-107949780D02*
X138689824Y-108189780D01*
X138689824Y-105099780D02*
X138689824Y-104299780D01*
X149139824Y-106349780D02*
G75*
G03*
X149639824Y-105849780I-1J500001D01*
G01*
X144575000Y-106349781D02*
G75*
G03*
X142280679Y-108189780I-866J-2349331D01*
G01*
X140689824Y-102299780D02*
G75*
G03*
X138689824Y-104299780I4J-2000004D01*
G01*
D12*
%TO.C,D51*%
X123057500Y-150175000D02*
X123057500Y-146165000D01*
X125057500Y-150175000D02*
X123057500Y-150175000D01*
X125057500Y-150175000D02*
X125057500Y-146165000D01*
D10*
%TO.C,MX2*%
X63914824Y-86329780D02*
X63914824Y-86799780D01*
X63914824Y-83249780D02*
X63914824Y-83479780D01*
X63414824Y-87299780D02*
X58850000Y-87299780D01*
X62364824Y-83249780D02*
X63914824Y-83249780D01*
X54964824Y-83249780D02*
X60864824Y-83249780D01*
X52964824Y-88899780D02*
X52964824Y-89139780D01*
X52964824Y-86049780D02*
X52964824Y-85249780D01*
X63414824Y-87299780D02*
G75*
G03*
X63914824Y-86799780I-1J500001D01*
G01*
X58850000Y-87299781D02*
G75*
G03*
X56555679Y-89139780I-866J-2349331D01*
G01*
X54964824Y-83249780D02*
G75*
G03*
X52964824Y-85249780I4J-2000004D01*
G01*
D12*
%TO.C,D38*%
X113532500Y-131125000D02*
X113532500Y-127115000D01*
X115532500Y-131125000D02*
X113532500Y-131125000D01*
X115532500Y-131125000D02*
X115532500Y-127115000D01*
%TO.C,D67*%
X234976250Y-169225000D02*
X234976250Y-165215000D01*
X236976250Y-169225000D02*
X234976250Y-169225000D01*
X236976250Y-169225000D02*
X236976250Y-165215000D01*
D10*
%TO.C,MX20*%
X92489824Y-105379780D02*
X92489824Y-105849780D01*
X92489824Y-102299780D02*
X92489824Y-102529780D01*
X91989824Y-106349780D02*
X87425000Y-106349780D01*
X90939824Y-102299780D02*
X92489824Y-102299780D01*
X83539824Y-102299780D02*
X89439824Y-102299780D01*
X81539824Y-107949780D02*
X81539824Y-108189780D01*
X81539824Y-105099780D02*
X81539824Y-104299780D01*
X91989824Y-106349780D02*
G75*
G03*
X92489824Y-105849780I-1J500001D01*
G01*
X87425000Y-106349781D02*
G75*
G03*
X85130679Y-108189780I-866J-2349331D01*
G01*
X83539824Y-102299780D02*
G75*
G03*
X81539824Y-104299780I4J-2000004D01*
G01*
D12*
%TO.C,D22*%
X127820000Y-112075000D02*
X127820000Y-108065000D01*
X129820000Y-112075000D02*
X127820000Y-112075000D01*
X129820000Y-112075000D02*
X129820000Y-108065000D01*
D10*
%TO.C,MX40*%
X154402324Y-124429780D02*
X154402324Y-124899780D01*
X154402324Y-121349780D02*
X154402324Y-121579780D01*
X153902324Y-125399780D02*
X149337500Y-125399780D01*
X152852324Y-121349780D02*
X154402324Y-121349780D01*
X145452324Y-121349780D02*
X151352324Y-121349780D01*
X143452324Y-126999780D02*
X143452324Y-127239780D01*
X143452324Y-124149780D02*
X143452324Y-123349780D01*
X153902324Y-125399780D02*
G75*
G03*
X154402324Y-124899780I-1J500001D01*
G01*
X149337500Y-125399781D02*
G75*
G03*
X147043179Y-127239780I-866J-2349331D01*
G01*
X145452324Y-121349780D02*
G75*
G03*
X143452324Y-123349780I4J-2000004D01*
G01*
%TO.C,MX7*%
X159164824Y-86329780D02*
X159164824Y-86799780D01*
X159164824Y-83249780D02*
X159164824Y-83479780D01*
X158664824Y-87299780D02*
X154100000Y-87299780D01*
X157614824Y-83249780D02*
X159164824Y-83249780D01*
X150214824Y-83249780D02*
X156114824Y-83249780D01*
X148214824Y-88899780D02*
X148214824Y-89139780D01*
X148214824Y-86049780D02*
X148214824Y-85249780D01*
X158664824Y-87299780D02*
G75*
G03*
X159164824Y-86799780I-1J500001D01*
G01*
X154100000Y-87299781D02*
G75*
G03*
X151805679Y-89139780I-866J-2349331D01*
G01*
X150214824Y-83249780D02*
G75*
G03*
X148214824Y-85249780I4J-2000004D01*
G01*
D12*
%TO.C,D36*%
X75432500Y-131125000D02*
X75432500Y-127115000D01*
X77432500Y-131125000D02*
X75432500Y-131125000D01*
X77432500Y-131125000D02*
X77432500Y-127115000D01*
D10*
%TO.C,MX52*%
X144877324Y-143479780D02*
X144877324Y-143949780D01*
X144877324Y-140399780D02*
X144877324Y-140629780D01*
X144377324Y-144449780D02*
X139812500Y-144449780D01*
X143327324Y-140399780D02*
X144877324Y-140399780D01*
X135927324Y-140399780D02*
X141827324Y-140399780D01*
X133927324Y-146049780D02*
X133927324Y-146289780D01*
X133927324Y-143199780D02*
X133927324Y-142399780D01*
X144377324Y-144449780D02*
G75*
G03*
X144877324Y-143949780I-1J500001D01*
G01*
X139812500Y-144449781D02*
G75*
G03*
X137518179Y-146289780I-866J-2349331D01*
G01*
X135927324Y-140399780D02*
G75*
G03*
X133927324Y-142399780I4J-2000004D01*
G01*
%TO.C,MX5*%
X121064824Y-86329780D02*
X121064824Y-86799780D01*
X121064824Y-83249780D02*
X121064824Y-83479780D01*
X120564824Y-87299780D02*
X116000000Y-87299780D01*
X119514824Y-83249780D02*
X121064824Y-83249780D01*
X112114824Y-83249780D02*
X118014824Y-83249780D01*
X110114824Y-88899780D02*
X110114824Y-89139780D01*
X110114824Y-86049780D02*
X110114824Y-85249780D01*
X120564824Y-87299780D02*
G75*
G03*
X121064824Y-86799780I-1J500001D01*
G01*
X116000000Y-87299781D02*
G75*
G03*
X113705679Y-89139780I-866J-2349331D01*
G01*
X112114824Y-83249780D02*
G75*
G03*
X110114824Y-85249780I4J-2000004D01*
G01*
D12*
%TO.C,D7*%
X156395000Y-93025000D02*
X156395000Y-89015000D01*
X158395000Y-93025000D02*
X156395000Y-93025000D01*
X158395000Y-93025000D02*
X158395000Y-89015000D01*
%TO.C,Y1*%
X327950000Y-117175000D02*
X327950000Y-121175000D01*
X324650000Y-117175000D02*
X327950000Y-117175000D01*
D10*
%TO.C,MX11*%
X235364824Y-86329780D02*
X235364824Y-86799780D01*
X235364824Y-83249780D02*
X235364824Y-83479780D01*
X234864824Y-87299780D02*
X230300000Y-87299780D01*
X233814824Y-83249780D02*
X235364824Y-83249780D01*
X226414824Y-83249780D02*
X232314824Y-83249780D01*
X224414824Y-88899780D02*
X224414824Y-89139780D01*
X224414824Y-86049780D02*
X224414824Y-85249780D01*
X234864824Y-87299780D02*
G75*
G03*
X235364824Y-86799780I-1J500001D01*
G01*
X230300000Y-87299781D02*
G75*
G03*
X228005679Y-89139780I-866J-2349331D01*
G01*
X226414824Y-83249780D02*
G75*
G03*
X224414824Y-85249780I4J-2000004D01*
G01*
D12*
%TO.C,U2*%
X333917588Y-126478858D02*
X332967588Y-126478858D01*
X324647588Y-126478858D02*
X324647588Y-125138858D01*
X323697588Y-126478858D02*
X324647588Y-126478858D01*
X333917588Y-127428858D02*
X333917588Y-126478858D01*
X323697588Y-127428858D02*
X323697588Y-126478858D01*
X333917588Y-135748858D02*
X333917588Y-136698858D01*
X323697588Y-135748858D02*
X323697588Y-136698858D01*
X333917588Y-136698858D02*
X332967588Y-136698858D01*
X323697588Y-136698858D02*
X324647588Y-136698858D01*
%TO.C,C1*%
X363115580Y-143335000D02*
X362834420Y-143335000D01*
X363115580Y-142315000D02*
X362834420Y-142315000D01*
D10*
%TO.C,MX72*%
X354427324Y-162529780D02*
X354427324Y-162999780D01*
X354427324Y-159449780D02*
X354427324Y-159679780D01*
X353927324Y-163499780D02*
X349362500Y-163499780D01*
X352877324Y-159449780D02*
X354427324Y-159449780D01*
X345477324Y-159449780D02*
X351377324Y-159449780D01*
X343477324Y-165099780D02*
X343477324Y-165339780D01*
X343477324Y-162249780D02*
X343477324Y-161449780D01*
X353927324Y-163499780D02*
G75*
G03*
X354427324Y-162999780I-1J500001D01*
G01*
X349362500Y-163499781D02*
G75*
G03*
X347068179Y-165339780I-866J-2349331D01*
G01*
X345477324Y-159449780D02*
G75*
G03*
X343477324Y-161449780I4J-2000004D01*
G01*
%TO.C,MX25*%
X187739824Y-105379780D02*
X187739824Y-105849780D01*
X187739824Y-102299780D02*
X187739824Y-102529780D01*
X187239824Y-106349780D02*
X182675000Y-106349780D01*
X186189824Y-102299780D02*
X187739824Y-102299780D01*
X178789824Y-102299780D02*
X184689824Y-102299780D01*
X176789824Y-107949780D02*
X176789824Y-108189780D01*
X176789824Y-105099780D02*
X176789824Y-104299780D01*
X187239824Y-106349780D02*
G75*
G03*
X187739824Y-105849780I-1J500001D01*
G01*
X182675000Y-106349781D02*
G75*
G03*
X180380679Y-108189780I-866J-2349331D01*
G01*
X178789824Y-102299780D02*
G75*
G03*
X176789824Y-104299780I4J-2000004D01*
G01*
%TO.C,MX32*%
X335377324Y-105379780D02*
X335377324Y-105849780D01*
X335377324Y-102299780D02*
X335377324Y-102529780D01*
X334877324Y-106349780D02*
X330312500Y-106349780D01*
X333827324Y-102299780D02*
X335377324Y-102299780D01*
X326427324Y-102299780D02*
X332327324Y-102299780D01*
X324427324Y-107949780D02*
X324427324Y-108189780D01*
X324427324Y-105099780D02*
X324427324Y-104299780D01*
X334877324Y-106349780D02*
G75*
G03*
X335377324Y-105849780I-1J500001D01*
G01*
X330312500Y-106349781D02*
G75*
G03*
X328018179Y-108189780I-866J-2349331D01*
G01*
X326427324Y-102299780D02*
G75*
G03*
X324427324Y-104299780I4J-2000004D01*
G01*
D12*
%TO.C,D50*%
X104007500Y-150175000D02*
X104007500Y-146165000D01*
X106007500Y-150175000D02*
X104007500Y-150175000D01*
X106007500Y-150175000D02*
X106007500Y-146165000D01*
D10*
%TO.C,MX42*%
X192502324Y-124429780D02*
X192502324Y-124899780D01*
X192502324Y-121349780D02*
X192502324Y-121579780D01*
X192002324Y-125399780D02*
X187437500Y-125399780D01*
X190952324Y-121349780D02*
X192502324Y-121349780D01*
X183552324Y-121349780D02*
X189452324Y-121349780D01*
X181552324Y-126999780D02*
X181552324Y-127239780D01*
X181552324Y-124149780D02*
X181552324Y-123349780D01*
X192002324Y-125399780D02*
G75*
G03*
X192502324Y-124899780I-1J500001D01*
G01*
X187437500Y-125399781D02*
G75*
G03*
X185143179Y-127239780I-866J-2349331D01*
G01*
X183552324Y-121349780D02*
G75*
G03*
X181552324Y-123349780I4J-2000004D01*
G01*
D12*
%TO.C,D35*%
X49238750Y-131125000D02*
X49238750Y-127115000D01*
X51238750Y-131125000D02*
X49238750Y-131125000D01*
X51238750Y-131125000D02*
X51238750Y-127115000D01*
D10*
%TO.C,MX39*%
X135352324Y-124429780D02*
X135352324Y-124899780D01*
X135352324Y-121349780D02*
X135352324Y-121579780D01*
X134852324Y-125399780D02*
X130287500Y-125399780D01*
X133802324Y-121349780D02*
X135352324Y-121349780D01*
X126402324Y-121349780D02*
X132302324Y-121349780D01*
X124402324Y-126999780D02*
X124402324Y-127239780D01*
X124402324Y-124149780D02*
X124402324Y-123349780D01*
X134852324Y-125399780D02*
G75*
G03*
X135352324Y-124899780I-1J500001D01*
G01*
X130287500Y-125399781D02*
G75*
G03*
X127993179Y-127239780I-866J-2349331D01*
G01*
X126402324Y-121349780D02*
G75*
G03*
X124402324Y-123349780I4J-2000004D01*
G01*
D12*
%TO.C,R2*%
X325177500Y-141612258D02*
X325177500Y-141137742D01*
X326222500Y-141612258D02*
X326222500Y-141137742D01*
D10*
%TO.C,MX73*%
X373477324Y-162529780D02*
X373477324Y-162999780D01*
X373477324Y-159449780D02*
X373477324Y-159679780D01*
X372977324Y-163499780D02*
X368412500Y-163499780D01*
X371927324Y-159449780D02*
X373477324Y-159449780D01*
X364527324Y-159449780D02*
X370427324Y-159449780D01*
X362527324Y-165099780D02*
X362527324Y-165339780D01*
X362527324Y-162249780D02*
X362527324Y-161449780D01*
X372977324Y-163499780D02*
G75*
G03*
X373477324Y-162999780I-1J500001D01*
G01*
X368412500Y-163499781D02*
G75*
G03*
X366118179Y-165339780I-866J-2349331D01*
G01*
X364527324Y-159449780D02*
G75*
G03*
X362527324Y-161449780I4J-2000004D01*
G01*
%TO.C,MX47*%
X299658574Y-124429780D02*
X299658574Y-124899780D01*
X299658574Y-121349780D02*
X299658574Y-121579780D01*
X299158574Y-125399780D02*
X294593750Y-125399780D01*
X298108574Y-121349780D02*
X299658574Y-121349780D01*
X290708574Y-121349780D02*
X296608574Y-121349780D01*
X288708574Y-126999780D02*
X288708574Y-127239780D01*
X288708574Y-124149780D02*
X288708574Y-123349780D01*
X299158574Y-125399780D02*
G75*
G03*
X299658574Y-124899780I-1J500001D01*
G01*
X294593750Y-125399781D02*
G75*
G03*
X292299429Y-127239780I-866J-2349331D01*
G01*
X290708574Y-121349780D02*
G75*
G03*
X288708574Y-123349780I4J-2000004D01*
G01*
%TO.C,MX49*%
X87727324Y-143479780D02*
X87727324Y-143949780D01*
X87727324Y-140399780D02*
X87727324Y-140629780D01*
X87227324Y-144449780D02*
X82662500Y-144449780D01*
X86177324Y-140399780D02*
X87727324Y-140399780D01*
X78777324Y-140399780D02*
X84677324Y-140399780D01*
X76777324Y-146049780D02*
X76777324Y-146289780D01*
X76777324Y-143199780D02*
X76777324Y-142399780D01*
X87227324Y-144449780D02*
G75*
G03*
X87727324Y-143949780I-1J500001D01*
G01*
X82662500Y-144449781D02*
G75*
G03*
X80368179Y-146289780I-866J-2349331D01*
G01*
X78777324Y-140399780D02*
G75*
G03*
X76777324Y-142399780I4J-2000004D01*
G01*
D12*
%TO.C,D28*%
X242120000Y-112075000D02*
X242120000Y-108065000D01*
X244120000Y-112075000D02*
X242120000Y-112075000D01*
X244120000Y-112075000D02*
X244120000Y-108065000D01*
%TO.C,D8*%
X175445000Y-93025000D02*
X175445000Y-89015000D01*
X177445000Y-93025000D02*
X175445000Y-93025000D01*
X177445000Y-93025000D02*
X177445000Y-89015000D01*
D10*
%TO.C,MX28*%
X244889824Y-105379780D02*
X244889824Y-105849780D01*
X244889824Y-102299780D02*
X244889824Y-102529780D01*
X244389824Y-106349780D02*
X239825000Y-106349780D01*
X243339824Y-102299780D02*
X244889824Y-102299780D01*
X235939824Y-102299780D02*
X241839824Y-102299780D01*
X233939824Y-107949780D02*
X233939824Y-108189780D01*
X233939824Y-105099780D02*
X233939824Y-104299780D01*
X244389824Y-106349780D02*
G75*
G03*
X244889824Y-105849780I-1J500001D01*
G01*
X239825000Y-106349781D02*
G75*
G03*
X237530679Y-108189780I-866J-2349331D01*
G01*
X235939824Y-102299780D02*
G75*
G03*
X233939824Y-104299780I4J-2000004D01*
G01*
D12*
%TO.C,D6*%
X137345000Y-93025000D02*
X137345000Y-89015000D01*
X139345000Y-93025000D02*
X137345000Y-93025000D01*
X139345000Y-93025000D02*
X139345000Y-89015000D01*
%TO.C,J3*%
X311305000Y-147045000D02*
X308645000Y-147045000D01*
X311305000Y-144445000D02*
X311305000Y-147045000D01*
X311305000Y-144445000D02*
X308645000Y-144445000D01*
X311305000Y-143175000D02*
X311305000Y-141845000D01*
X311305000Y-141845000D02*
X309975000Y-141845000D01*
X308645000Y-144445000D02*
X308645000Y-147045000D01*
%TO.C,D57*%
X237357500Y-150175000D02*
X237357500Y-146165000D01*
X239357500Y-150175000D02*
X237357500Y-150175000D01*
X239357500Y-150175000D02*
X239357500Y-146165000D01*
%TO.C,D26*%
X204020000Y-112075000D02*
X204020000Y-108065000D01*
X206020000Y-112075000D02*
X204020000Y-112075000D01*
X206020000Y-112075000D02*
X206020000Y-108065000D01*
%TO.C,D65*%
X154013750Y-169225000D02*
X154013750Y-165215000D01*
X156013750Y-169225000D02*
X154013750Y-169225000D01*
X156013750Y-169225000D02*
X156013750Y-165215000D01*
%TO.C,D46*%
X265932500Y-131125000D02*
X265932500Y-127115000D01*
X267932500Y-131125000D02*
X265932500Y-131125000D01*
X267932500Y-131125000D02*
X267932500Y-127115000D01*
D10*
%TO.C,MX54*%
X182977324Y-143479780D02*
X182977324Y-143949780D01*
X182977324Y-140399780D02*
X182977324Y-140629780D01*
X182477324Y-144449780D02*
X177912500Y-144449780D01*
X181427324Y-140399780D02*
X182977324Y-140399780D01*
X174027324Y-140399780D02*
X179927324Y-140399780D01*
X172027324Y-146049780D02*
X172027324Y-146289780D01*
X172027324Y-143199780D02*
X172027324Y-142399780D01*
X182477324Y-144449780D02*
G75*
G03*
X182977324Y-143949780I-1J500001D01*
G01*
X177912500Y-144449781D02*
G75*
G03*
X175618179Y-146289780I-866J-2349331D01*
G01*
X174027324Y-140399780D02*
G75*
G03*
X172027324Y-142399780I4J-2000004D01*
G01*
D12*
%TO.C,D23*%
X146870000Y-112075000D02*
X146870000Y-108065000D01*
X148870000Y-112075000D02*
X146870000Y-112075000D01*
X148870000Y-112075000D02*
X148870000Y-108065000D01*
%TO.C,D13*%
X270695000Y-93025000D02*
X270695000Y-89015000D01*
X272695000Y-93025000D02*
X270695000Y-93025000D01*
X272695000Y-93025000D02*
X272695000Y-89015000D01*
D10*
%TO.C,MX62*%
X71058574Y-162529780D02*
X71058574Y-162999780D01*
X71058574Y-159449780D02*
X71058574Y-159679780D01*
X70558574Y-163499780D02*
X65993750Y-163499780D01*
X69508574Y-159449780D02*
X71058574Y-159449780D01*
X62108574Y-159449780D02*
X68008574Y-159449780D01*
X60108574Y-165099780D02*
X60108574Y-165339780D01*
X60108574Y-162249780D02*
X60108574Y-161449780D01*
X70558574Y-163499780D02*
G75*
G03*
X71058574Y-162999780I-1J500001D01*
G01*
X65993750Y-163499781D02*
G75*
G03*
X63699429Y-165339780I-866J-2349331D01*
G01*
X62108574Y-159449780D02*
G75*
G03*
X60108574Y-161449780I4J-2000004D01*
G01*
%TO.C,MX56*%
X221077324Y-143479780D02*
X221077324Y-143949780D01*
X221077324Y-140399780D02*
X221077324Y-140629780D01*
X220577324Y-144449780D02*
X216012500Y-144449780D01*
X219527324Y-140399780D02*
X221077324Y-140399780D01*
X212127324Y-140399780D02*
X218027324Y-140399780D01*
X210127324Y-146049780D02*
X210127324Y-146289780D01*
X210127324Y-143199780D02*
X210127324Y-142399780D01*
X220577324Y-144449780D02*
G75*
G03*
X221077324Y-143949780I-1J500001D01*
G01*
X216012500Y-144449781D02*
G75*
G03*
X213718179Y-146289780I-866J-2349331D01*
G01*
X212127324Y-140399780D02*
G75*
G03*
X210127324Y-142399780I4J-2000004D01*
G01*
%TO.C,MX29*%
X263939824Y-105379780D02*
X263939824Y-105849780D01*
X263939824Y-102299780D02*
X263939824Y-102529780D01*
X263439824Y-106349780D02*
X258875000Y-106349780D01*
X262389824Y-102299780D02*
X263939824Y-102299780D01*
X254989824Y-102299780D02*
X260889824Y-102299780D01*
X252989824Y-107949780D02*
X252989824Y-108189780D01*
X252989824Y-105099780D02*
X252989824Y-104299780D01*
X263439824Y-106349780D02*
G75*
G03*
X263939824Y-105849780I-1J500001D01*
G01*
X258875000Y-106349781D02*
G75*
G03*
X256580679Y-108189780I-866J-2349331D01*
G01*
X254989824Y-102299780D02*
G75*
G03*
X252989824Y-104299780I4J-2000004D01*
G01*
%TO.C,MX19*%
X73439824Y-105379780D02*
X73439824Y-105849780D01*
X73439824Y-102299780D02*
X73439824Y-102529780D01*
X72939824Y-106349780D02*
X68375000Y-106349780D01*
X71889824Y-102299780D02*
X73439824Y-102299780D01*
X64489824Y-102299780D02*
X70389824Y-102299780D01*
X62489824Y-107949780D02*
X62489824Y-108189780D01*
X62489824Y-105099780D02*
X62489824Y-104299780D01*
X72939824Y-106349780D02*
G75*
G03*
X73439824Y-105849780I-1J500001D01*
G01*
X68375000Y-106349781D02*
G75*
G03*
X66080679Y-108189780I-866J-2349331D01*
G01*
X64489824Y-102299780D02*
G75*
G03*
X62489824Y-104299780I4J-2000004D01*
G01*
D12*
%TO.C,D55*%
X199257500Y-150175000D02*
X199257500Y-146165000D01*
X201257500Y-150175000D02*
X199257500Y-150175000D01*
X201257500Y-150175000D02*
X201257500Y-146165000D01*
D10*
%TO.C,MX8*%
X178214824Y-86329780D02*
X178214824Y-86799780D01*
X178214824Y-83249780D02*
X178214824Y-83479780D01*
X177714824Y-87299780D02*
X173150000Y-87299780D01*
X176664824Y-83249780D02*
X178214824Y-83249780D01*
X169264824Y-83249780D02*
X175164824Y-83249780D01*
X167264824Y-88899780D02*
X167264824Y-89139780D01*
X167264824Y-86049780D02*
X167264824Y-85249780D01*
X177714824Y-87299780D02*
G75*
G03*
X178214824Y-86799780I-1J500001D01*
G01*
X173150000Y-87299781D02*
G75*
G03*
X170855679Y-89139780I-866J-2349331D01*
G01*
X169264824Y-83249780D02*
G75*
G03*
X167264824Y-85249780I4J-2000004D01*
G01*
D12*
%TO.C,D5*%
X118295000Y-93025000D02*
X118295000Y-89015000D01*
X120295000Y-93025000D02*
X118295000Y-93025000D01*
X120295000Y-93025000D02*
X120295000Y-89015000D01*
D10*
%TO.C,MX51*%
X125827324Y-143479780D02*
X125827324Y-143949780D01*
X125827324Y-140399780D02*
X125827324Y-140629780D01*
X125327324Y-144449780D02*
X120762500Y-144449780D01*
X124277324Y-140399780D02*
X125827324Y-140399780D01*
X116877324Y-140399780D02*
X122777324Y-140399780D01*
X114877324Y-146049780D02*
X114877324Y-146289780D01*
X114877324Y-143199780D02*
X114877324Y-142399780D01*
X125327324Y-144449780D02*
G75*
G03*
X125827324Y-143949780I-1J500001D01*
G01*
X120762500Y-144449781D02*
G75*
G03*
X118468179Y-146289780I-866J-2349331D01*
G01*
X116877324Y-140399780D02*
G75*
G03*
X114877324Y-142399780I4J-2000004D01*
G01*
%TO.C,MX38*%
X116302324Y-124429780D02*
X116302324Y-124899780D01*
X116302324Y-121349780D02*
X116302324Y-121579780D01*
X115802324Y-125399780D02*
X111237500Y-125399780D01*
X114752324Y-121349780D02*
X116302324Y-121349780D01*
X107352324Y-121349780D02*
X113252324Y-121349780D01*
X105352324Y-126999780D02*
X105352324Y-127239780D01*
X105352324Y-124149780D02*
X105352324Y-123349780D01*
X115802324Y-125399780D02*
G75*
G03*
X116302324Y-124899780I-1J500001D01*
G01*
X111237500Y-125399781D02*
G75*
G03*
X108943179Y-127239780I-866J-2349331D01*
G01*
X107352324Y-121349780D02*
G75*
G03*
X105352324Y-123349780I4J-2000004D01*
G01*
D12*
%TO.C,D54*%
X180207500Y-150175000D02*
X180207500Y-146165000D01*
X182207500Y-150175000D02*
X180207500Y-150175000D01*
X182207500Y-150175000D02*
X182207500Y-146165000D01*
%TO.C,D60*%
X351657500Y-150175000D02*
X351657500Y-146165000D01*
X353657500Y-150175000D02*
X351657500Y-150175000D01*
X353657500Y-150175000D02*
X353657500Y-146165000D01*
%TO.C,C6*%
X336410000Y-138134420D02*
X336410000Y-138415580D01*
X335390000Y-138134420D02*
X335390000Y-138415580D01*
D10*
%TO.C,MX70*%
X309183574Y-162529780D02*
X309183574Y-162999780D01*
X309183574Y-159449780D02*
X309183574Y-159679780D01*
X308683574Y-163499780D02*
X304118750Y-163499780D01*
X307633574Y-159449780D02*
X309183574Y-159449780D01*
X300233574Y-159449780D02*
X306133574Y-159449780D01*
X298233574Y-165099780D02*
X298233574Y-165339780D01*
X298233574Y-162249780D02*
X298233574Y-161449780D01*
X308683574Y-163499780D02*
G75*
G03*
X309183574Y-162999780I-1J500001D01*
G01*
X304118750Y-163499781D02*
G75*
G03*
X301824429Y-165339780I-866J-2349331D01*
G01*
X300233574Y-159449780D02*
G75*
G03*
X298233574Y-161449780I4J-2000004D01*
G01*
D12*
%TO.C,D41*%
X170682500Y-131125000D02*
X170682500Y-127115000D01*
X172682500Y-131125000D02*
X170682500Y-131125000D01*
X172682500Y-131125000D02*
X172682500Y-127115000D01*
D10*
%TO.C,MX57*%
X240127324Y-143479780D02*
X240127324Y-143949780D01*
X240127324Y-140399780D02*
X240127324Y-140629780D01*
X239627324Y-144449780D02*
X235062500Y-144449780D01*
X238577324Y-140399780D02*
X240127324Y-140399780D01*
X231177324Y-140399780D02*
X237077324Y-140399780D01*
X229177324Y-146049780D02*
X229177324Y-146289780D01*
X229177324Y-143199780D02*
X229177324Y-142399780D01*
X239627324Y-144449780D02*
G75*
G03*
X240127324Y-143949780I-1J500001D01*
G01*
X235062500Y-144449781D02*
G75*
G03*
X232768179Y-146289780I-866J-2349331D01*
G01*
X231177324Y-140399780D02*
G75*
G03*
X229177324Y-142399780I4J-2000004D01*
G01*
%TO.C,MX33*%
X354427324Y-105379780D02*
X354427324Y-105849780D01*
X354427324Y-102299780D02*
X354427324Y-102529780D01*
X353927324Y-106349780D02*
X349362500Y-106349780D01*
X352877324Y-102299780D02*
X354427324Y-102299780D01*
X345477324Y-102299780D02*
X351377324Y-102299780D01*
X343477324Y-107949780D02*
X343477324Y-108189780D01*
X343477324Y-105099780D02*
X343477324Y-104299780D01*
X353927324Y-106349780D02*
G75*
G03*
X354427324Y-105849780I-1J500001D01*
G01*
X349362500Y-106349781D02*
G75*
G03*
X347068179Y-108189780I-866J-2349331D01*
G01*
X345477324Y-102299780D02*
G75*
G03*
X343477324Y-104299780I4J-2000004D01*
G01*
D12*
%TO.C,D20*%
X89720000Y-112075000D02*
X89720000Y-108065000D01*
X91720000Y-112075000D02*
X89720000Y-112075000D01*
X91720000Y-112075000D02*
X91720000Y-108065000D01*
%TO.C,C8*%
X362834420Y-151265000D02*
X363115580Y-151265000D01*
X362834420Y-152285000D02*
X363115580Y-152285000D01*
%TD*%
M02*
