M48
; DRILL file {KiCad 7.0.10} date Sa 20 Apr 2024 21:15:06 CEST
; FORMAT={-:-/ absolute / inch / decimal}
; #@! TF.CreationDate,2024-04-20T21:15:06+02:00
; #@! TF.GenerationSoftware,Kicad,Pcbnew,7.0.10
; #@! TF.FileFunction,Plated,1,2,PTH
FMAT,2
INCH
; #@! TA.AperFunction,Plated,PTH,ViaDrill
T1C0.0118
; #@! TA.AperFunction,Plated,PTH,ViaDrill
T2C0.0157
; #@! TA.AperFunction,Plated,PTH,ComponentDrill
T3C0.0394
; #@! TA.AperFunction,Plated,PTH,ComponentDrill
T4C0.1181
; #@! TA.AperFunction,Plated,PTH,ComponentDrill
T5C0.1200
%
G90
G05
T1
X1.285Y-3.5443
X1.3474Y-4.1959
X1.3711Y-4.9419
X1.3789Y-5.6939
X1.3789Y-6.3061
X2.0344Y-3.7667
X2.035Y-3.5443
X2.2116Y-6.377
X2.3258Y-4.1933
X2.5128Y-4.9433
X2.7673Y-5.6933
X2.7844Y-3.7943
X2.785Y-3.5443
X3.0758Y-4.1933
X3.2538Y-6.3317
X3.2628Y-4.9433
X3.5344Y-3.5443
X3.6368Y-5.6939
X3.8258Y-4.1939
X3.8258Y-4.4852
X4.0128Y-4.9439
X4.1919Y-6.314
X4.2844Y-3.5443
X4.3868Y-5.6939
X4.5758Y-4.1939
X4.5758Y-4.5089
X4.7628Y-4.9439
X5.0344Y-3.5443
X5.1368Y-5.6939
X5.3238Y-4.1939
X5.3238Y-4.5325
X5.5128Y-4.9439
X5.6919Y-6.3278
X5.7844Y-3.5443
X5.8868Y-5.6939
X6.0738Y-4.1939
X6.0738Y-4.5561
X6.2628Y-4.9439
X6.5344Y-3.5443
X6.6368Y-5.6073
X6.8238Y-4.1939
X7.0128Y-4.5797
X7.0128Y-4.9439
X7.2844Y-3.5443
X7.3868Y-5.6939
X7.5443Y-6.3474
X7.5738Y-4.1939
X7.5738Y-4.6033
X7.7628Y-4.9439
X8.0344Y-3.5443
X8.1368Y-5.6939
X8.3238Y-4.1939
X8.5108Y-4.9439
X8.5108Y-5.1919
X8.7844Y-3.5443
X8.8789Y-6.3317
X8.8868Y-5.6939
X9.0738Y-4.1939
X9.2628Y-4.9439
X9.2628Y-5.2234
X9.5344Y-3.5443
X9.6368Y-5.6939
X9.8159Y-6.3514
X9.8238Y-4.1939
X9.9833Y-5.1644
X10.0108Y-4.9439
X10.2844Y-3.5443
X10.4675Y-5.4006
X10.5738Y-4.1939
X10.6841Y-5.1356
X10.7538Y-6.3671
X10.7923Y-3.6762
X10.8423Y-5.8856
X11.001Y-4.3907
X11.1289Y-5.5856
X11.1289Y-5.7943
X11.2707Y-5.4439
X11.3159Y-4.8179
X11.3159Y-5.0443
X11.4104Y-3.5443
X11.4518Y-4.1919
X11.5502Y-5.1644
X11.5561Y-6.4439
X12.4281Y-5.1708
X12.4311Y-4.1299
X12.4311Y-4.873
X12.4419Y-5.8848
X12.4695Y-3.8858
X12.4695Y-4.873
X12.5551Y-5.998
X12.5945Y-3.8858
X12.622Y-4.75
X12.7215Y-3.5443
X12.7215Y-4.0837
X12.7215Y-6.5443
X12.7215Y-6.7195
X12.7234Y-5.9439
X12.7234Y-6.3258
X12.8061Y-5.125
X13.0713Y-5.1708
X13.3415Y-5.4203
X13.3415Y-6.247
X13.3494Y-4.3258
X13.3494Y-5.1132
X13.377Y-5.7628
X13.3789Y-6.247
X13.3848Y-4.4419
X13.3848Y-5.1132
X13.4715Y-6.5443
X13.4715Y-6.69
X13.4734Y-3.5443
X13.4734Y-4.0856
X13.4734Y-5.7943
X13.4734Y-6.3455
X14.0591Y-4.8878
X14.1211Y-5.3927
X14.1211Y-5.8061
X14.2215Y-6.5443
X14.2234Y-3.5443
X14.2234Y-4.0955
X14.3093Y-5.1388
X14.3396Y-6.7333
X14.8189Y-4.688
X14.8189Y-5.0925
T2
X1.2333Y-3.8967
X1.2746Y-4.6644
X1.31Y-5.747
X1.3179Y-3.2963
X1.4045Y-6.7224
X1.4518Y-3.6073
X1.4843Y-3.8711
X1.5089Y-4.5896
X1.56Y-6.31
X1.7697Y-5.3327
X1.8278Y-3.686
X1.8524Y-6.0384
X2.0472Y-3.3012
X2.0787Y-6.4232
X2.127Y-4.2175
X2.1476Y-4.5965
X2.2077Y-3.5797
X2.2313Y-6.0236
X2.3002Y-5.3022
X2.3179Y-4.9577
X2.3238Y-3.688
X2.3593Y-6.7815
X2.4616Y-6.2953
X2.4813Y-6.5896
X2.4833Y-3.875
X2.5089Y-5.7224
X2.5758Y-4.06
X2.5856Y-4.3356
X2.6585Y-3.4419
X2.7421Y-5.2982
X2.751Y-4.8061
X2.7687Y-5.0896
X2.9478Y-3.5758
X2.9813Y-3.9104
X3.0069Y-4.2195
X3.0128Y-6.7884
X3.0157Y-6.0384
X3.0226Y-6.5069
X3.0738Y-3.686
X3.1063Y-5.3504
X3.1368Y-5.8396
X3.19Y-4.9715
X3.3278Y-4.06
X3.3356Y-4.3396
X3.3514Y-4.4744
X3.3711Y-3.8622
X3.4222Y-6.5856
X3.4331Y-5.2707
X3.4606Y-6.3071
X3.5167Y-4.8081
X3.5226Y-3.3012
X3.5226Y-5.0935
X3.6978Y-3.5758
X3.747Y-4.19
X3.7697Y-6.7746
X3.7874Y-5.2953
X3.8238Y-3.6841
X3.8868Y-5.8396
X3.9222Y-6.062
X3.9321Y-4.9478
X3.935Y-3.8622
X3.9498Y-6.5285
X4.003Y-4.435
X4.0679Y-4.0659
X4.0758Y-4.3356
X4.1663Y-3.4321
X4.1998Y-4.6378
X4.2244Y-5.2874
X4.2628Y-5.0896
X4.3632Y-6.5896
X4.3839Y-6.2923
X4.4498Y-3.5758
X4.4852Y-6.7884
X4.501Y-4.1919
X4.5758Y-3.686
X4.5856Y-5.2844
X4.6329Y-5.8356
X4.6978Y-4.9636
X4.7037Y-3.8563
X4.7884Y-4.435
X4.8258Y-4.3376
X4.8337Y-4.062
X4.9085Y-3.438
X4.9193Y-6.1004
X4.9852Y-5.2874
X5.0148Y-5.0896
X5.0325Y-4.6476
X5.1516Y-6.7953
X5.19Y-3.2844
X5.1998Y-3.5758
X5.2106Y-6.4272
X5.249Y-4.1959
X5.2874Y-5.2598
X5.3258Y-3.686
X5.3848Y-5.8396
X5.4409Y-3.8622
X5.4498Y-4.9557
X5.4813Y-4.4341
X5.5856Y-4.0679
X5.5915Y-4.3396
X5.6683Y-3.4419
X5.7057Y-6.0463
X5.7648Y-5.0896
X5.7943Y-5.3091
X5.8632Y-6.5896
X5.8957Y-4.6988
X5.8986Y-6.7638
X5.9055Y-6.2953
X5.9498Y-3.5758
X5.9892Y-4.247
X6.0738Y-3.686
X6.1407Y-5.8376
X6.1939Y-6.0758
X6.1978Y-4.9557
X6.2215Y-3.8809
X6.3081Y-4.4341
X6.3199Y-4.0679
X6.3317Y-4.3396
X6.3533Y-5.3258
X6.4183Y-3.44
X6.4715Y-6.4478
X6.5187Y-5.0896
X6.5827Y-4.6575
X6.6762Y-3.2776
X6.7018Y-3.5837
X6.751Y-4.1939
X6.8051Y-5.3228
X6.8238Y-3.686
X6.8533Y-6.753
X6.8888Y-5.8337
X6.8986Y-6.0344
X6.9006Y-6.3612
X6.9478Y-4.9518
X6.9596Y-3.875
X7.0778Y-4.3356
X7.0935Y-4.06
X7.1486Y-4.437
X7.1722Y-3.4222
X7.2215Y-5.3159
X7.2687Y-5.0856
X7.3258Y-4.6841
X7.3602Y-6.437
X7.4183Y-5.9616
X7.4537Y-3.5837
X7.4754Y-3.2805
X7.5049Y-4.1959
X7.5719Y-3.686
X7.6407Y-5.8356
X7.6801Y-6.7884
X7.69Y-4.9498
X7.7136Y-5.9616
X7.7146Y-6.2106
X7.7352Y-5.3435
X7.7392Y-6.5856
X7.7421Y-4.4341
X7.7461Y-3.8622
X7.8199Y-4.3376
X7.8337Y-4.064
X7.9183Y-3.4281
X8.0167Y-5.0856
X8.0709Y-4.6909
X8.2037Y-3.5817
X8.2431Y-4.2037
X8.3238Y-3.688
X8.3504Y-5.3396
X8.3868Y-5.8376
X8.438Y-4.9498
X8.4715Y-4.4341
X8.4843Y-3.8504
X8.5561Y-6.1309
X8.5797Y-4.062
X8.5797Y-6.4508
X8.5817Y-4.3415
X8.6358Y-5.9547
X8.6663Y-3.4262
X8.7707Y-5.0876
X8.7805Y-6.7776
X8.7972Y-4.6939
X8.9537Y-3.5837
X8.9685Y-3.2736
X8.9892Y-5.3711
X8.997Y-5.9478
X8.999Y-4.2057
X9.0443Y-6.1329
X9.0502Y-6.5896
X9.0778Y-3.69
X9.0984Y-6.3376
X9.1407Y-5.8415
X9.1801Y-3.8504
X9.1978Y-4.9419
X9.312Y-6.1388
X9.3219Y-4.062
X9.3317Y-4.3396
X9.4203Y-3.4281
X9.5344Y-4.44
X9.5453Y-5.9675
X9.5551Y-6.7707
X9.5591Y-6.4754
X9.5974Y-4.7008
X9.6732Y-5.3848
X9.7037Y-3.5758
X9.7608Y-4.2018
X9.7707Y-3.688
X9.7766Y-6.1378
X9.8425Y-5.9656
X9.8947Y-5.8376
X9.9124Y-4.0581
X9.9242Y-3.8622
X9.936Y-4.9459
X9.9833Y-6.5876
X9.9961Y-6.3022
X10.0443Y-4.4341
X10.0699Y-3.6388
X10.0797Y-4.3376
X10.1722Y-4.1565
X10.1909Y-3.2392
X10.2687Y-5.0876
X10.2844Y-4.686
X10.2943Y-4.4419
X10.4754Y-6.7569
X10.4813Y-3.6526
X10.5138Y-3.3465
X10.5236Y-6.4616
X10.5295Y-5.687
X10.5571Y-5.9616
X10.5728Y-4.3366
X10.6181Y-5.3091
X10.625Y-4.0659
X10.6604Y-6.1358
X10.7106Y-5.4823
X10.7667Y-5.0699
X10.7687Y-4.6939
X10.8297Y-3.8681
X10.8612Y-4.4006
X10.875Y-3.4774
X10.8986Y-4.0561
X10.9222Y-6.5876
X10.9311Y-5.6978
X10.9675Y-6.3268
X10.9744Y-5.315
X11.0374Y-4.9321
X11.0659Y-3.2598
X11.1437Y-6.1122
X11.2382Y-5.9331
X11.2648Y-5.3179
X11.2667Y-3.5679
X11.2982Y-5.8356
X11.3091Y-4.2913
X11.3691Y-3.2175
X11.3898Y-5.5
X11.4134Y-6.7392
X11.4144Y-5.3179
X11.4852Y-5.0876
X11.5187Y-4.8002
X11.5463Y-6.2835
X11.5837Y-3.6447
X11.625Y-3.3238
X11.6624Y-5.9311
X11.6831Y-6.1152
X11.7421Y-3.8622
X11.7687Y-4.064
X11.8612Y-6.5856
X11.8671Y-4.4144
X11.9203Y-5.3179
X11.9478Y-3.687
X11.9478Y-6.311
X11.9695Y-5.7047
X11.9951Y-3.4774
X12.0423Y-3.2156
X12.0797Y-4.4419
X12.1102Y-6.1014
X12.1152Y-4.9055
X12.2274Y-4.69
X12.249Y-3.3888
X12.2677Y-4.1978
X12.2776Y-6.753
X12.2884Y-5.3041
X12.3228Y-5.4951
X12.3278Y-5.0669
X12.3543Y-5.9331
X12.3632Y-4.4705
X12.4016Y-3.9006
X12.4616Y-3.814
X12.503Y-5.2096
X12.5276Y-6.4232
X12.5354Y-4.0581
X12.5354Y-4.5906
X12.5364Y-6.1024
X12.5551Y-4.8317
X12.5955Y-3.5463
X12.5994Y-5.5207
X12.6112Y-5.6821
X12.6181Y-3.7254
X12.6496Y-5.9439
X12.6545Y-4.3238
X12.6575Y-6.8071
X12.7364Y-5.4715
X12.7372Y-3.2569
X12.7382Y-4.874
X12.8533Y-5.0531
X12.8593Y-4.8091
X12.8691Y-5.2904
X12.8809Y-5.7136
X12.8868Y-6.5856
X12.8888Y-4.3356
X12.8907Y-3.5797
X12.9272Y-6.7362
X12.938Y-3.312
X12.938Y-5.8986
X12.9675Y-6.3278
X12.9911Y-5.062
X13.0699Y-5.2904
X13.1014Y-6.8671
X13.1043Y-4.5207
X13.125Y-4.8553
X13.1319Y-3.8258
X13.1388Y-6.0925
X13.1919Y-5.628
X13.1959Y-4.7943
X13.2776Y-6.4636
X13.2815Y-4.9469
X13.2864Y-4.3356
X13.3022Y-5.4852
X13.3474Y-6.7362
X13.3819Y-3.315
X13.4006Y-6.5659
X13.4065Y-4.0285
X13.4065Y-6.3199
X13.4262Y-5.8986
X13.4262Y-6.0935
X13.436Y-4.3219
X13.4478Y-5.2598
X13.498Y-5.4203
X13.5Y-5.1339
X13.5482Y-4.7933
X13.5522Y-3.812
X13.5522Y-4.9843
X13.5876Y-5.9065
X13.6201Y-6.7067
X13.6348Y-4.06
X13.6407Y-4.3376
X13.6427Y-3.5856
X13.6486Y-6.5876
X13.6683Y-3.3061
X13.687Y-6.3278
X13.7451Y-6.1024
X13.7707Y-4.5236
X13.8396Y-5.2805
X13.9065Y-4.7963
X14.0177Y-3.8081
X14.0276Y-5.4213
X14.0896Y-6.5453
X14.0935Y-4.2943
X14.0935Y-4.9823
X14.0945Y-5.9941
X14.1043Y-6.3996
X14.1289Y-3.5443
X14.1634Y-3.3189
X14.1841Y-5.188
X14.1969Y-6.7146
X14.2215Y-5.4144
X14.2884Y-6.8691
X14.2972Y-6.1752
X14.3819Y-3.8159
X14.3888Y-6.5856
X14.3907Y-4.3337
X14.3927Y-3.5837
X14.3927Y-5.2884
X14.4144Y-5.9104
X14.4291Y-6.3179
X14.4321Y-4.0659
X14.4331Y-6.6831
X14.4478Y-3.3159
X14.4587Y-4.5344
X14.4675Y-5.063
X14.5719Y-4.8563
X14.5837Y-5.6427
X14.6575Y-5.2795
X14.6909Y-3.7913
X14.6988Y-6.1919
X14.7205Y-6.6289
X14.7313Y-5.9518
X14.748Y-6.4498
X14.7598Y-4.7106
X14.7628Y-4.2018
X14.811Y-4.5344
X14.815Y-6.8238
X14.8514Y-5.1693
T3
X12.2037Y-5.6368
X12.2037Y-5.7368
X12.4636Y-5.436
X12.4636Y-5.536
X12.4636Y-5.636
X12.4636Y-5.736
T4
X1.4248Y-3.4433
X1.5186Y-6.4433
X1.6123Y-4.1933
X1.6748Y-3.3433
X1.7061Y-4.9433
X1.7686Y-6.3433
X1.8623Y-4.0933
X1.8936Y-5.6933
X1.9561Y-4.8433
X2.1436Y-5.5933
X2.1748Y-3.4433
X2.4248Y-3.3433
X2.4561Y-6.4433
X2.5498Y-4.1933
X2.7061Y-6.3433
X2.7373Y-4.9433
X2.7998Y-4.0933
X2.9248Y-3.4433
X2.9873Y-4.8433
X3.1123Y-5.6933
X3.1748Y-3.3433
X3.2998Y-4.1933
X3.3623Y-5.5933
X3.3936Y-6.4433
X3.4873Y-4.9433
X3.5498Y-4.0933
X3.6436Y-6.3433
X3.6748Y-3.4433
X3.7373Y-4.8433
X3.8623Y-5.6933
X3.9248Y-3.3433
X4.0498Y-4.1933
X4.1123Y-5.5933
X4.2373Y-4.9433
X4.2998Y-4.0933
X4.3311Y-6.4433
X4.4248Y-3.4433
X4.4873Y-4.8433
X4.5811Y-6.3433
X4.6123Y-5.6933
X4.6748Y-3.3433
X4.7998Y-4.1933
X4.8623Y-5.5933
X4.9873Y-4.9433
X5.0498Y-4.0933
X5.1748Y-3.4433
X5.2373Y-4.8433
X5.3623Y-5.6933
X5.4248Y-3.3433
X5.5498Y-4.1933
X5.6123Y-5.5933
X5.7373Y-4.9433
X5.7998Y-4.0933
X5.8311Y-6.4433
X5.9248Y-3.4433
X5.9873Y-4.8433
X6.0811Y-6.3433
X6.1123Y-5.6933
X6.1748Y-3.3433
X6.2998Y-4.1933
X6.3623Y-5.5933
X6.4873Y-4.9433
X6.5498Y-4.0933
X6.6748Y-3.4433
X6.7373Y-4.8433
X6.8623Y-5.6933
X6.9248Y-3.3433
X7.0498Y-4.1933
X7.1123Y-5.5933
X7.2373Y-4.9433
X7.2998Y-4.0933
X7.4248Y-3.4433
X7.4873Y-4.8433
X7.6123Y-5.6933
X7.6748Y-3.3433
X7.7061Y-6.4433
X7.7998Y-4.1933
X7.8623Y-5.5933
X7.9561Y-6.3433
X7.9873Y-4.9433
X8.0498Y-4.0933
X8.1748Y-3.4433
X8.2373Y-4.8433
X8.3623Y-5.6933
X8.4248Y-3.3433
X8.5498Y-4.1933
X8.6123Y-5.5933
X8.7373Y-4.9433
X8.7998Y-4.0933
X8.9248Y-3.4433
X8.9873Y-4.8433
X9.0186Y-6.4433
X9.1123Y-5.6933
X9.1748Y-3.3433
X9.2686Y-6.3433
X9.2998Y-4.1933
X9.3623Y-5.5933
X9.4873Y-4.9433
X9.5498Y-4.0933
X9.6748Y-3.4433
X9.7373Y-4.8433
X9.8623Y-5.6933
X9.9248Y-3.3433
X9.9561Y-6.4433
X10.0498Y-4.1933
X10.1123Y-5.5933
X10.2061Y-6.3433
X10.2373Y-4.9433
X10.2998Y-4.0933
X10.4248Y-3.4433
X10.4873Y-4.8433
X10.6748Y-3.3433
X10.7998Y-4.1933
X10.8936Y-6.4433
X11.0498Y-4.0933
X11.1436Y-6.3433
X11.2686Y-5.6933
X11.4561Y-4.9433
X11.5186Y-5.5933
X11.5498Y-3.4433
X11.7061Y-4.8433
X11.7373Y-4.1933
X11.7998Y-3.3433
X11.8311Y-6.4433
X11.9873Y-4.0933
X12.0811Y-6.3433
X12.8623Y-3.4433
X12.8623Y-4.1933
X12.8623Y-6.4433
X13.1123Y-3.3433
X13.1123Y-4.0933
X13.1123Y-6.3433
X13.6123Y-3.4433
X13.6123Y-4.1933
X13.6123Y-5.6933
X13.6123Y-6.4433
X13.8623Y-3.3433
X13.8623Y-4.0933
X13.8623Y-5.5933
X13.8623Y-6.3433
X14.3623Y-3.4433
X14.3623Y-4.1933
X14.3623Y-6.4433
X14.6123Y-3.3433
X14.6123Y-4.0933
X14.6123Y-6.3433
T5
X1.5748Y-5.5183
X2.5123Y-5.5183
X5.5123Y-6.8183
X6.4498Y-6.8183
X7.3873Y-6.8183
X8.3248Y-6.8183
X10.9498Y-5.5183
X11.1373Y-5.3183
X11.2311Y-3.2683
X11.8873Y-5.5183
X12.0748Y-5.3183
X12.1686Y-3.2683
M30
