M48
; DRILL file {KiCad 7.0.10} date Sa 20 Apr 2024 21:15:06 CEST
; FORMAT={-:-/ absolute / inch / decimal}
; #@! TF.CreationDate,2024-04-20T21:15:06+02:00
; #@! TF.GenerationSoftware,Kicad,Pcbnew,7.0.10
; #@! TF.FileFunction,NonPlated,1,2,NPTH
FMAT,2
INCH
; #@! TA.AperFunction,NonPlated,NPTH,ComponentDrill
T1C0.0689
; #@! TA.AperFunction,NonPlated,NPTH,ComponentDrill
T2C0.1570
%
G90
G05
T1
X1.3748Y-3.5433
X1.4686Y-6.5433
X1.5623Y-4.2933
X1.6561Y-5.0433
X1.7748Y-3.5433
X1.8436Y-5.7933
X1.8686Y-6.5433
X1.9623Y-4.2933
X2.0561Y-5.0433
X2.1248Y-3.5433
X2.2436Y-5.7933
X2.4061Y-6.5433
X2.4998Y-4.2933
X2.5248Y-3.5433
X2.6873Y-5.0433
X2.8061Y-6.5433
X2.8748Y-3.5433
X2.8998Y-4.2933
X3.0623Y-5.7933
X3.0873Y-5.0433
X3.2498Y-4.2933
X3.2748Y-3.5433
X3.3436Y-6.5433
X3.4373Y-5.0433
X3.4623Y-5.7933
X3.6248Y-3.5433
X3.6498Y-4.2933
X3.7436Y-6.5433
X3.8123Y-5.7933
X3.8373Y-5.0433
X3.9998Y-4.2933
X4.0248Y-3.5433
X4.1873Y-5.0433
X4.2123Y-5.7933
X4.2811Y-6.5433
X4.3748Y-3.5433
X4.3998Y-4.2933
X4.5623Y-5.7933
X4.5873Y-5.0433
X4.6811Y-6.5433
X4.7498Y-4.2933
X4.7748Y-3.5433
X4.9373Y-5.0433
X4.9623Y-5.7933
X5.1248Y-3.5433
X5.1498Y-4.2933
X5.3123Y-5.7933
X5.3373Y-5.0433
X5.4998Y-4.2933
X5.5248Y-3.5433
X5.6873Y-5.0433
X5.7123Y-5.7933
X5.7811Y-6.5433
X5.8748Y-3.5433
X5.8998Y-4.2933
X6.0623Y-5.7933
X6.0873Y-5.0433
X6.1811Y-6.5433
X6.2498Y-4.2933
X6.2748Y-3.5433
X6.4373Y-5.0433
X6.4623Y-5.7933
X6.6248Y-3.5433
X6.6498Y-4.2933
X6.8123Y-5.7933
X6.8373Y-5.0433
X6.9998Y-4.2933
X7.0248Y-3.5433
X7.1873Y-5.0433
X7.2123Y-5.7933
X7.3748Y-3.5433
X7.3998Y-4.2933
X7.5623Y-5.7933
X7.5873Y-5.0433
X7.6561Y-6.5433
X7.7498Y-4.2933
X7.7748Y-3.5433
X7.9373Y-5.0433
X7.9623Y-5.7933
X8.0561Y-6.5433
X8.1248Y-3.5433
X8.1498Y-4.2933
X8.3123Y-5.7933
X8.3373Y-5.0433
X8.4998Y-4.2933
X8.5248Y-3.5433
X8.6873Y-5.0433
X8.7123Y-5.7933
X8.8748Y-3.5433
X8.8998Y-4.2933
X8.9686Y-6.5433
X9.0623Y-5.7933
X9.0873Y-5.0433
X9.2498Y-4.2933
X9.2748Y-3.5433
X9.3686Y-6.5433
X9.4373Y-5.0433
X9.4623Y-5.7933
X9.6248Y-3.5433
X9.6498Y-4.2933
X9.8123Y-5.7933
X9.8373Y-5.0433
X9.9061Y-6.5433
X9.9998Y-4.2933
X10.0248Y-3.5433
X10.1873Y-5.0433
X10.2123Y-5.7933
X10.3061Y-6.5433
X10.3748Y-3.5433
X10.3998Y-4.2933
X10.5873Y-5.0433
X10.7498Y-4.2933
X10.7748Y-3.5433
X10.8436Y-6.5433
X11.1498Y-4.2933
X11.2186Y-5.7933
X11.2436Y-6.5433
X11.4061Y-5.0433
X11.4998Y-3.5433
X11.6186Y-5.7933
X11.6873Y-4.2933
X11.7811Y-6.5433
X11.8061Y-5.0433
X11.8998Y-3.5433
X12.0873Y-4.2933
X12.1811Y-6.5433
X12.8123Y-3.5433
X12.8123Y-4.2933
X12.8123Y-6.5433
X13.2123Y-3.5433
X13.2123Y-4.2933
X13.2123Y-6.5433
X13.5623Y-3.5433
X13.5623Y-4.2933
X13.5623Y-5.7933
X13.5623Y-6.5433
X13.9623Y-3.5433
X13.9623Y-4.2933
X13.9623Y-5.7933
X13.9623Y-6.5433
X14.3123Y-3.5433
X14.3123Y-4.2933
X14.3123Y-6.5433
X14.7123Y-3.5433
X14.7123Y-4.2933
X14.7123Y-6.5433
T2
X1.5748Y-3.5433
X1.5748Y-6.1183
X1.6686Y-6.5433
X1.7623Y-4.2933
X1.8561Y-5.0433
X2.0436Y-5.7933
X2.3248Y-3.5433
X2.5123Y-6.1183
X2.6061Y-6.5433
X2.6998Y-4.2933
X2.8873Y-5.0433
X3.0748Y-3.5433
X3.2623Y-5.7933
X3.4498Y-4.2933
X3.5436Y-6.5433
X3.6373Y-5.0433
X3.8248Y-3.5433
X4.0123Y-5.7933
X4.1998Y-4.2933
X4.3873Y-5.0433
X4.4811Y-6.5433
X4.5748Y-3.5433
X4.7623Y-5.7933
X4.9498Y-4.2933
X5.1373Y-5.0433
X5.3248Y-3.5433
X5.5123Y-5.7933
X5.5123Y-6.2183
X5.6998Y-4.2933
X5.8873Y-5.0433
X5.9811Y-6.5433
X6.0748Y-3.5433
X6.2623Y-5.7933
X6.4498Y-4.2933
X6.4498Y-6.2183
X6.6373Y-5.0433
X6.8248Y-3.5433
X7.0123Y-5.7933
X7.1998Y-4.2933
X7.3873Y-5.0433
X7.3873Y-6.2183
X7.5748Y-3.5433
X7.7623Y-5.7933
X7.8561Y-6.5433
X7.9498Y-4.2933
X8.1373Y-5.0433
X8.3248Y-3.5433
X8.3248Y-6.2183
X8.5123Y-5.7933
X8.6998Y-4.2933
X8.8873Y-5.0433
X9.0748Y-3.5433
X9.1686Y-6.5433
X9.2623Y-5.7933
X9.4498Y-4.2933
X9.6373Y-5.0433
X9.8248Y-3.5433
X10.0123Y-5.7933
X10.1061Y-6.5433
X10.1998Y-4.2933
X10.3873Y-5.0433
X10.5748Y-3.5433
X10.9498Y-4.2933
X10.9498Y-6.1183
X11.0436Y-6.5433
X11.1373Y-4.7183
X11.2311Y-3.8683
X11.4186Y-5.7933
X11.6061Y-5.0433
X11.6998Y-3.5433
X11.8873Y-4.2933
X11.8873Y-6.1183
X11.9811Y-6.5433
X12.0748Y-4.7183
X12.1686Y-3.8683
X13.0123Y-3.5433
X13.0123Y-4.2933
X13.0123Y-6.5433
X13.7623Y-3.5433
X13.7623Y-4.2933
X13.7623Y-5.7933
X13.7623Y-6.5433
X14.5123Y-3.5433
X14.5123Y-4.2933
X14.5123Y-6.5433
M30
